<svg width="544" height="608" viewBox="0 0 544 608" fill="none" xmlns="http://www.w3.org/2000/svg">
<g filter="url(#filter0_d)">
<rect x="24" y="16" width="496" height="560" rx="8" fill="white"/>
<path d="M64.46 75L69.58 61H72.46L77.58 75H74.86L73.74 71.76H68.28L67.14 75H64.46ZM68.98 69.76H73.04L71 63.94L68.98 69.76ZM78.3234 75V65.08H80.6034L80.8434 66.94C81.2034 66.3 81.6901 65.7933 82.3034 65.42C82.9301 65.0333 83.6634 64.84 84.5034 64.84V67.54H83.7834C83.2234 67.54 82.7234 67.6267 82.2834 67.8C81.8434 67.9733 81.4968 68.2733 81.2434 68.7C81.0034 69.1267 80.8834 69.72 80.8834 70.48V75H78.3234ZM85.2531 75V65.08H87.5331L87.7731 66.94C88.1331 66.3 88.6198 65.7933 89.2331 65.42C89.8598 65.0333 90.5931 64.84 91.4331 64.84V67.54H90.7131C90.1531 67.54 89.6531 67.6267 89.2131 67.8C88.7731 67.9733 88.4265 68.2733 88.1731 68.7C87.9331 69.1267 87.8131 69.72 87.8131 70.48V75H85.2531ZM96.767 75.24C95.807 75.24 94.9404 75.02 94.167 74.58C93.407 74.14 92.8004 73.5333 92.347 72.76C91.907 71.9733 91.687 71.0667 91.687 70.04C91.687 69.0133 91.9137 68.1133 92.367 67.34C92.8204 66.5533 93.427 65.94 94.187 65.5C94.9604 65.06 95.827 64.84 96.787 64.84C97.7337 64.84 98.587 65.06 99.347 65.5C100.12 65.94 100.727 66.5533 101.167 67.34C101.62 68.1133 101.847 69.0133 101.847 70.04C101.847 71.0667 101.62 71.9733 101.167 72.76C100.727 73.5333 100.12 74.14 99.347 74.58C98.5737 75.02 97.7137 75.24 96.767 75.24ZM96.767 73.02C97.4337 73.02 98.0137 72.7733 98.507 72.28C99.0004 71.7733 99.247 71.0267 99.247 70.04C99.247 69.0533 99.0004 68.3133 98.507 67.82C98.0137 67.3133 97.4404 67.06 96.787 67.06C96.107 67.06 95.5204 67.3133 95.027 67.82C94.547 68.3133 94.307 69.0533 94.307 70.04C94.307 71.0267 94.547 71.7733 95.027 72.28C95.5204 72.7733 96.1004 73.02 96.767 73.02ZM104.724 75L101.824 65.08H104.364L106.084 72.22L108.084 65.08H110.924L112.924 72.22L114.664 65.08H117.204L114.284 75H111.624L109.504 67.58L107.384 75H104.724Z" fill="#2E3A59"/>
<path d="M244 533.9L239.055 528.944L240.463 527.535L244 531.07L247.535 527.535L248.95 528.949L244 533.9ZM240.463 520.465L239.05 519.05L244 514.1L248.944 519.055L247.536 520.463L244 516.929L240.464 520.464L240.463 520.465Z" fill="#2E3A59"/>
<path d="M184.463 531.779L183.05 530.364L188 525.415L192.944 530.37L191.536 531.778L188 528.242L184.464 531.779H184.463ZM188 522.586L183.055 517.631L184.464 516.222L188 519.757L191.535 516.222L192.95 517.636L188.001 522.585L188 522.586Z" fill="#2E3A59"/>
<path d="M471.5 405.5L468 402L464.5 405.5L465.207 406.207L467.5 403.914V422H468.5V403.914L470.793 406.207L471.5 405.5Z" fill="#2E3A59"/>
<path d="M474.5 303.5L478 300L474.5 296.5L473.793 297.207L476.086 299.5H458V300.5H476.086L473.793 302.793L474.5 303.5Z" fill="#2E3A59"/>
<path d="M461.5 352.5L458 356L461.5 359.5L462.207 358.793L459.914 356.5H478V355.5H459.914L462.207 353.207L461.5 352.5Z" fill="#2E3A59"/>
<path d="M408.5 418.5L412 422L415.5 418.5L414.793 417.793L412.5 420.086V402H411.5V420.086L409.207 417.793L408.5 418.5Z" fill="#2E3A59"/>
<path d="M471 464L468 461L465 464L465.707 464.707L467.5 462.914V475H468.5V462.914L470.293 464.707L471 464Z" fill="#2E3A59"/>
<path d="M416 471L419 468L416 465L415.293 465.707L417.086 467.5H405V468.5H417.086L415.293 470.293L416 471Z" fill="#2E3A59"/>
<path d="M352 465L349 468L352 471L352.707 470.293L350.914 468.5H363V467.5H350.914L352.707 465.707L352 465Z" fill="#2E3A59"/>
<path d="M297 472L300 475L303 472L302.293 471.293L300.5 473.086V461H299.5V473.086L297.707 471.293L297 472Z" fill="#2E3A59"/>
<g clip-path="url(#clip0)">
<path d="M195.5 462.5L189 456L182.5 462.5L183.207 463.207L188.5 457.914V480H189.5V457.914L194.793 463.207L195.5 462.5Z" fill="#2E3A59"/>
</g>
<path d="M137.5 474.5L144 468L137.5 461.5L136.793 462.207L142.086 467.5H120V468.5H142.086L136.793 473.793L137.5 474.5Z" fill="#2E3A59"/>
<path d="M70.5 461.5L64 468L70.5 474.5L71.207 473.793L65.914 468.5H88V467.5H65.914L71.207 462.207L70.5 461.5Z" fill="#2E3A59"/>
<path d="M238.5 473.5L245 480L251.5 473.5L250.793 472.793L245.5 478.086V456H244.5V478.086L239.207 472.793L238.5 473.5Z" fill="#2E3A59"/>
<path d="M350 405V413H360.17L357.59 410.41L359 409L364 414L359 419L357.59 417.59L360.17 415H348V405H350Z" fill="#2E3A59"/>
<path d="M306 405V413H295.83L298.41 410.41L297 409L292 414L297 419L298.41 417.59L295.83 415H308V405H306Z" fill="#2E3A59"/>
<path d="M240 406H243V422H245V406H248L244 402L240 406Z" fill="#2E3A59"/>
<path d="M194 408V411H178V413H194V416L198 412L194 408Z" fill="#2E3A59"/>
<path d="M126 416V413H142V411H126V408L122 412L126 416Z" fill="#2E3A59"/>
<path d="M80 418H77V402H75V418H72L76 422L80 418Z" fill="#2E3A59"/>
<path d="M74.992 532H73V527H68V525H75L74.992 532ZM84 523H77L77.007 516H79V521H84V523Z" fill="#2E3A59"/>
<path d="M413 351.83L416.59 355.41L418 354L412 348L406 354L407.41 355.41L411 351.83V364H413V351.83Z" fill="#2E3A59"/>
<path d="M360.17 357L356.59 360.59L358 362L364 356L358 350L356.59 351.41L360.17 355H348V357H360.17Z" fill="#2E3A59"/>
<path d="M295.83 355L299.41 351.41L298 350L292 356L298 362L299.41 360.59L295.83 357H308V355H295.83Z" fill="#2E3A59"/>
<path d="M243 360.17L239.41 356.59L238 358L244 364L250 358L248.59 356.59L245 360.17V348H243V360.17Z" fill="#2E3A59"/>
<path d="M192.979 352.45L192.986 356H195V349H188V351.014L191.55 351.021L181 361.571L182.429 363L192.979 352.45Z" fill="#2E3A59"/>
<path d="M128.45 351.021L132 351.014V349H125V356H127.014L127.021 352.45L137.571 363L139 361.571L128.45 351.021Z" fill="#2E3A59"/>
<path d="M77 349.83L79.59 352.41L81 351L76 346L71 351L72.41 352.41L75 349.83V366H77V349.83Z" fill="#2E3A59"/>
<path d="M306.17 301L303.59 303.59L305 305L310 300L305 295L303.59 296.41L306.17 299H290V301H306.17Z" fill="#2E3A59"/>
<path d="M237.83 299L240.41 296.41L239 295L234 300L239 305L240.41 303.59L237.83 301H254V299H237.83Z" fill="#2E3A59"/>
<path d="M187 306.17L184.41 303.59L183 305L188 310L193 305L191.59 303.59L189 306.17V290H187V306.17Z" fill="#2E3A59"/>
<path d="M136.979 296.45L136.986 300H139V293H132V295.014L135.55 295.021L125 305.571L126.429 307L136.979 296.45Z" fill="#2E3A59"/>
<path d="M71.021 303.55L71.014 300H69V307H76V304.986L72.45 304.979L83 294.429L81.571 293L71.021 303.55Z" fill="#2E3A59"/>
<path d="M351.558 306.01L350.144 304.597L354.744 299.997L350.144 295.404L351.558 293.99L357.569 300L351.559 306.01H351.558ZM361.858 306H359.858V294H361.858V306Z" fill="#2E3A59"/>
<path d="M416.444 306.01L410.432 300L416.444 293.99L417.859 295.404L413.259 300.004L417.859 304.604L416.444 306.01ZM408.144 306H406.144V294H408.144V306Z" fill="#2E3A59"/>
<path d="M132 531H125L125.007 524H127V529H132V531ZM138.992 524H137V519H132V517H139L138.992 524Z" fill="#2E3A59"/>
<path d="M468 254C462.477 254 458 249.523 458 244C458 238.477 462.477 234 468 234C473.523 234 478 238.477 478 244C477.994 249.52 473.52 253.994 468 254ZM467.984 252H468C472.417 251.996 475.994 248.413 475.992 243.996C475.99 239.579 472.409 236 467.992 236C463.575 236 459.994 239.579 459.992 243.996C459.99 248.413 463.567 251.996 467.984 252ZM469 249H467V242.83L464.41 245.41L463 244L468 239L473 244L471.59 245.41L469 242.83V249Z" fill="#2E3A59"/>
<path d="M412 254C406.48 253.994 402.006 249.52 402 244V243.8C402.11 238.305 406.635 233.928 412.131 234.001C417.627 234.074 422.034 238.569 421.998 244.065C421.962 249.562 417.497 253.999 412 254ZM412 236C407.582 236 404 239.582 404 244C404 248.418 407.582 252 412 252C416.418 252 420 248.418 420 244C419.995 239.584 416.416 236.005 412 236ZM412 249L410.59 247.59L413.17 245H407V243H413.17L410.59 240.41L412 239L417 244L412 249Z" fill="#2E3A59"/>
<path d="M356 254C350.477 254 346 249.523 346 244C346 238.477 350.477 234 356 234C361.523 234 366 238.477 366 244C365.994 249.52 361.52 253.994 356 254ZM356 236C351.605 236.001 348.034 239.547 348.002 243.941C347.97 248.336 351.489 251.934 355.883 251.999C360.277 252.065 363.901 248.573 364 244.18V245.963V244C363.995 239.584 360.416 236.005 356 236ZM356 249L351 244L356 239L357.41 240.41L354.83 243H361V245H354.83L357.41 247.59L356 249Z" fill="#2E3A59"/>
<path d="M300 254C294.477 254 290 249.523 290 244C290 238.477 294.477 234 300 234C305.523 234 310 238.477 310 244C309.994 249.52 305.52 253.994 300 254ZM300 236C295.582 236 292 239.582 292 244C292 248.418 295.582 252 300 252C304.418 252 308 248.418 308 244C307.995 239.584 304.416 236.005 300 236ZM300 249L295 244L296.41 242.59L299 245.17V239H301V245.17L303.59 242.59L305 244L300 249Z" fill="#2E3A59"/>
<path d="M244 254C238.477 254 234 249.523 234 244C234 238.477 238.477 234 244 234C249.523 234 254 238.477 254 244C253.994 249.52 249.52 253.994 244 254ZM243.984 252H244C248.417 251.996 251.994 248.413 251.992 243.996C251.99 239.579 248.409 236 243.992 236C239.575 236 235.994 239.579 235.992 243.996C235.99 248.413 239.567 251.996 243.984 252ZM240.514 246.864L239.1 245.45L244.05 240.5L249 245.45L247.586 246.863L244.05 243.328L240.515 246.864H240.514Z" fill="#2E3A59"/>
<path d="M76 254C70.4797 253.994 66.0061 249.52 66 244V243.8C66.1099 238.305 70.6346 233.928 76.1307 234.001C81.6268 234.074 86.0337 238.569 85.9978 244.065C85.9619 249.562 81.4966 253.999 76 254ZM76 236C71.5817 236 68 239.582 68 244C68 248.418 71.5817 252 76 252C80.4183 252 84 248.418 84 244C83.995 239.584 80.4162 236.005 76 236ZM74.55 249L73.136 247.585L76.671 244.05L73.136 240.515L74.55 239.1L79.5 244.05L74.551 249H74.55Z" fill="#2E3A59"/>
<path d="M188 254C182.477 254 178 249.523 178 244C178 238.477 182.477 234 188 234C193.523 234 198 238.477 198 244C197.994 249.52 193.52 253.994 188 254ZM188 236C183.605 236.001 180.034 239.547 180.002 243.941C179.97 248.336 183.489 251.934 187.883 251.999C192.277 252.065 195.901 248.573 196 244.18V245.963V244C195.995 239.584 192.416 236.005 188 236ZM189.45 248.9L184.5 243.95L189.45 239L190.864 240.414L187.328 243.95L190.863 247.486L189.451 248.9H189.45Z" fill="#2E3A59"/>
<path d="M132 254C126.477 254 122 249.523 122 244C122 238.477 126.477 234 132 234C137.523 234 142 238.477 142 244C141.994 249.52 137.52 253.994 132 254ZM132 236C127.582 236 124 239.582 124 244C124 248.418 127.582 252 132 252C136.418 252 140 248.418 140 244C139.995 239.584 136.416 236.005 132 236ZM131.95 247.5L127 242.55L128.414 241.136L131.95 244.671L135.486 241.136L136.9 242.55L131.95 247.5Z" fill="#2E3A59"/>
<path d="M468 184.288L461.99 190.298L463.404 191.713L468.004 187.113L472.604 191.713L474.011 190.298L468 184.288Z" fill="#2E3A59"/>
<path d="M415.713 188L409.702 181.99L408.288 183.404L412.888 188.004L408.288 192.597L409.702 194.011L415.713 188Z" fill="#2E3A59"/>
<path d="M352.288 188L358.298 194.01L359.712 192.596L355.112 187.996L359.712 183.396L358.298 181.99L352.288 188Z" fill="#2E3A59"/>
<path d="M239.403 194.425L237.99 193.01L244 186.999L250.01 193.01L248.597 194.423L243.997 189.823L239.397 194.423L239.403 194.425ZM239.403 189.001L237.99 187.585L244 181.575L250.01 187.585L248.597 188.999L243.997 184.399L239.397 188.999L239.403 189.001Z" fill="#2E3A59"/>
<path d="M188.414 194.01L186.999 192.597L191.599 187.997L186.999 183.397L188.414 181.99L194.424 188L188.415 194.01H188.414ZM182.989 194.01L181.575 192.597L186.175 187.997L181.575 183.404L182.989 181.99L189 188L182.99 194.01H182.989Z" fill="#2E3A59"/>
<path d="M131.585 194.01L125.575 188L131.585 181.99L133 183.404L128.4 188.004L133 192.604L131.586 194.01H131.585ZM137.01 194.01L130.999 188L137.01 181.99L138.424 183.404L133.824 188.004L138.424 192.604L137.011 194.01H137.01Z" fill="#2E3A59"/>
<path d="M76 194.424L69.99 188.414L71.404 186.999L76.004 191.599L80.604 186.999L82.01 188.414L76.001 194.424H76ZM76 189L69.99 182.989L71.404 181.575L76.004 186.175L80.604 181.575L82.01 182.989L76.001 188.999L76 189Z" fill="#2E3A59"/>
<path d="M300 191.713L306.01 185.703L304.597 184.288L300 188.888L295.404 184.288L293.99 185.702L300 191.713Z" fill="#2E3A59"/>
<path d="M476.485 135.535L468 127.05L459.515 135.535L460.929 136.95L468 129.878L475.071 136.95L476.485 135.535Z" fill="#2E3A59"/>
<path d="M408.465 140.485L416.95 132L408.465 123.515L407.05 124.929L414.122 132L407.05 139.071L408.465 140.485Z" fill="#2E3A59"/>
<path d="M359.535 123.515L351.05 132L359.535 140.485L360.95 139.071L353.878 132L360.95 124.929L359.535 123.515Z" fill="#2E3A59"/>
<path d="M291.515 128.465L300 136.95L308.485 128.465L307.071 127.05L300 134.122L292.929 127.05L291.515 128.465Z" fill="#2E3A59"/>
<path d="M244 129.5L239 134.5H249L244 129.5Z" fill="#2E3A59"/>
<path d="M134.5 132L129.5 127V137L134.5 132Z" fill="#2E3A59"/>
<path d="M73.5 132L78.5 137V127L73.5 132Z" fill="#2E3A59"/>
<path d="M188 134.5L193 129.5H183L188 134.5Z" fill="#2E3A59"/>
</g>
<defs>
<filter id="filter0_d" x="0" y="0" width="544" height="608" filterUnits="userSpaceOnUse" color-interpolation-filters="sRGB">
<feFlood flood-opacity="0" result="BackgroundImageFix"/>
<feColorMatrix in="SourceAlpha" type="matrix" values="0 0 0 0 0 0 0 0 0 0 0 0 0 0 0 0 0 0 127 0"/>
<feOffset dy="8"/>
<feGaussianBlur stdDeviation="12"/>
<feColorMatrix type="matrix" values="0 0 0 0 0.0988235 0 0 0 0 0.127007 0 0 0 0 0.219608 0 0 0 0.04 0"/>
<feBlend mode="normal" in2="BackgroundImageFix" result="effect1_dropShadow"/>
<feBlend mode="normal" in="SourceGraphic" in2="effect1_dropShadow" result="shape"/>
</filter>
<clipPath id="clip0">
<rect width="24" height="24" fill="white" transform="translate(176 456)"/>
</clipPath>
</defs>
</svg>
