<svg width="544" height="216" viewBox="0 0 544 216" fill="none" xmlns="http://www.w3.org/2000/svg">
<g filter="url(#filter0_d)">
<rect x="24" y="16" width="496" height="168" rx="8" fill="white"/>
<path d="M64.46 75L69.58 61H72.46L77.58 75H74.86L73.74 71.76H68.28L67.14 75H64.46ZM68.98 69.76H73.04L71 63.94L68.98 69.76ZM81.7669 75C80.7269 75 79.8935 74.7467 79.2669 74.24C78.6402 73.7333 78.3269 72.8333 78.3269 71.54V67.22H76.6269V65.08H78.3269L78.6269 62.42H80.8869V65.08H83.5669V67.22H80.8869V71.56C80.8869 72.04 80.9869 72.3733 81.1869 72.56C81.4002 72.7333 81.7602 72.82 82.2669 72.82H83.5069V75H81.7669ZM89.1848 75C88.1448 75 87.3115 74.7467 86.6848 74.24C86.0582 73.7333 85.7448 72.8333 85.7448 71.54V67.22H84.0448V65.08H85.7448L86.0448 62.42H88.3048V65.08H90.9848V67.22H88.3048V71.56C88.3048 72.04 88.4048 72.3733 88.6048 72.56C88.8182 72.7333 89.1782 72.82 89.6848 72.82H90.9248V75H89.1848ZM96.7489 75.24C95.7489 75.24 94.8622 75.0267 94.0889 74.6C93.3156 74.1733 92.7089 73.5733 92.2689 72.8C91.8289 72.0267 91.6089 71.1333 91.6089 70.12C91.6089 69.0933 91.8222 68.18 92.2489 67.38C92.6889 66.58 93.2889 65.96 94.0489 65.52C94.8222 65.0667 95.7289 64.84 96.7689 64.84C97.7422 64.84 98.6022 65.0533 99.3489 65.48C100.096 65.9067 100.676 66.4933 101.089 67.24C101.516 67.9733 101.729 68.7933 101.729 69.7C101.729 69.8467 101.722 70 101.709 70.16C101.709 70.32 101.702 70.4867 101.689 70.66H94.1489C94.2022 71.4333 94.4689 72.04 94.9489 72.48C95.4422 72.92 96.0356 73.14 96.7289 73.14C97.2489 73.14 97.6822 73.0267 98.0289 72.8C98.3889 72.56 98.6556 72.2533 98.8289 71.88H101.429C101.242 72.5067 100.929 73.08 100.489 73.6C100.062 74.1067 99.5289 74.5067 98.8889 74.8C98.2622 75.0933 97.5489 75.24 96.7489 75.24ZM96.7689 66.92C96.1422 66.92 95.5889 67.1 95.1089 67.46C94.6289 67.8067 94.3222 68.34 94.1889 69.06H99.1289C99.0889 68.4067 98.8489 67.8867 98.4089 67.5C97.9689 67.1133 97.4222 66.92 96.7689 66.92ZM102.882 75V65.08H105.142L105.342 66.76C105.649 66.1733 106.089 65.7067 106.662 65.36C107.249 65.0133 107.935 64.84 108.722 64.84C109.949 64.84 110.902 65.2267 111.582 66C112.262 66.7733 112.602 67.9067 112.602 69.4V75H110.042V69.64C110.042 68.7867 109.869 68.1333 109.522 67.68C109.175 67.2267 108.635 67 107.902 67C107.182 67 106.589 67.2533 106.122 67.76C105.669 68.2667 105.442 68.9733 105.442 69.88V75H102.882ZM118.47 75C117.43 75 116.597 74.7467 115.97 74.24C115.343 73.7333 115.03 72.8333 115.03 71.54V67.22H113.33V65.08H115.03L115.33 62.42H117.59V65.08H120.27V67.22H117.59V71.56C117.59 72.04 117.69 72.3733 117.89 72.56C118.103 72.7333 118.463 72.82 118.97 72.82H120.21V75H118.47ZM122.848 63.54C122.381 63.54 121.995 63.4 121.688 63.12C121.395 62.84 121.248 62.4867 121.248 62.06C121.248 61.6333 121.395 61.2867 121.688 61.02C121.995 60.74 122.381 60.6 122.848 60.6C123.315 60.6 123.695 60.74 123.988 61.02C124.295 61.2867 124.448 61.6333 124.448 62.06C124.448 62.4867 124.295 62.84 123.988 63.12C123.695 63.4 123.315 63.54 122.848 63.54ZM121.568 75V65.08H124.128V75H121.568ZM130.56 75.24C129.6 75.24 128.733 75.02 127.96 74.58C127.2 74.14 126.593 73.5333 126.14 72.76C125.7 71.9733 125.48 71.0667 125.48 70.04C125.48 69.0133 125.707 68.1133 126.16 67.34C126.613 66.5533 127.22 65.94 127.98 65.5C128.753 65.06 129.62 64.84 130.58 64.84C131.527 64.84 132.38 65.06 133.14 65.5C133.913 65.94 134.52 66.5533 134.96 67.34C135.413 68.1133 135.64 69.0133 135.64 70.04C135.64 71.0667 135.413 71.9733 134.96 72.76C134.52 73.5333 133.913 74.14 133.14 74.58C132.367 75.02 131.507 75.24 130.56 75.24ZM130.56 73.02C131.227 73.02 131.807 72.7733 132.3 72.28C132.793 71.7733 133.04 71.0267 133.04 70.04C133.04 69.0533 132.793 68.3133 132.3 67.82C131.807 67.3133 131.233 67.06 130.58 67.06C129.9 67.06 129.313 67.3133 128.82 67.82C128.34 68.3133 128.1 69.0533 128.1 70.04C128.1 71.0267 128.34 71.7733 128.82 72.28C129.313 72.7733 129.893 73.02 130.56 73.02ZM136.929 75V65.08H139.189L139.389 66.76C139.696 66.1733 140.136 65.7067 140.709 65.36C141.296 65.0133 141.982 64.84 142.769 64.84C143.996 64.84 144.949 65.2267 145.629 66C146.309 66.7733 146.649 67.9067 146.649 69.4V75H144.089V69.64C144.089 68.7867 143.916 68.1333 143.569 67.68C143.222 67.2267 142.682 67 141.949 67C141.229 67 140.636 67.2533 140.169 67.76C139.716 68.2667 139.489 68.9733 139.489 69.88V75H136.929Z" fill="#2E3A59"/>
<path d="M477.266 140.998H458.733C458.376 140.998 458.046 140.807 457.867 140.498C457.688 140.189 457.688 139.807 457.867 139.498L467.133 123.498C467.312 123.189 467.642 122.999 467.999 122.999C468.355 122.999 468.685 123.189 468.864 123.498L478.13 139.498C478.309 139.807 478.309 140.188 478.13 140.498C477.952 140.807 477.622 140.998 477.265 140.998H477.266ZM468 125.998L460.469 138.998H475.533L468 125.998ZM468.995 134.999H466.995V129.998H468.995V134.999Z" fill="#2E3A59"/>
<path d="M467 136H469V138H467V136Z" fill="#2E3A59"/>
<path d="M421.266 140.998H402.733C402.376 140.998 402.046 140.807 401.867 140.498C401.688 140.189 401.688 139.807 401.867 139.498L411.133 123.498C411.312 123.189 411.642 122.999 411.999 122.999C412.355 122.999 412.685 123.189 412.864 123.498L422.13 139.498C422.309 139.807 422.309 140.188 422.13 140.498C421.952 140.807 421.622 140.998 421.265 140.998H421.266ZM411 135.998V137.998H411.933H411.998H412.063H412.998V135.998H411ZM411 128.998V133.998H413V128.998H411Z" fill="#2E3A59"/>
<path d="M364 141H348C347.448 141 347 140.552 347 140V124C347 123.448 347.448 123 348 123H364C364.552 123 365 123.448 365 124V140C365 140.552 364.552 141 364 141ZM349 125V139H363V125H349ZM358 137H355V133H354V131H357V135H358V137ZM357 129H355V127H357V129Z" fill="#2E3A59"/>
<path d="M308 141H292C291.448 141 291 140.552 291 140V124C291 123.448 291.448 123 292 123H308C308.552 123 309 123.448 309 124V140C309 140.552 308.552 141 308 141ZM298 131V133H299V137H302V135H301V131H298ZM299 127V129H301V127H299Z" fill="#2E3A59"/>
<path d="M244 142C238.477 142 234 137.523 234 132C234 126.477 238.477 122 244 122C249.523 122 254 126.477 254 132C253.994 137.52 249.52 141.994 244 142ZM236 132.172C236.047 136.573 239.641 140.11 244.043 140.086C248.444 140.062 252 136.487 252 132.086C252 127.685 248.444 124.11 244.043 124.086C239.641 124.062 236.047 127.599 236 132V132.172ZM246 137H243V133H242V131H245V135H246V137ZM245 129H243V127H245V129Z" fill="#2E3A59"/>
<path d="M188 142C182.477 142 178 137.523 178 132C178 126.477 182.477 122 188 122C193.523 122 198 126.477 198 132C197.994 137.52 193.52 141.994 188 142ZM185.99 130.99V133H186.99V137H190.01V135H189L189.01 130.991L185.99 130.99ZM186.99 127V129.019H189.01V127H186.99Z" fill="#2E3A59"/>
<path d="M131.99 142C126.468 141.994 121.996 137.515 122 131.993C122.004 126.472 126.482 121.998 132.003 122C137.525 122.002 142 126.478 142 132C141.997 137.525 137.515 142.002 131.99 142ZM124 132.172C124.047 136.573 127.641 140.11 132.043 140.086C136.444 140.062 140 136.487 140 132.086C140 127.685 136.444 124.11 132.043 124.086C127.641 124.062 124.047 127.599 124 132V132.172ZM133 137H131V135H133V137ZM133 133H131V127H133V133Z" fill="#2E3A59"/>
<path d="M76 142C70.4772 142 66 137.523 66 132C66 126.477 70.4772 122 76 122C81.5228 122 86 126.477 86 132C85.9939 137.52 81.5203 141.994 76 142ZM75 135V137H77V135H75ZM75 127V133H77V127H75Z" fill="#2E3A59"/>
</g>
<defs>
<filter id="filter0_d" x="0" y="0" width="544" height="216" filterUnits="userSpaceOnUse" color-interpolation-filters="sRGB">
<feFlood flood-opacity="0" result="BackgroundImageFix"/>
<feColorMatrix in="SourceAlpha" type="matrix" values="0 0 0 0 0 0 0 0 0 0 0 0 0 0 0 0 0 0 127 0"/>
<feOffset dy="8"/>
<feGaussianBlur stdDeviation="12"/>
<feColorMatrix type="matrix" values="0 0 0 0 0.0988235 0 0 0 0 0.127007 0 0 0 0 0.219608 0 0 0 0.04 0"/>
<feBlend mode="normal" in2="BackgroundImageFix" result="effect1_dropShadow"/>
<feBlend mode="normal" in="SourceGraphic" in2="effect1_dropShadow" result="shape"/>
</filter>
</defs>
</svg>
