<svg width="544" height="664" viewBox="0 0 544 664" fill="none" xmlns="http://www.w3.org/2000/svg">
<g filter="url(#filter0_d)">
<rect x="24" y="16" width="496" height="616" rx="8" fill="white"/>
<path d="M392 71C390.343 71 389 69.6569 389 68C389 66.3431 390.343 65 392 65C393.657 65 395 66.3431 395 68C395 68.7956 394.684 69.5587 394.121 70.1213C393.559 70.6839 392.796 71 392 71Z" fill="#FF007F"/>
<path d="M404.816 72V63.6H406.352L410.3 69.516V63.6H411.836V72H410.3L406.352 66.096V72H404.816ZM414.464 72V63.6H419.948V64.836H416V67.14H419.588V68.34H416V70.764H419.948V72H414.464ZM424.106 72L421.886 63.6H423.53L425.042 70.284L426.818 63.6H428.51L430.238 70.284L431.75 63.6H433.406L431.126 72H429.302L427.634 65.772L425.918 72H424.106ZM439.379 72V63.6H440.915V72H439.379ZM447.347 72.144C446.499 72.144 445.771 71.964 445.163 71.604C444.555 71.236 444.087 70.728 443.759 70.08C443.431 69.424 443.267 68.668 443.267 67.812C443.267 66.956 443.431 66.2 443.759 65.544C444.087 64.888 444.555 64.376 445.163 64.008C445.771 63.64 446.499 63.456 447.347 63.456C448.355 63.456 449.179 63.708 449.819 64.212C450.467 64.708 450.871 65.408 451.031 66.312H449.339C449.235 65.856 449.011 65.5 448.667 65.244C448.331 64.98 447.883 64.848 447.323 64.848C446.547 64.848 445.939 65.112 445.499 65.64C445.059 66.168 444.839 66.892 444.839 67.812C444.839 68.732 445.059 69.456 445.499 69.984C445.939 70.504 446.547 70.764 447.323 70.764C447.883 70.764 448.331 70.644 448.667 70.404C449.011 70.156 449.235 69.816 449.339 69.384H451.031C450.871 70.248 450.467 70.924 449.819 71.412C449.179 71.9 448.355 72.144 447.347 72.144ZM457.326 72.144C456.486 72.144 455.75 71.96 455.118 71.592C454.494 71.224 454.002 70.716 453.642 70.068C453.29 69.412 453.114 68.656 453.114 67.8C453.114 66.944 453.29 66.192 453.642 65.544C454.002 64.888 454.494 64.376 455.118 64.008C455.75 63.64 456.486 63.456 457.326 63.456C458.158 63.456 458.89 63.64 459.522 64.008C460.154 64.376 460.646 64.888 460.998 65.544C461.35 66.192 461.526 66.944 461.526 67.8C461.526 68.656 461.35 69.412 460.998 70.068C460.646 70.716 460.154 71.224 459.522 71.592C458.89 71.96 458.158 72.144 457.326 72.144ZM457.326 70.764C458.126 70.764 458.762 70.5 459.234 69.972C459.714 69.444 459.954 68.72 459.954 67.8C459.954 66.88 459.714 66.156 459.234 65.628C458.762 65.1 458.126 64.836 457.326 64.836C456.526 64.836 455.886 65.1 455.406 65.628C454.926 66.156 454.686 66.88 454.686 67.8C454.686 68.72 454.926 69.444 455.406 69.972C455.886 70.5 456.526 70.764 457.326 70.764ZM463.882 72V63.6H465.418L469.366 69.516V63.6H470.902V72H469.366L465.418 66.096V72H463.882ZM476.399 72.144C475.783 72.144 475.239 72.04 474.767 71.832C474.295 71.616 473.923 71.312 473.651 70.92C473.379 70.52 473.239 70.036 473.231 69.468H474.851C474.867 69.86 475.007 70.192 475.271 70.464C475.543 70.728 475.915 70.86 476.387 70.86C476.795 70.86 477.119 70.764 477.359 70.572C477.599 70.372 477.719 70.108 477.719 69.78C477.719 69.436 477.611 69.168 477.395 68.976C477.187 68.784 476.907 68.628 476.555 68.508C476.203 68.388 475.827 68.26 475.427 68.124C474.779 67.9 474.283 67.612 473.939 67.26C473.603 66.908 473.435 66.44 473.435 65.856C473.427 65.36 473.543 64.936 473.783 64.584C474.031 64.224 474.367 63.948 474.791 63.756C475.215 63.556 475.703 63.456 476.255 63.456C476.815 63.456 477.307 63.556 477.731 63.756C478.163 63.956 478.499 64.236 478.739 64.596C478.987 64.956 479.119 65.384 479.135 65.88H477.491C477.483 65.584 477.367 65.324 477.143 65.1C476.927 64.868 476.623 64.752 476.231 64.752C475.895 64.744 475.611 64.828 475.379 65.004C475.155 65.172 475.043 65.42 475.043 65.748C475.043 66.028 475.131 66.252 475.307 66.42C475.483 66.58 475.723 66.716 476.027 66.828C476.331 66.94 476.679 67.06 477.071 67.188C477.487 67.332 477.867 67.5 478.211 67.692C478.555 67.884 478.831 68.14 479.039 68.46C479.247 68.772 479.351 69.176 479.351 69.672C479.351 70.112 479.239 70.52 479.015 70.896C478.791 71.272 478.459 71.576 478.019 71.808C477.579 72.032 477.039 72.144 476.399 72.144Z" fill="#8F9BB3"/>
<path d="M65.36 75V61H70.98C72.4333 61 73.54 61.34 74.3 62.02C75.0733 62.6867 75.46 63.5467 75.46 64.6C75.46 65.48 75.22 66.1867 74.74 66.72C74.2733 67.24 73.7 67.5933 73.02 67.78C73.82 67.94 74.48 68.34 75 68.98C75.52 69.6067 75.78 70.34 75.78 71.18C75.78 72.2867 75.38 73.2 74.58 73.92C73.78 74.64 72.6467 75 71.18 75H65.36ZM67.92 66.88H70.6C71.32 66.88 71.8733 66.7133 72.26 66.38C72.6467 66.0467 72.84 65.5733 72.84 64.96C72.84 64.3733 72.6467 63.9133 72.26 63.58C71.8867 63.2333 71.32 63.06 70.56 63.06H67.92V66.88ZM67.92 72.92H70.78C71.54 72.92 72.1267 72.7467 72.54 72.4C72.9667 72.04 73.18 71.54 73.18 70.9C73.18 70.2467 72.96 69.7333 72.52 69.36C72.08 68.9867 71.4867 68.8 70.74 68.8H67.92V72.92ZM80.3372 75.24C79.4839 75.24 78.7839 75.1067 78.2372 74.84C77.6905 74.56 77.2839 74.1933 77.0172 73.74C76.7505 73.2867 76.6172 72.7867 76.6172 72.24C76.6172 71.32 76.9772 70.5733 77.6972 70C78.4172 69.4267 79.4972 69.14 80.9372 69.14H83.4572V68.9C83.4572 68.22 83.2639 67.72 82.8772 67.4C82.4905 67.08 82.0105 66.92 81.4372 66.92C80.9172 66.92 80.4639 67.0467 80.0772 67.3C79.6905 67.54 79.4505 67.9 79.3572 68.38H76.8572C76.9239 67.66 77.1639 67.0333 77.5772 66.5C78.0039 65.9667 78.5505 65.56 79.2172 65.28C79.8839 64.9867 80.6305 64.84 81.4572 64.84C82.8705 64.84 83.9839 65.1933 84.7972 65.9C85.6105 66.6067 86.0172 67.6067 86.0172 68.9V75H83.8372L83.5972 73.4C83.3039 73.9333 82.8905 74.3733 82.3572 74.72C81.8372 75.0667 81.1639 75.24 80.3372 75.24ZM80.9172 73.24C81.6505 73.24 82.2172 73 82.6172 72.52C83.0305 72.04 83.2905 71.4467 83.3972 70.74H81.2172C80.5372 70.74 80.0505 70.8667 79.7572 71.12C79.4639 71.36 79.3172 71.66 79.3172 72.02C79.3172 72.4067 79.4639 72.7067 79.7572 72.92C80.0505 73.1333 80.4372 73.24 80.9172 73.24ZM91.5602 75.24C90.6802 75.24 89.9068 75.1 89.2402 74.82C88.5735 74.5267 88.0402 74.1267 87.6402 73.62C87.2402 73.1133 87.0002 72.5267 86.9202 71.86H89.5002C89.5802 72.2467 89.7935 72.58 90.1402 72.86C90.5002 73.1267 90.9602 73.26 91.5202 73.26C92.0802 73.26 92.4868 73.1467 92.7402 72.92C93.0068 72.6933 93.1402 72.4333 93.1402 72.14C93.1402 71.7133 92.9535 71.4267 92.5802 71.28C92.2068 71.12 91.6868 70.9667 91.0202 70.82C90.5935 70.7267 90.1602 70.6133 89.7202 70.48C89.2802 70.3467 88.8735 70.18 88.5002 69.98C88.1402 69.7667 87.8468 69.5 87.6202 69.18C87.3935 68.8467 87.2802 68.44 87.2802 67.96C87.2802 67.08 87.6268 66.34 88.3202 65.74C89.0268 65.14 90.0135 64.84 91.2802 64.84C92.4535 64.84 93.3868 65.1133 94.0802 65.66C94.7868 66.2067 95.2068 66.96 95.3402 67.92H92.9202C92.7735 67.1867 92.2202 66.82 91.2602 66.82C90.7802 66.82 90.4068 66.9133 90.1402 67.1C89.8868 67.2867 89.7602 67.52 89.7602 67.8C89.7602 68.0933 89.9535 68.3267 90.3402 68.5C90.7268 68.6733 91.2402 68.8333 91.8802 68.98C92.5735 69.14 93.2068 69.32 93.7802 69.52C94.3668 69.7067 94.8335 69.9933 95.1802 70.38C95.5268 70.7533 95.7002 71.2933 95.7002 72C95.7135 72.6133 95.5535 73.1667 95.2202 73.66C94.8868 74.1533 94.4068 74.54 93.7802 74.82C93.1535 75.1 92.4135 75.24 91.5602 75.24ZM98.348 63.54C97.8813 63.54 97.4946 63.4 97.188 63.12C96.8946 62.84 96.748 62.4867 96.748 62.06C96.748 61.6333 96.8946 61.2867 97.188 61.02C97.4946 60.74 97.8813 60.6 98.348 60.6C98.8146 60.6 99.1946 60.74 99.488 61.02C99.7946 61.2867 99.948 61.6333 99.948 62.06C99.948 62.4867 99.7946 62.84 99.488 63.12C99.1946 63.4 98.8146 63.54 98.348 63.54ZM97.068 75V65.08H99.628V75H97.068ZM106.16 75.24C105.147 75.24 104.253 75.02 103.48 74.58C102.707 74.14 102.093 73.5267 101.64 72.74C101.2 71.9533 100.98 71.0533 100.98 70.04C100.98 69.0267 101.2 68.1267 101.64 67.34C102.093 66.5533 102.707 65.94 103.48 65.5C104.253 65.06 105.147 64.84 106.16 64.84C107.427 64.84 108.493 65.1733 109.36 65.84C110.227 66.4933 110.78 67.4 111.02 68.56H108.32C108.187 68.08 107.92 67.7067 107.52 67.44C107.133 67.16 106.673 67.02 106.14 67.02C105.433 67.02 104.833 67.2867 104.34 67.82C103.847 68.3533 103.6 69.0933 103.6 70.04C103.6 70.9867 103.847 71.7267 104.34 72.26C104.833 72.7933 105.433 73.06 106.14 73.06C106.673 73.06 107.133 72.9267 107.52 72.66C107.92 72.3933 108.187 72.0133 108.32 71.52H111.02C110.78 72.64 110.227 73.54 109.36 74.22C108.493 74.9 107.427 75.24 106.16 75.24Z" fill="#2E3A59"/>
<path d="M84.292 197.707L75.586 189H71V187H73.586L71.586 185H71C69.3432 185 68 186.343 68 188C68 189.657 69.3432 191 71 191H74V193H71C68.4816 193.002 66.3546 191.131 66.0361 188.633C65.7175 186.134 67.3066 183.789 69.745 183.159L66.292 179.707L67.707 178.293L85.707 196.293L84.293 197.706L84.292 197.707ZM84.136 191.893L82.708 190.466C83.7865 189.719 84.2543 188.358 83.863 187.105C83.4717 185.853 82.312 185 81 185H78V183H81C83.12 183 85.0094 184.337 85.7146 186.337C86.4199 188.336 85.7876 190.563 84.137 191.893H84.136Z" fill="#2E3A59"/>
<path d="M193 590H183C181.895 590 181 589.105 181 588V575H179V573H183V572C183 570.895 183.895 570 185 570H191C192.105 570 193 570.895 193 572V573H197V575H195V588C195 589.105 194.105 590 193 590ZM183 575V588H193V575H183ZM185 572V573H191V572H185ZM191 586H189V577H191V586ZM187 586H185V577H187V586Z" fill="#2E3A59"/>
<path d="M137 590H127C125.895 590 125 589.105 125 588V575H123V573H127V572C127 570.895 127.895 570 129 570H135C136.105 570 137 570.895 137 572V573H141V575H139V588C139 589.105 138.105 590 137 590ZM127 575V588H137V575H127ZM129 572V573H135V572H129Z" fill="#2E3A59"/>
<path d="M76.897 589.968C76.366 589.97 75.8564 589.759 75.482 589.382L67.648 581.547C67.2346 581.135 67.0226 580.562 67.068 579.98L67.568 573.414C67.6393 572.426 68.4262 571.642 69.414 571.573L75.98 571.073C76.031 571.062 76.083 571.062 76.134 571.062C76.6638 571.063 77.1717 571.274 77.547 571.648L85.382 579.482C85.7572 579.857 85.9681 580.366 85.9681 580.897C85.9681 581.427 85.7572 581.936 85.382 582.311L78.311 589.382C77.9368 589.758 77.4277 589.969 76.897 589.968ZM76.133 573.062L69.562 573.562L69.062 580.133L76.897 587.968L83.967 580.898L76.133 573.062ZM72.654 578.654C71.6998 578.654 70.8784 577.98 70.6921 577.045C70.5057 576.109 71.0064 575.172 71.8879 574.806C72.7693 574.441 73.7861 574.749 74.3163 575.543C74.8466 576.336 74.7426 577.393 74.068 578.068C73.6938 578.444 73.1847 578.655 72.654 578.654Z" fill="#2E3A59"/>
<path d="M468.897 533.968C468.366 533.97 467.857 533.759 467.483 533.382L459.646 525.547C459.232 525.135 459.02 524.562 459.066 523.98L459.566 517.414C459.637 516.426 460.425 515.641 461.414 515.573L467.98 515.073C468.032 515.062 468.083 515.062 468.135 515.062C468.665 515.061 469.173 515.272 469.546 515.648L477.383 523.482C477.758 523.857 477.969 524.366 477.969 524.897C477.969 525.427 477.758 525.936 477.383 526.311L470.311 533.382C469.937 533.758 469.428 533.969 468.897 533.968ZM464.654 518.654C463.749 518.654 462.957 519.262 462.723 520.137C462.489 521.011 462.871 521.934 463.655 522.386C464.439 522.839 465.429 522.708 466.069 522.068L466.076 522.062L466.083 522.055L466.075 522.062C466.643 521.489 466.811 520.63 466.501 519.884C466.19 519.139 465.461 518.654 464.654 518.654Z" fill="#2E3A59"/>
<path d="M412.998 534H410.998V531H412.998V534ZM418.362 531.778L416.241 529.657L417.655 528.243L419.777 530.365L418.364 531.778H418.362ZM405.634 531.778L404.219 530.364L406.339 528.242L407.754 529.656L405.634 531.777V531.778ZM411.998 529.007C409.233 529.006 406.992 526.764 406.993 523.999C406.994 521.234 409.236 518.993 412.001 518.993C414.766 518.993 417.007 521.235 417.007 524C417.004 526.765 414.763 529.005 411.998 529.007ZM411.998 520.993C410.338 520.994 408.992 522.341 408.993 524.001C408.994 525.662 410.34 527.007 412.001 527.007C413.661 527.007 415.007 525.66 415.007 524C415.005 522.339 413.659 520.994 411.998 520.993ZM421.998 525H418.998V523H421.998V525ZM404.998 525H401.998V523H404.998V525ZM417.654 519.758L416.241 518.343L418.362 516.221L419.777 517.636L417.655 519.757L417.654 519.758ZM406.341 519.758L404.221 517.637L405.636 516.223L407.756 518.345L406.342 519.757L406.341 519.758ZM412.998 517H410.998V514H412.998V517Z" fill="#2E3A59"/>
<path d="M356 533C351.582 533 348 529.418 348 525C348 520.582 351.582 517 356 517C360.418 517 364 520.582 364 525C363.995 529.416 360.416 532.995 356 533ZM356 519C352.686 519 350 521.686 350 525C350 528.314 352.686 531 356 531C359.314 531 362 528.314 362 525C361.996 521.688 359.312 519.004 356 519ZM357 526H355V521H357V526ZM363.293 519.707L361.293 517.707L362.707 516.293L364.707 518.293L363.294 519.706L363.293 519.707ZM359 516H353V514H359V516Z" fill="#2E3A59"/>
<path d="M295 533H293V531H290V529H293V527H295V533ZM310 531H297V529H310V531ZM305 527H303V525H290V523H303V521.012H305V527ZM310 525H307V523H310V525ZM299 521H297V519H290V517H297V515H299V521ZM310 519H301V517H310V519Z" fill="#2E3A59"/>
<path d="M239.5 533.5C237.954 533.494 236.593 532.479 236.145 531H234V529H236.145C236.66 527.273 238.402 526.219 240.171 526.565C241.939 526.911 243.156 528.543 242.983 530.337C242.809 532.131 241.302 533.5 239.5 533.5ZM239.5 528.5C238.672 528.5 238 529.172 238 530C238 530.828 238.672 531.5 239.5 531.5C240.328 531.5 241 530.828 241 530C241 529.172 240.328 528.5 239.5 528.5ZM254 531H244V529H254V531ZM248.5 527.5C246.698 527.5 245.191 526.131 245.017 524.337C244.844 522.543 246.061 520.911 247.829 520.565C249.598 520.219 251.34 521.273 251.855 523H254V525H251.855C251.407 526.479 250.046 527.494 248.5 527.5ZM248.5 522.5C247.672 522.5 247 523.172 247 524C247 524.828 247.672 525.5 248.5 525.5C249.328 525.5 250 524.828 250 524C250 523.172 249.328 522.5 248.5 522.5ZM244 525H234V523H244V525ZM241.5 521.5C239.698 521.5 238.191 520.131 238.017 518.337C237.844 516.543 239.061 514.911 240.829 514.565C242.598 514.219 244.34 515.273 244.855 517H254V519H244.855C244.406 520.479 243.046 521.493 241.5 521.5ZM241.5 516.5C240.682 516.501 240.016 517.157 240.002 517.975C239.989 518.793 240.633 519.471 241.451 519.499C242.268 519.527 242.957 518.895 243 518.078V518.368V518C243 517.172 242.328 516.5 241.5 516.5ZM237 519H234V517H237V519Z" fill="#2E3A59"/>
<path d="M184 532C182.175 532.001 180.581 530.767 180.125 529H178V527H180.126C180.646 524.987 182.62 523.708 184.669 524.057C186.718 524.405 188.159 526.265 187.985 528.336C187.81 530.407 186.079 531.999 184 532ZM184 526C182.907 526.001 182.018 526.879 182.002 527.971C181.987 529.064 182.851 529.967 183.943 529.999C185.035 530.032 185.951 529.182 186 528.09V528.49V528C186 526.895 185.105 526 184 526ZM198 529H189V527H198V529ZM189 524C187.176 524 185.582 522.766 185.126 521H178V519H185.126C185.646 516.987 187.62 515.708 189.669 516.057C191.718 516.405 193.159 518.265 192.985 520.336C192.81 522.407 191.079 523.999 189 524ZM189 518C187.907 518.001 187.018 518.879 187.002 519.971C186.987 521.064 187.851 521.967 188.943 521.999C190.035 522.032 190.951 521.182 191 520.09V520.49V520C191 518.895 190.105 518 189 518ZM198 521H194V519H198V521Z" fill="#2E3A59"/>
<path d="M137.5 534C136.418 534.013 135.392 533.518 134.728 532.664C134.064 531.809 133.838 530.694 134.117 529.648L127.857 526.07C126.775 527.061 125.19 527.271 123.887 526.595C122.585 525.919 121.844 524.502 122.031 523.047C122.219 521.592 123.295 520.409 124.726 520.086C126.157 519.762 127.638 520.367 128.433 521.6L134.116 518.351C134.042 518.073 134.004 517.787 134 517.5C133.986 515.827 135.148 514.373 136.783 514.019C138.419 513.664 140.078 514.507 140.758 516.036C141.437 517.565 140.95 519.361 139.591 520.337C138.232 521.314 136.374 521.202 135.142 520.07L128.991 523.585C128.985 523.844 128.949 524.102 128.883 524.353L135.142 527.93C136.294 526.873 138.009 526.709 139.34 527.53C140.671 528.351 141.295 529.957 140.867 531.461C140.439 532.965 139.064 534.002 137.5 534ZM137.5 529C136.672 529 136 529.672 136 530.5C136 531.328 136.672 532 137.5 532C138.328 532 139 531.328 139 530.5C139 529.672 138.328 529 137.5 529ZM125.5 522C124.672 522 124 522.672 124 523.5C124 524.328 124.672 525 125.5 525C126.328 525 127 524.328 127 523.5C127 522.672 126.328 522 125.5 522ZM137.5 516C136.672 516 136 516.672 136 517.5C136 518.328 136.672 519 137.5 519C138.328 519 139 518.328 139 517.5C139 516.672 138.328 516 137.5 516Z" fill="#2E3A59"/>
<path d="M69.5 527C70.3746 526.997 71.2162 526.665 71.857 526.07L78.117 529.647C77.6834 531.341 78.5595 533.097 80.1739 533.769C81.7884 534.441 83.6516 533.827 84.5487 532.325C85.4458 530.824 85.1047 528.892 83.7477 527.789C82.3908 526.685 80.4296 526.745 79.143 527.93L72.883 524.353C72.9486 524.102 72.9849 523.844 72.991 523.585L79.142 520.07C80.3629 521.18 82.1944 521.283 83.532 520.317C84.8695 519.351 85.3474 517.579 84.6774 516.072C84.0073 514.564 82.3726 513.731 80.7591 514.077C79.1456 514.422 77.9945 515.85 78 517.5C78.0036 517.788 78.0429 518.075 78.117 518.353L72.433 521.6C71.5225 520.191 69.7407 519.627 68.1851 520.254C66.6295 520.881 65.7374 522.523 66.0582 524.17C66.3791 525.816 67.8228 527.003 69.5 527Z" fill="#2E3A59"/>
<path d="M468 479L458.5 473.5V462.5L468 457L477.5 462.5V473.5L468 479ZM468 459.312L460.5 463.653V472.347L468 476.689L475.5 472.347V463.653L468 459.311V459.312ZM468 472C466.939 471.997 465.923 471.576 465.171 470.828C464.027 469.684 463.685 467.963 464.304 466.469C464.924 464.974 466.382 464 468 464C469.06 464.003 470.077 464.424 470.828 465.172C472.39 466.734 472.39 469.266 470.828 470.828C470.076 471.576 469.06 471.997 468 472ZM468 466C467.046 466 466.224 466.674 466.038 467.609C465.852 468.545 466.352 469.482 467.234 469.848C468.115 470.213 469.132 469.905 469.662 469.111C470.193 468.318 470.089 467.261 469.414 466.586C469.04 466.21 468.531 465.999 468 466Z" fill="#2E3A59"/>
<path d="M413.82 478H410.18C409.71 478 409.304 477.673 409.203 477.214L408.796 475.33C408.253 475.092 407.738 474.795 407.261 474.443L405.424 475.028C404.976 475.171 404.489 474.982 404.254 474.575L402.43 471.424C402.198 471.017 402.278 470.502 402.623 470.185L404.048 468.885C403.983 468.296 403.983 467.702 404.048 467.113L402.623 465.816C402.277 465.498 402.197 464.984 402.43 464.576L404.25 461.423C404.485 461.016 404.972 460.827 405.42 460.97L407.257 461.555C407.501 461.374 407.755 461.207 408.018 461.055C408.27 460.913 408.53 460.784 408.796 460.669L409.204 458.787C409.304 458.328 409.71 458 410.18 458H413.82C414.29 458 414.696 458.328 414.796 458.787L415.208 460.67C415.489 460.794 415.762 460.933 416.027 461.088C416.274 461.231 416.513 461.387 416.743 461.557L418.581 460.972C419.029 460.83 419.515 461.018 419.75 461.425L421.57 464.578C421.802 464.985 421.722 465.5 421.377 465.817L419.952 467.117C420.017 467.706 420.017 468.3 419.952 468.889L421.377 470.189C421.722 470.506 421.802 471.021 421.57 471.428L419.75 474.581C419.515 474.988 419.029 475.176 418.581 475.034L416.743 474.449C416.51 474.62 416.269 474.779 416.019 474.924C415.757 475.076 415.486 475.213 415.209 475.335L414.796 477.214C414.696 477.673 414.29 478 413.82 478ZM411.996 464C409.787 464 407.996 465.791 407.996 468C407.996 470.209 409.787 472 411.996 472C414.205 472 415.996 470.209 415.996 468C415.996 465.791 414.205 464 411.996 464Z" fill="#2E3A59"/>
<path d="M357.82 478H354.18C353.71 478 353.304 477.673 353.203 477.214L352.796 475.33C352.253 475.092 351.738 474.795 351.261 474.443L349.424 475.028C348.976 475.171 348.489 474.982 348.254 474.575L346.43 471.424C346.198 471.017 346.278 470.502 346.623 470.185L348.048 468.885C347.983 468.296 347.983 467.702 348.048 467.113L346.623 465.816C346.277 465.498 346.197 464.984 346.43 464.576L348.25 461.423C348.485 461.016 348.972 460.827 349.42 460.97L351.257 461.555C351.501 461.374 351.755 461.207 352.018 461.055C352.27 460.913 352.53 460.784 352.796 460.669L353.204 458.787C353.304 458.328 353.71 458 354.18 458H357.82C358.29 458 358.696 458.328 358.796 458.787L359.208 460.67C359.489 460.794 359.762 460.933 360.027 461.088C360.274 461.231 360.513 461.387 360.742 461.557L362.58 460.972C363.028 460.83 363.514 461.018 363.749 461.425L365.569 464.578C365.801 464.985 365.721 465.5 365.376 465.817L363.951 467.117C364.016 467.706 364.016 468.3 363.951 468.889L365.376 470.189C365.721 470.506 365.801 471.021 365.569 471.428L363.749 474.581C363.514 474.988 363.028 475.176 362.58 475.034L360.742 474.449C360.509 474.62 360.268 474.779 360.018 474.924C359.756 475.076 359.485 475.213 359.208 475.335L358.796 477.214C358.696 477.673 358.29 478 357.82 478ZM351.62 472.229L352.44 472.829C352.625 472.965 352.818 473.09 353.017 473.204C353.205 473.313 353.398 473.412 353.596 473.5L354.529 473.909L354.986 476H357.016L357.473 473.908L358.406 473.499C358.813 473.319 359.2 473.096 359.559 472.833L360.38 472.233L362.421 472.883L363.436 471.125L361.853 469.682L361.965 468.67C362.014 468.227 362.014 467.781 361.965 467.338L361.853 466.326L363.437 464.88L362.421 463.121L360.38 463.771L359.559 463.171C359.2 462.907 358.813 462.682 358.406 462.5L357.473 462.091L357.016 460H354.986L354.527 462.092L353.596 462.5C353.398 462.587 353.205 462.685 353.017 462.793C352.819 462.906 352.627 463.031 352.443 463.166L351.622 463.766L349.582 463.116L348.565 464.88L350.148 466.321L350.036 467.334C349.987 467.777 349.987 468.223 350.036 468.666L350.148 469.678L348.565 471.121L349.58 472.879L351.62 472.229ZM355.996 472C353.787 472 351.996 470.209 351.996 468C351.996 465.791 353.787 464 355.996 464C358.205 464 359.996 465.791 359.996 468C359.993 470.208 358.204 471.997 355.996 472ZM355.996 466C354.903 466.001 354.014 466.879 353.998 467.971C353.983 469.064 354.847 469.967 355.939 469.999C357.031 470.032 357.947 469.181 357.996 468.09V468.49V468C357.996 466.895 357.101 466 355.996 466Z" fill="#2E3A59"/>
<path d="M300 478C294.477 478 290 473.523 290 468C290 462.477 294.477 458 300 458C305.523 458 310 462.477 310 468C309.994 473.52 305.52 477.994 300 478ZM300 460C295.582 460 292 463.582 292 468C292 472.418 295.582 476 300 476C304.418 476 308 472.418 308 468C307.995 463.584 304.416 460.005 300 460ZM298 474C297.986 474 297.86 473.995 297 473.995H296V473.971C296 473.96 296 473.946 296 473.929C296 473.896 296 473.851 296.007 473.796C296.018 473.647 296.035 473.505 296.059 473.364C296.134 472.909 296.275 472.467 296.479 472.053C296.757 471.481 297.181 470.993 297.709 470.639L297.723 470.63L297.739 470.618L297.754 470.61H297.76H297.767H297.772H297.779L297.79 470.603C298.455 470.197 299.221 469.988 300 470C300.81 469.978 301.607 470.2 302.29 470.635C302.817 470.99 303.241 471.478 303.52 472.049C303.724 472.463 303.866 472.905 303.939 473.36C303.971 473.548 303.985 473.699 303.991 473.792C303.991 473.836 303.997 473.88 303.998 473.925C303.998 473.942 303.998 473.956 303.998 473.967V473.987C303.998 473.987 303.958 473.987 302.998 473.987C302.092 473.987 301.998 473.987 301.998 473.987C301.998 473.987 301.998 473.958 301.998 473.928C301.998 473.873 301.985 473.788 301.967 473.682C301.925 473.423 301.846 473.171 301.731 472.935C301.607 472.675 301.417 472.453 301.18 472.29C300.824 472.08 300.413 471.979 300 472C299.586 471.982 299.175 472.086 298.82 472.3C298.583 472.463 298.393 472.686 298.269 472.945C298.155 473.181 298.075 473.433 298.033 473.692C298.019 473.773 298.009 473.856 298.003 473.938C298.003 473.966 298.003 473.986 298.003 473.996H298V474ZM296.5 468C295.672 468 295 467.328 295 466.5C295 465.672 295.672 465 296.5 465C297.328 465 298 465.672 298 466.5C298 467.328 297.328 468 296.5 468ZM303.493 467.986C302.668 467.986 302 467.318 302 466.493C302 465.668 302.668 465 303.493 465C304.318 465 304.986 465.668 304.986 466.493C304.985 467.317 304.317 467.985 303.493 467.986Z" fill="#2E3A59"/>
<path d="M236 476V469H243L239.783 472.22C240.893 473.355 242.412 473.996 244 474C246.539 473.996 248.802 472.394 249.648 470H249.666C249.781 469.675 249.867 469.34 249.925 469H251.937C251.433 473 248.032 476 244 476H243.99C241.869 476.006 239.833 475.164 238.337 473.66L236 476ZM238.074 467H236.062C236.566 463.002 239.965 460.002 243.995 460H244C246.122 459.993 248.158 460.836 249.654 462.34L252 460V467H245L248.222 463.78C247.111 462.644 245.589 462.002 244 462C241.461 462.004 239.198 463.606 238.352 466H238.334C238.219 466.325 238.132 466.66 238.075 467H238.074Z" fill="#2E3A59"/>
<path d="M187.995 460C183.836 459.994 180.367 463.176 180.013 467.32C179.659 471.463 182.54 475.187 186.639 475.886C190.739 476.585 194.69 474.027 195.73 470H193.649C192.632 472.877 189.617 474.532 186.643 473.846C183.67 473.161 181.685 470.352 182.031 467.32C182.377 464.288 184.943 461.999 187.995 462C189.585 462.002 191.106 462.644 192.218 463.78L189 467H196V460L193.649 462.35C192.153 460.845 190.118 459.999 187.995 460Z" fill="#2E3A59"/>
<path d="M132 475C128.134 475 125 471.866 125 468C125 464.134 128.134 461 132 461C135.866 461 139 464.134 139 468C138.996 471.864 135.864 474.996 132 475ZM132 463C129.239 463 127 465.239 127 468C127 470.761 129.239 473 132 473C134.761 473 137 470.761 137 468C137 465.239 134.761 463 132 463ZM132 471C130.343 471 129 469.657 129 468C129 466.343 130.343 465 132 465C133.657 465 135 466.343 135 468C135 468.796 134.684 469.559 134.121 470.121C133.559 470.684 132.796 471 132 471Z" fill="#2E3A59"/>
<path d="M76 475C72.134 475 69 471.866 69 468C69 464.134 72.134 461 76 461C79.866 461 83 464.134 83 468C82.9956 471.864 79.8642 474.996 76 475ZM76 463C73.2386 463 71 465.239 71 468C71 470.761 73.2386 473 76 473C78.7614 473 81 470.761 81 468C81 465.239 78.7614 463 76 463Z" fill="#2E3A59"/>
<path d="M473.595 421.006H473.567C469.725 420.911 466.059 419.377 463.295 416.708C460.625 413.946 459.09 410.282 458.995 406.441C458.989 405.903 459.2 405.385 459.581 405.005L462.295 402.293C462.685 401.903 463.319 401.903 463.709 402.293L467.709 406.293C468.099 406.684 468.099 407.317 467.709 407.707L466.113 409.3C466.409 410.406 466.954 411.429 467.707 412.292C468.568 413.045 469.59 413.591 470.695 413.887L472.295 412.293C472.686 411.903 473.318 411.903 473.709 412.293L477.709 416.293C478.099 416.684 478.099 417.316 477.709 417.707L474.995 420.42C474.625 420.794 474.121 421.005 473.595 421.006ZM463 404.415H462.995L460.995 406.419C461.077 409.738 462.401 412.905 464.707 415.293C467.095 417.598 470.262 418.923 473.58 419.005L475.587 417L472.995 414.415L471.702 415.707C471.517 415.894 471.265 416 471.002 416C470.932 416 470.862 415.993 470.793 415.978C469.127 415.609 467.579 414.829 466.293 413.707C465.171 412.421 464.391 410.873 464.022 409.207C463.952 408.876 464.055 408.532 464.295 408.293L465.587 407L463 404.415Z" fill="#2E3A59"/>
<path d="M406 422C404.314 422 402.81 420.942 402.238 419.356C401.666 417.77 402.15 415.996 403.448 414.92C404.746 413.844 406.58 413.698 408.032 414.554L414.554 408.032C413.534 406.299 413.961 404.077 415.552 402.846C417.143 401.615 419.401 401.759 420.823 403.182C422.245 404.604 422.387 406.862 421.155 408.452C419.923 410.042 417.701 410.469 415.968 409.447L409.447 415.968C410.176 417.205 410.187 418.738 409.475 419.985C408.762 421.231 407.436 422.001 406 422ZM406 416C404.895 416 404 416.895 404 418C404 419.105 404.895 420 406 420C407.105 420 408 419.105 408 418C408 416.895 407.105 416 406 416ZM418 404C416.907 404.001 416.018 404.879 416.002 405.971C415.987 407.064 416.851 407.967 417.943 407.999C419.035 408.032 419.951 407.181 420 406.09V406.49V406C420 404.895 419.105 404 418 404Z" fill="#2E3A59"/>
<path d="M356 422C351.954 422.002 348.304 419.566 346.756 415.828C345.207 412.089 346.064 407.786 348.926 404.926C351.453 402.399 355.137 401.412 358.589 402.337C362.042 403.262 364.738 405.958 365.663 409.411C366.588 412.863 365.601 416.547 363.074 419.074C361.201 420.955 358.654 422.009 356 422ZM348 412.172C348.047 416.573 351.641 420.11 356.043 420.086C360.444 420.062 364 416.488 364 412.086C364 407.685 360.444 404.11 356.043 404.086C351.641 404.062 348.047 407.599 348 412V412.172ZM353.409 416L352 414.59L354.59 412L352 409.41L353.41 408L356 410.59L358.59 408L360 409.41L357.41 412L360 414.59L358.591 416L356 413.41L353.41 416H353.409Z" fill="#2E3A59"/>
<path d="M300 422C297.347 422.002 294.802 420.95 292.926 419.074C291.05 417.198 289.998 414.653 290 412V411.8C290.082 407.792 292.548 404.22 296.266 402.723C299.985 401.226 304.238 402.093 307.074 404.926C309.936 407.786 310.793 412.089 309.244 415.828C307.696 419.566 304.046 422.002 300 422ZM300 413.41L302.59 416L304 414.59L301.41 412L304 409.41L302.59 408L300 410.59L297.41 408L296 409.41L298.59 412L296 414.59L297.41 416L300 413.411V413.41Z" fill="#2E3A59"/>
<path d="M243.971 422H243.071C240.422 421.765 237.98 420.469 236.3 418.407C234.604 416.348 233.792 413.701 234.042 411.045C234.435 406.229 238.253 402.403 243.068 402C243.462 401.998 243.833 402.184 244.068 402.5C244.287 402.849 244.246 403.302 243.968 403.606C243.011 404.906 242.615 406.534 242.868 408.128C243.078 409.717 243.954 411.142 245.276 412.047C247.377 413.655 250.295 413.655 252.396 412.047C252.587 411.914 252.813 411.841 253.046 411.837C253.204 411.837 253.359 411.875 253.5 411.946C253.817 412.182 254.003 412.556 254 412.951C253.801 415.632 252.493 418.109 250.39 419.785C248.544 421.194 246.293 421.971 243.971 422ZM241.163 404.311C238.222 405.352 236.175 408.034 235.948 411.146C235.748 413.267 236.397 415.382 237.753 417.025C239.099 418.669 241.051 419.701 243.168 419.889C243.43 419.914 243.696 419.927 243.958 419.927C245.802 419.942 247.589 419.285 248.985 418.08C250.069 417.168 250.898 415.991 251.392 414.663C250.522 414.977 249.605 415.137 248.68 415.137C246.949 415.137 245.264 414.583 243.87 413.558C242.186 412.278 241.041 410.413 240.662 408.332C240.572 406.972 240.742 405.607 241.163 404.311Z" fill="#2E3A59"/>
<path d="M185.108 422.092L178 419.721V403.613L184.892 405.913L191.923 401.892L198 404.323V420.477L192.077 418.107L185.109 422.092H185.108ZM180 406.392V418.279L184 419.612V407.72L180 406.392ZM190 405.292L186 407.58V419.28L190 416.992V405.292ZM192.077 404.106L192 404.152V415.923L196 417.523V405.676L192.077 404.106Z" fill="#2E3A59"/>
<path d="M185.108 422.092L178 419.721V403.613L184.892 405.913L191.923 401.892L198 404.323V420.477L192.077 418.107L185.109 422.092H185.108ZM180 406.392V418.279L184 419.612V407.72L180 406.392ZM190 405.292L186 407.58V419.28L190 416.992V405.292ZM192.077 404.106L192 404.152V415.923L196 417.523V405.676L192.077 404.106Z" fill="#2E3A59"/>
<path d="M140 422H124C122.895 422 122 421.105 122 420V409.049C122.034 408.378 122.397 407.767 122.971 407.417L130.971 402.617C131.604 402.237 132.395 402.237 133.028 402.617L141.028 407.417C141.629 407.78 141.998 408.43 142 409.132V420C142 421.105 141.105 422 140 422ZM124 409.868V420H140V409.868L132 415.201L124 409.868ZM132 404.332L125.316 408.342L132 412.798L138.683 408.342L132 404.332Z" fill="#2E3A59"/>
<path d="M84 420H68C66.8954 420 66 419.105 66 418V405.913C66.0466 404.843 66.9285 403.999 68 404H84C85.1046 404 86 404.895 86 406V418C86 419.105 85.1046 420 84 420ZM68 407.868V418H84V407.868L76 413.2L68 407.868ZM68.8 406L76 410.8L83.2 406H68.8Z" fill="#2E3A59"/>
<path d="M475 365H466C464.895 365 464 364.105 464 363V359H466V363H475V349H466V353H464V349C464 347.895 464.895 347 466 347H475C476.105 347 477 347.895 477 349V363C477 364.105 476.105 365 475 365ZM468 360V357H459V355H468V352L473 356L468 360Z" fill="#2E3A59"/>
<path d="M412 365C410.737 363.923 409.566 362.742 408.5 361.469C406.9 359.558 405 356.712 405 354C404.999 351.168 406.704 348.613 409.321 347.529C411.938 346.445 414.95 347.045 416.952 349.049C418.268 350.36 419.006 352.142 419 354C419 356.712 417.1 359.558 415.5 361.469C414.434 362.742 413.263 363.923 412 365ZM412 349C409.24 349.003 407.003 351.24 407 354C407 355.166 407.527 357.185 410.035 360.186C410.653 360.924 411.309 361.63 412 362.3C412.691 361.63 413.347 360.926 413.966 360.189C416.473 357.184 417 355.165 417 354C416.997 351.24 414.76 349.003 412 349ZM412 357C410.343 357 409 355.657 409 354C409 352.343 410.343 351 412 351C413.657 351 415 352.343 415 354C415 354.796 414.684 355.559 414.121 356.121C413.559 356.684 412.796 357 412 357Z" fill="#2E3A59"/>
<path d="M356 365C354.737 363.923 353.566 362.742 352.5 361.469C350.9 359.558 349 356.712 349 354C348.999 351.168 350.704 348.613 353.321 347.529C355.938 346.445 358.95 347.045 360.952 349.049C362.268 350.36 363.006 352.142 363 354C363 356.712 361.1 359.558 359.5 361.469C358.434 362.742 357.263 363.923 356 365ZM356 351C354.928 351 353.938 351.572 353.402 352.5C352.866 353.428 352.866 354.572 353.402 355.5C353.938 356.428 354.928 357 356 357C357.657 357 359 355.657 359 354C359 352.343 357.657 351 356 351Z" fill="#2E3A59"/>
<path d="M294 360C292.895 360 292 359.105 292 358C292 356.895 292.895 356 294 356C295.105 356 296 356.895 296 358C296 358.53 295.789 359.039 295.414 359.414C295.039 359.789 294.53 360 294 360ZM300 358C298.895 358 298 357.105 298 356C298 354.895 298.895 354 300 354C301.105 354 302 354.895 302 356C302 356.53 301.789 357.039 301.414 357.414C301.039 357.789 300.53 358 300 358ZM306 356C304.895 356 304 355.105 304 354C304 352.895 304.895 352 306 352C307.105 352 308 352.895 308 354C308 354.53 307.789 355.039 307.414 355.414C307.039 355.789 306.53 356 306 356Z" fill="#2E3A59"/>
<path d="M240.465 364.535C238.443 364.535 236.62 363.317 235.846 361.449C235.072 359.581 235.499 357.43 236.929 356L239.051 353.878L240.465 355.292L238.344 357.413C237.586 358.171 237.29 359.276 237.567 360.311C237.845 361.346 238.654 362.155 239.689 362.433C240.724 362.71 241.829 362.414 242.587 361.656L244.708 359.535L246.122 360.95L244.001 363.071C243.065 364.012 241.792 364.539 240.465 364.535ZM241.172 360.242L239.758 358.828L246.829 351.757L248.243 353.171L241.173 360.241L241.172 360.242ZM248.951 358.121L247.536 356.707L249.657 354.586C250.425 353.83 250.729 352.721 250.453 351.679C250.177 350.637 249.364 349.824 248.322 349.547C247.281 349.271 246.171 349.575 245.415 350.343L243.293 352.464L241.879 351.05L244.001 348.928C245.956 346.99 249.11 346.997 251.057 348.943C253.003 350.89 253.01 354.044 251.072 355.999L248.951 358.12V358.121Z" fill="#2E3A59"/>
<path d="M193 361H190V359H193C194.657 359 196 357.657 196 356C196 354.343 194.657 353 193 353H190V351H193C195.761 351 198 353.239 198 356C198 358.761 195.761 361 193 361ZM186 361H183C180.239 361 178 358.761 178 356C178 353.239 180.239 351 183 351H186V353H183C181.343 353 180 354.343 180 356C180 357.657 181.343 359 183 359H186V361ZM193 357H183V355H193V357Z" fill="#2E3A59"/>
<path d="M132 367.27L123 360.27L124.62 359.01L131.99 364.74L139.37 359.001L141 360.27L132 367.27ZM132 363L123 356L124.62 354.74L131.99 360.47L139.37 354.73L141 356L132 363ZM132 358.73L124.63 353L123 351.73L132 344.73L141 351.73L139.36 353L132 358.73Z" fill="#2E3A59"/>
<path d="M76 365.135L67 358.135L68.62 356.875L75.99 362.605L83.37 356.865L85 358.135L76 365.135ZM76 360.865L68.63 355.135L67 353.865L76 346.865L85 353.865L83.36 355.135L76 360.865Z" fill="#2E3A59"/>
<path d="M471.5 307L460.5 306.99C459.399 306.99 458.506 306.101 458.5 305V295C458.506 293.899 459.399 293.01 460.5 293.01L471.5 293C472.147 293 472.755 293.313 473.13 293.84L477.5 300L473.13 306.16C472.755 306.687 472.147 307 471.5 307ZM460.5 295V305H471.5L475.05 300L471.5 295H460.5Z" fill="#2E3A59"/>
<path d="M419 309H405C403.895 309 403 308.105 403 307V293C403 291.895 403.895 291 405 291H419C420.105 291 421 291.895 421 293V307C421 308.105 420.105 309 419 309ZM405 293V307H419V293H405ZM418 305H406L409 301L410 302L413 298L418 305ZM408.5 299C407.672 299 407 298.328 407 297.5C407 296.672 407.672 296 408.5 296C409.328 296 410 296.672 410 297.5C410 298.328 409.328 299 408.5 299Z" fill="#2E3A59"/>
<path d="M357 310H354V307H357V310ZM357 305H354V304.993C354 303.343 354 301.918 354.672 300.92C355.195 300.257 355.845 299.707 356.585 299.3C356.919 299.086 357.234 298.883 357.499 298.672C358.66 297.773 359.183 296.274 358.831 294.848C358.275 293.518 356.859 292.764 355.445 293.043C354.031 293.322 353.009 294.559 353 296H350C350 292.686 352.686 290 356 290C358.305 289.993 360.413 291.299 361.434 293.366C362.351 295.472 361.988 297.916 360.5 299.666C360.047 300.167 359.54 300.616 358.986 301.003C358.502 301.337 358.06 301.729 357.67 302.17C357.119 303.005 356.882 304.007 357 305Z" fill="#2E3A59"/>
<path d="M300 310C294.48 309.994 290.006 305.52 290 300V299.8C290.11 294.305 294.635 289.928 300.131 290.001C305.627 290.074 310.034 294.569 309.998 300.065C309.962 305.562 305.497 309.999 300 310ZM299.984 308H300C304.417 307.996 307.994 304.413 307.992 299.996C307.99 295.579 304.409 292 299.992 292C295.575 292 291.994 295.579 291.992 299.996C291.99 304.413 295.567 307.996 299.984 308ZM301 306H299V304H301V306ZM301 303H299C298.968 301.698 299.646 300.481 300.77 299.822C301.43 299.316 302 298.88 302 298C302 296.895 301.105 296 300 296C298.895 296 298 296.895 298 298H296V297.91C296.016 296.481 296.793 295.169 298.039 294.468C299.285 293.768 300.809 293.785 302.039 294.513C303.269 295.242 304.016 296.571 304 298C303.928 299.079 303.35 300.06 302.44 300.645C301.618 301.161 301.085 302.033 301 303Z" fill="#2E3A59"/>
<path d="M244 310C238.477 310 234 305.523 234 300C234 294.477 238.477 290 244 290C249.523 290 254 294.477 254 300C253.994 305.52 249.52 309.994 244 310ZM243 305V307H245V305H243ZM244 295C245.105 295 246 295.895 246 297C246.004 297.531 245.79 298.04 245.41 298.41L244.17 299.67C243.421 300.422 243.001 301.439 243 302.5V303H245C244.922 301.925 245.356 300.876 246.17 300.17L247.07 299.25C247.668 298.654 248.003 297.844 248 297C248 294.791 246.209 293 244 293C241.791 293 240 294.791 240 297H242C242 295.895 242.895 295 244 295Z" fill="#2E3A59"/>
<path d="M188 309C187.355 308.428 186.626 307.833 185.855 307.2H185.845C183.13 304.98 180.053 302.468 178.694 299.458C178.248 298.5 178.011 297.457 178 296.4C177.997 294.95 178.579 293.559 179.614 292.543C180.649 291.527 182.05 290.97 183.5 291C184.681 291.002 185.836 291.343 186.828 291.983C187.264 292.266 187.658 292.608 188 293C188.343 292.61 188.738 292.268 189.173 291.983C190.165 291.343 191.32 291.002 192.5 291C193.95 290.97 195.351 291.527 196.386 292.543C197.421 293.559 198.003 294.95 198 296.4C197.99 297.459 197.753 298.503 197.306 299.463C195.947 302.473 192.871 304.984 190.156 307.2L190.146 307.208C189.374 307.837 188.646 308.432 188.001 309.008L188 309ZM183.5 293C182.569 292.988 181.67 293.345 181 293.992C180.354 294.626 179.994 295.495 180 296.4C180.011 297.171 180.186 297.93 180.512 298.628C181.154 299.927 182.019 301.102 183.069 302.1C184.06 303.1 185.2 304.068 186.186 304.882C186.459 305.107 186.737 305.334 187.015 305.561L187.19 305.704C187.457 305.922 187.733 306.148 188 306.37L188.013 306.358L188.019 306.353H188.025L188.034 306.346H188.039H188.044L188.062 306.331L188.103 306.298L188.11 306.292L188.121 306.284H188.127L188.136 306.276L188.8 305.731L188.974 305.588C189.255 305.359 189.533 305.132 189.806 304.907C190.792 304.093 191.933 303.126 192.924 302.121C193.974 301.124 194.84 299.949 195.481 298.65C195.813 297.946 195.99 297.179 196 296.4C196.004 295.498 195.644 294.632 195 294C194.331 293.35 193.433 292.991 192.5 293C191.362 292.99 190.274 293.467 189.51 294.311L188 296.051L186.49 294.311C185.726 293.467 184.638 292.99 183.5 293Z" fill="#2E3A59"/>
<path d="M122 296.4C122 294.95 122.582 293.561 123.617 292.546C124.651 291.53 126.051 290.973 127.5 291C129.217 290.991 130.856 291.719 132 293C133.144 291.719 134.783 290.991 136.5 291C137.949 290.973 139.349 291.53 140.383 292.546C141.418 293.561 142 294.95 142 296.4C142 301.756 135.621 305.8 132 309C128.387 305.773 122 301.76 122 296.4Z" fill="#2E3A59"/>
<path d="M76 310C70.4772 310 66 305.523 66 300C66 294.477 70.4772 290 76 290C81.5228 290 86 294.477 86 300C85.9939 305.52 81.5203 309.994 76 310ZM76 292C71.5817 292 68 295.582 68 300C68 304.418 71.5817 308 76 308C80.4183 308 84 304.418 84 300C83.995 295.584 80.4162 292.005 76 292ZM76 306C74.42 306.027 72.9266 305.28 72 304C71.5501 303.398 71.2114 302.721 71 302H81C81 302 81 302 81 302.008C80.7853 302.725 80.4469 303.399 80 304C79.0733 305.28 77.5799 306.027 76 306ZM72.5 300C71.6716 300 71 299.328 71 298.5C71 297.672 71.6716 297 72.5 297C73.3284 297 74 297.672 74 298.5C74 299.328 73.3284 300 72.5 300ZM79.493 299.986C78.6684 299.986 78 299.318 78 298.493C78 297.668 78.6684 297 79.493 297C80.3176 297 80.986 297.668 80.986 298.493C80.9849 299.317 80.3171 299.985 79.493 299.986Z" fill="#2E3A59"/>
<path d="M461.5 252.5C460.948 252.5 460.5 252.052 460.5 251.5V236.5C460.5 235.948 460.948 235.5 461.5 235.5H467.88C468.26 235.497 468.609 235.71 468.78 236.05L469.5 237.5H474.5C475.052 237.5 475.5 237.948 475.5 238.5V246.5C475.5 247.052 475.052 247.5 474.5 247.5H469.11C468.733 247.499 468.389 247.286 468.22 246.95L467.5 245.5H462.5V251.5C462.5 252.052 462.052 252.5 461.5 252.5ZM462.5 237.5V243.5H468.5L469.5 245.5H473.5V239.5H468.5L467.5 237.5H462.5Z" fill="#2E3A59"/>
<path d="M413.66 236.3C413.565 235.834 413.155 235.5 412.68 235.5H405.5C404.948 235.5 404.5 235.948 404.5 236.5V251.5C404.5 252.052 404.948 252.5 405.5 252.5C406.052 252.5 406.5 252.052 406.5 251.5V245.5H412.1L412.34 246.7C412.431 247.168 412.843 247.505 413.32 247.5H418.5C419.052 247.5 419.5 247.052 419.5 246.5V238.5C419.5 237.948 419.052 237.5 418.5 237.5H413.9L413.66 236.3Z" fill="#2E3A59"/>
<path d="M361.001 252H350.001C348.896 252 348.001 251.105 348.001 250V239C348.001 237.895 348.896 237 350.001 237H354.001V239H350.001V250H361.001V246H363.001V250C363.001 251.105 362.106 252 361.001 252ZM355.701 245.707L354.291 244.293L360.584 238H357.001V236H364.001V243H362.001V239.415L355.701 245.707Z" fill="#2E3A59"/>
<path d="M307 253H293C291.895 253 291 252.105 291 251V247H293V251H307V237H293V241H291V237C291 235.895 291.895 235 293 235H307C308.105 235 309 235.895 309 237V251C309 252.105 308.105 253 307 253ZM299 248V245H291V243H299V240L304 244L299 248Z" fill="#2E3A59"/>
<path d="M251 251H237V249H251V251ZM242 246.42L238 242.42L239.41 241.01L242 243.59L248.59 237L250 238.42L242 246.42Z" fill="#2E3A59"/>
<path d="M195 254H181V252H195V254ZM188 250L182 244L183.41 242.59L187 246.17V234H189V246.17L192.59 242.59L194 244L188 250Z" fill="#2E3A59"/>
<path d="M131.647 250.01L126.697 245.061L128.11 243.646L131.647 247.183L140.132 238.697L141.546 240.111L131.646 250.011L131.647 250.01ZM127.404 250.01L122.454 245.061L123.868 243.646L128.818 248.596L127.405 250.01H127.404ZM131.647 245.768L130.232 244.354L136.596 237.99L138.011 239.404L131.647 245.767V245.768Z" fill="#2E3A59"/>
<path d="M73.525 249.657L68.575 244.707L69.989 243.293L73.643 246.943L73.525 246.828L82.01 238.343L83.424 239.757L74.939 248.243L73.526 249.656L73.525 249.657Z" fill="#2E3A59"/>
<path d="M476 196H460C458.895 196 458 195.105 458 194V182C458 180.895 458.895 180 460 180H476C477.105 180 478 180.895 478 182V194C478 195.105 477.105 196 476 196ZM460 182V194H476V182H460ZM471.5 192C470.119 192 469 190.881 469 189.5C469 188.119 470.119 187 471.5 187C472.881 187 474 188.119 474 189.5C474 190.163 473.737 190.799 473.268 191.268C472.799 191.737 472.163 192 471.5 192ZM467.5 192C466.119 192 465 190.881 465 189.5C465 188.119 466.119 187 467.5 187C468.043 187 468.57 187.18 469 187.512C468.371 187.979 468.001 188.716 468.001 189.5C468.001 190.283 468.371 191.02 469 191.487C468.57 191.819 468.043 191.999 467.5 192Z" fill="#2E3A59"/>
<path d="M420 196H404C402.895 196 402 195.105 402 194V182C402 180.895 402.895 180 404 180H420C421.105 180 422 180.895 422 182V194C422 195.105 421.105 196 420 196ZM404 188V194H420V188H404ZM404 182V184H420V182H404ZM413 192H406V190H413V192Z" fill="#2E3A59"/>
<path d="M355.984 198C350.472 197.994 346.006 193.52 346 188C346.393 188.111 346.8 188.168 347.208 188.169C348.559 188.179 349.829 187.522 350.602 186.412C351.294 185.412 351.44 184.131 350.992 183C351.279 183.051 351.569 183.077 351.86 183.078C353.155 183.088 354.384 182.507 355.2 181.5C355.998 180.523 356.311 179.235 356.049 178C361.562 178.018 366.018 182.51 366 188.032C365.982 193.555 361.498 198.018 355.984 198ZM356.745 194.568C356.899 194.634 357.065 194.668 357.232 194.668C357.736 194.667 358.191 194.363 358.384 193.896C358.577 193.429 358.471 192.892 358.115 192.534C357.881 192.3 357.563 192.168 357.232 192.168C356.639 192.169 356.129 192.588 356.012 193.169C355.894 193.751 356.2 194.335 356.745 194.568ZM350.912 192.875C351.112 192.958 351.326 193 351.543 193C352.218 193 352.827 192.591 353.083 191.965C353.339 191.338 353.191 190.62 352.71 190.145C352.399 189.838 351.98 189.666 351.543 189.666C350.624 189.667 349.88 190.413 349.88 191.333C349.88 192.002 350.278 192.606 350.892 192.869H350.897H350.908L350.912 192.875ZM360.328 190.368C360.999 190.65 361.775 190.463 362.244 189.905C362.713 189.347 362.765 188.549 362.373 187.935C362.251 187.744 362.09 187.579 361.902 187.452C361.385 187.102 360.717 187.072 360.17 187.372C359.623 187.673 359.29 188.254 359.307 188.878C359.324 189.503 359.688 190.065 360.25 190.336H360.238L360.268 190.349L360.288 190.357H360.282C360.296 190.362 360.31 190.367 360.324 190.373L360.328 190.368ZM355.984 186.333C355.586 186.332 355.243 186.614 355.165 187.005C355.088 187.397 355.299 187.788 355.667 187.939C356.036 188.09 356.459 187.958 356.678 187.625C356.897 187.292 356.849 186.85 356.565 186.571C356.491 186.498 356.403 186.439 356.307 186.399L356.289 186.391L356.262 186.381C356.173 186.349 356.079 186.333 355.984 186.333ZM359.728 182.167C359.089 182.165 358.553 182.649 358.487 183.285C358.422 183.922 358.848 184.504 359.474 184.633C360.1 184.762 360.721 184.396 360.912 183.785C361.102 183.174 360.8 182.518 360.213 182.267H360.203C360.053 182.203 359.891 182.169 359.728 182.167ZM348.496 185.5C348.037 185.5 347.664 185.127 347.664 184.667C347.664 184.207 348.037 183.834 348.496 183.834C348.955 183.834 349.328 184.207 349.328 184.667C349.327 185.127 348.955 185.499 348.496 185.5ZM347.248 183C346.559 183 346 182.44 346 181.75C346 181.06 346.559 180.5 347.248 180.5C347.937 180.5 348.496 181.06 348.496 181.75C348.495 182.44 347.937 182.999 347.248 183ZM352.24 181.333C351.551 181.333 350.992 180.773 350.992 180.083C350.992 179.393 351.551 178.833 352.24 178.833C352.929 178.833 353.488 179.393 353.488 180.083C353.488 180.774 352.929 181.333 352.24 181.334V181.333ZM349.329 179.667C348.869 179.667 348.497 179.294 348.497 178.834C348.497 178.374 348.869 178.001 349.328 178.001C349.787 178.001 350.16 178.373 350.16 178.833C350.16 179.293 349.788 179.666 349.329 179.667Z" fill="#2E3A59"/>
<path d="M300 198C294.477 198 290 193.523 290 188C290 182.477 294.477 178 300 178C305.523 178 310 182.477 310 188C309.994 193.52 305.52 197.994 300 198ZM300 180C295.582 180 292 183.582 292 188C292 192.418 295.582 196 300 196C304.418 196 308 192.418 308 188C307.995 183.584 304.416 180.005 300 180ZM304 193H296V191H304V193ZM296.5 188C295.672 188 295 187.328 295 186.5C295 185.672 295.672 185 296.5 185C297.328 185 298 185.672 298 186.5C298 187.328 297.328 188 296.5 188ZM303.493 187.986C302.668 187.986 302 187.318 302 186.493C302 185.668 302.668 185 303.493 185C304.318 185 304.986 185.668 304.986 186.493C304.985 187.317 304.317 187.985 303.493 187.986Z" fill="#2E3A59"/>
<path d="M250 198C247.808 197.995 246.027 196.231 246 194.039V192H242V194.02C241.989 196.227 240.193 198.007 237.987 198C235.78 197.993 233.996 196.2 234 193.993C234.004 191.787 235.793 190 238 190H240V186H238C235.793 186 234.004 184.213 234 182.007C233.996 179.8 235.78 178.007 237.987 178C240.193 177.993 241.989 179.774 242 181.98V184H246V182C246 179.791 247.791 178 250 178C252.209 178 254 179.791 254 182C254 184.209 252.209 186 250 186H248V190H250C252.209 190 254 191.791 254 194C254 196.209 252.209 198 250 198ZM248 192V194C248 195.105 248.895 196 250 196C251.105 196 252 195.105 252 194C252 192.895 251.105 192 250 192H248ZM238 192C236.895 192 236 192.895 236 194C236 195.105 236.895 196 238 196C238.532 196.006 239.044 195.797 239.42 195.42C239.797 195.044 240.006 194.532 240 194V192H238ZM242 186V190H246V186H242ZM250 180C249.468 179.994 248.956 180.203 248.58 180.58C248.203 180.956 247.994 181.468 248 182V184H250C250.532 184.006 251.044 183.797 251.42 183.42C251.797 183.044 252.006 182.532 252 182C252.006 181.468 251.797 180.956 251.42 180.58C251.044 180.203 250.532 179.994 250 180ZM238 180C237.468 179.994 236.956 180.203 236.58 180.58C236.203 180.956 235.994 181.468 236 182C235.994 182.532 236.203 183.044 236.58 183.42C236.956 183.797 237.468 184.006 238 184H240V182C240.006 181.468 239.797 180.956 239.42 180.58C239.044 180.203 238.532 179.994 238 180Z" fill="#2E3A59"/>
<path d="M186.75 198H180.917C179.766 197.999 178.834 197.066 178.833 195.916V186.216C178.016 185.636 177.762 184.538 178.241 183.658C179.141 182.05 180.059 180.465 180.962 178.946C181.324 178.353 181.971 177.994 182.666 178C183.09 178.004 183.501 178.139 183.846 178.385L183.87 178.4C184.282 178.64 188.262 181.009 191.461 182.912L194.3 184.6L194.43 184.677C196.648 185.988 197.147 186.286 197.175 186.305C197.991 186.883 198.243 187.983 197.758 188.858C196.875 190.435 195.958 192.02 195.037 193.57C194.68 194.157 194.044 194.516 193.357 194.521C193.222 194.521 193.088 194.506 192.957 194.476C192.841 194.545 192.201 194.956 191.39 195.476C189.947 196.401 187.975 197.666 187.747 197.783C187.439 197.941 187.096 198.016 186.75 198ZM180.5 189.03V195.916C180.5 196.146 180.687 196.333 180.917 196.333H184.74C183.287 193.88 181.861 191.422 180.5 189.03ZM181.858 188.03C182.258 188.717 186.574 196.162 186.61 196.212C186.667 196.286 186.755 196.329 186.848 196.329C186.897 196.329 186.946 196.317 186.989 196.294C187.124 196.218 191.183 193.61 191.223 193.584C190.909 193.399 188.637 192.045 186.231 190.612L181.838 188L181.845 188.011L181.855 188.028V188.034L181.858 188.03ZM182.332 179.9C181.524 181.2 179.716 184.428 179.692 184.487C179.633 184.629 179.685 184.792 179.816 184.873C179.949 184.952 193.17 192.829 193.296 192.849C193.312 192.85 193.328 192.85 193.344 192.849C193.453 192.849 193.554 192.793 193.61 192.7C194.424 191.333 196.299 188.043 196.304 188.033C196.362 187.891 196.309 187.727 196.179 187.646C196.052 187.57 182.856 179.728 182.771 179.691C182.732 179.675 182.691 179.666 182.649 179.666C182.544 179.667 182.446 179.72 182.388 179.808L182.381 179.82L182.373 179.832L182.361 179.852V179.857L182.346 179.881L182.331 179.9H182.332ZM183.685 185.39C182.766 185.389 182.02 184.644 182.02 183.725C182.02 182.805 182.764 182.059 183.684 182.058C184.603 182.057 185.35 182.801 185.352 183.72C185.351 184.64 184.605 185.386 183.685 185.387V185.39Z" fill="#2E3A59"/>
<path d="M132 198C126.477 198 122 193.523 122 188C122 182.477 126.477 178 132 178C137.523 178 142 182.477 142 188C141.994 193.52 137.52 197.994 132 198ZM132 180C127.582 180 124 183.582 124 188C124 192.418 127.582 196 132 196C136.418 196 140 192.418 140 188C139.995 183.584 136.416 180.005 132 180ZM137 189H131V183H133V187H137V189Z" fill="#2E3A59"/>
<path d="M468 142C462.477 142 458 137.523 458 132C458 126.477 462.477 122 468 122C473.523 122 478 126.477 478 132C477.994 137.52 473.52 141.994 468 142ZM467.984 140H468C472.417 139.996 475.994 136.413 475.992 131.996C475.99 127.579 472.409 124 467.992 124C463.575 124 459.994 127.579 459.992 131.996C459.99 136.413 463.567 139.996 467.984 140ZM466 137L462 133L463.41 131.59L466 134.17L472.59 127.58L474 129L466 137Z" fill="#2E3A59"/>
<path d="M412 142C406.48 141.994 402.006 137.52 402 132V131.8C402.11 126.305 406.635 121.928 412.131 122.001C417.627 122.074 422.034 126.569 421.998 132.065C421.962 137.562 417.497 141.999 412 142ZM407.41 131.59L406 133L410 137L418 129L416.59 127.58L410 134.17L407.41 131.59Z" fill="#2E3A59"/>
<path d="M361 139H351C349.895 139 349 138.105 349 137V127C349 125.895 349.895 125 351 125H361C362.105 125 363 125.895 363 127V137C363 138.105 362.105 139 361 139ZM351 127V137H361V127H351ZM359 135H353V129H359V135Z" fill="#2E3A59"/>
<path d="M305 139H295C293.895 139 293 138.105 293 137V127C293 125.895 293.895 125 295 125H305C306.105 125 307 125.895 307 127V137C307 138.105 306.105 139 305 139ZM295 127V137H305V127H295ZM299 135.362L296.3 132.715L297.7 131.285L299 132.556L302.3 129.289L303.7 130.711L299 135.361V135.362Z" fill="#2E3A59"/>
<path d="M249 139H239C237.895 139 237 138.105 237 137V127C237 125.895 237.895 125 239 125H249C250.105 125 251 125.895 251 127V137C251 138.105 250.105 139 249 139ZM239 127V137H249V127H239Z" fill="#2E3A59"/>
<path d="M191 142H185V140H191V142ZM191 139H185L184.777 137C184.657 136.338 184.459 135.694 184.186 135.079C183.832 134.579 183.463 134.152 183.106 133.735C181.794 132.505 181.035 130.798 181 129C181 125.134 184.134 122 188 122C191.866 122 195 125.134 195 129C194.959 130.787 194.206 132.483 192.907 133.711L192.89 133.731C192.534 134.148 192.166 134.58 191.819 135.075C191.547 135.691 191.348 136.337 191.226 137L191 139ZM188 124C185.24 124.003 183.003 126.24 183 129C183 130.544 183.644 131.293 184.618 132.428C184.988 132.86 185.408 133.348 185.818 133.919C186.316 134.886 186.656 135.926 186.825 137H189.176C189.35 135.929 189.689 134.892 190.182 133.925C190.582 133.354 191.001 132.863 191.37 132.431L191.385 132.413C192.357 131.273 193 130.52 193 129C192.997 126.24 190.76 124.003 188 124Z" fill="#2E3A59"/>
<path d="M132 142C127.057 141.935 123.065 137.943 123 133C123.065 128.057 127.057 124.065 132 124C136.943 124.065 140.935 128.057 141 133C140.935 137.943 136.943 141.935 132 142ZM132 126C128.155 126.051 125.051 129.155 125 133C125.051 136.845 128.155 139.949 132 140C135.845 139.949 138.949 136.845 139 133C138.949 129.155 135.845 126.051 132 126ZM133 138H131V134H127V132H131V128H133V132H137V134H133V138ZM140.292 126.708L137.283 123.708L138.692 122.291L141.702 125.291L140.292 126.707V126.708ZM123.709 126.708L122.292 125.291L125.283 122.291L126.698 123.707L123.709 126.707V126.708Z" fill="#2E3A59"/>
<path d="M75.999 142C71.0557 141.935 67.0641 137.943 66.999 133C67.0641 128.057 71.0557 124.065 75.999 124C80.9423 124.065 84.9338 128.057 84.999 133C84.9338 137.943 80.9423 141.935 75.999 142ZM75.999 126C72.1542 126.051 69.0496 129.155 68.999 133C69.0496 136.845 72.1542 139.949 75.999 140C79.8438 139.949 82.9484 136.845 82.999 133C82.9484 129.155 79.8438 126.051 75.999 126ZM80.999 134H74.999V128H76.999V132H80.999V134ZM84.291 126.708L81.282 123.708L82.691 122.291L85.701 125.291L84.291 126.707V126.708ZM67.706 126.708L66.291 125.291L69.282 122.291L70.697 123.708L67.708 126.708H67.706Z" fill="#2E3A59"/>
<path d="M237.13 571.008C237.486 570.385 238.148 570 238.866 570H249.134C249.852 570 250.514 570.385 250.87 571.008L252.013 573.008C252.661 574.142 252.062 575.511 250.924 575.895C250.928 575.977 250.927 576.059 250.921 576.142L250.064 588.142C249.989 589.189 249.118 590 248.069 590H239.931C238.882 590 238.011 589.189 237.936 588.142L237.079 576.142C237.073 576.059 237.072 575.977 237.076 575.895C235.938 575.511 235.339 574.142 235.987 573.008L237.13 571.008ZM239.074 576L239.288 579H248.712L248.926 576H239.074ZM239.717 585L239.931 588H248.069L248.283 585H239.717ZM250.277 574L249.134 572L238.866 572L237.723 574H250.277Z" fill="#2E3A59"/>
</g>
<defs>
<filter id="filter0_d" x="0" y="0" width="544" height="664" filterUnits="userSpaceOnUse" color-interpolation-filters="sRGB">
<feFlood flood-opacity="0" result="BackgroundImageFix"/>
<feColorMatrix in="SourceAlpha" type="matrix" values="0 0 0 0 0 0 0 0 0 0 0 0 0 0 0 0 0 0 127 0"/>
<feOffset dy="8"/>
<feGaussianBlur stdDeviation="12"/>
<feColorMatrix type="matrix" values="0 0 0 0 0.0988235 0 0 0 0 0.127007 0 0 0 0 0.219608 0 0 0 0.04 0"/>
<feBlend mode="normal" in2="BackgroundImageFix" result="effect1_dropShadow"/>
<feBlend mode="normal" in="SourceGraphic" in2="effect1_dropShadow" result="shape"/>
</filter>
</defs>
</svg>
