<svg width="544" height="440" viewBox="0 0 544 440" fill="none" xmlns="http://www.w3.org/2000/svg">
<g filter="url(#filter0_d)">
<rect x="24" y="16" width="496" height="392" rx="8" fill="white"/>
<path d="M65.36 75V61H70.98C72.4333 61 73.54 61.34 74.3 62.02C75.0733 62.6867 75.46 63.5467 75.46 64.6C75.46 65.48 75.22 66.1867 74.74 66.72C74.2733 67.24 73.7 67.5933 73.02 67.78C73.82 67.94 74.48 68.34 75 68.98C75.52 69.6067 75.78 70.34 75.78 71.18C75.78 72.2867 75.38 73.2 74.58 73.92C73.78 74.64 72.6467 75 71.18 75H65.36ZM67.92 66.88H70.6C71.32 66.88 71.8733 66.7133 72.26 66.38C72.6467 66.0467 72.84 65.5733 72.84 64.96C72.84 64.3733 72.6467 63.9133 72.26 63.58C71.8867 63.2333 71.32 63.06 70.56 63.06H67.92V66.88ZM67.92 72.92H70.78C71.54 72.92 72.1267 72.7467 72.54 72.4C72.9667 72.04 73.18 71.54 73.18 70.9C73.18 70.2467 72.96 69.7333 72.52 69.36C72.08 68.9867 71.4867 68.8 70.74 68.8H67.92V72.92ZM76.9172 75V65.08H79.1972L79.4372 66.94C79.7972 66.3 80.2839 65.7933 80.8972 65.42C81.5239 65.0333 82.2572 64.84 83.0972 64.84V67.54H82.3772C81.8172 67.54 81.3172 67.6267 80.8772 67.8C80.4372 67.9733 80.0905 68.2733 79.8372 68.7C79.5972 69.1267 79.4772 69.72 79.4772 70.48V75H76.9172ZM87.2669 75.24C86.4135 75.24 85.7135 75.1067 85.1669 74.84C84.6202 74.56 84.2135 74.1933 83.9469 73.74C83.6802 73.2867 83.5469 72.7867 83.5469 72.24C83.5469 71.32 83.9069 70.5733 84.6269 70C85.3469 69.4267 86.4269 69.14 87.8669 69.14H90.3869V68.9C90.3869 68.22 90.1935 67.72 89.8069 67.4C89.4202 67.08 88.9402 66.92 88.3669 66.92C87.8469 66.92 87.3935 67.0467 87.0069 67.3C86.6202 67.54 86.3802 67.9 86.2869 68.38H83.7869C83.8535 67.66 84.0935 67.0333 84.5069 66.5C84.9335 65.9667 85.4802 65.56 86.1469 65.28C86.8135 64.9867 87.5602 64.84 88.3869 64.84C89.8002 64.84 90.9135 65.1933 91.7269 65.9C92.5402 66.6067 92.9469 67.6067 92.9469 68.9V75H90.7669L90.5269 73.4C90.2335 73.9333 89.8202 74.3733 89.2869 74.72C88.7669 75.0667 88.0935 75.24 87.2669 75.24ZM87.8469 73.24C88.5802 73.24 89.1469 73 89.5469 72.52C89.9602 72.04 90.2202 71.4467 90.3269 70.74H88.1469C87.4669 70.74 86.9802 70.8667 86.6869 71.12C86.3935 71.36 86.2469 71.66 86.2469 72.02C86.2469 72.4067 86.3935 72.7067 86.6869 72.92C86.9802 73.1333 87.3669 73.24 87.8469 73.24ZM94.3898 75V65.08H96.6498L96.8498 66.76C97.1565 66.1733 97.5965 65.7067 98.1698 65.36C98.7565 65.0133 99.4432 64.84 100.23 64.84C101.457 64.84 102.41 65.2267 103.09 66C103.77 66.7733 104.11 67.9067 104.11 69.4V75H101.55V69.64C101.55 68.7867 101.377 68.1333 101.03 67.68C100.683 67.2267 100.143 67 99.4098 67C98.6898 67 98.0965 67.2533 97.6298 67.76C97.1765 68.2667 96.9498 68.9733 96.9498 69.88V75H94.3898ZM110.118 75.24C109.184 75.24 108.351 75.0133 107.618 74.56C106.884 74.1067 106.304 73.4867 105.878 72.7C105.451 71.9133 105.238 71.02 105.238 70.02C105.238 69.02 105.451 68.1333 105.878 67.36C106.304 66.5733 106.884 65.96 107.618 65.52C108.351 65.0667 109.184 64.84 110.118 64.84C110.864 64.84 111.518 64.98 112.078 65.26C112.638 65.54 113.091 65.9333 113.438 66.44V60.6H115.998V75H113.718L113.438 73.58C113.118 74.02 112.691 74.4067 112.158 74.74C111.638 75.0733 110.958 75.24 110.118 75.24ZM110.658 73C111.484 73 112.158 72.7267 112.678 72.18C113.211 71.62 113.478 70.9067 113.478 70.04C113.478 69.1733 113.211 68.4667 112.678 67.92C112.158 67.36 111.484 67.08 110.658 67.08C109.844 67.08 109.171 67.3533 108.638 67.9C108.104 68.4467 107.838 69.1533 107.838 70.02C107.838 70.8867 108.104 71.6 108.638 72.16C109.171 72.72 109.844 73 110.658 73Z" fill="#2E3A59"/>
<path d="M76.006 363.012H75.986C75.924 363.012 69.721 363 68.156 362.575C67.2954 362.343 66.6234 361.671 66.392 360.81C66.1106 359.222 65.9747 357.612 65.986 356C65.9787 354.385 66.1183 352.773 66.403 351.183C66.6407 350.322 67.3098 349.646 68.169 349.4C69.691 349 75.723 349 75.979 349H76C76.063 349 82.282 349.012 83.831 349.437C84.6898 349.67 85.3605 350.341 85.593 351.2C85.8834 352.794 86.0197 354.411 86 356.031C86.007 357.644 85.8671 359.254 85.582 360.842C85.3477 361.702 84.6752 362.373 83.815 362.605C82.295 363.008 76.262 363.012 76.006 363.012ZM74.006 353.005L74.001 359.005L79.213 356.005L74.006 353.005Z" fill="#2E3A59"/>
<path d="M477 309H459V298.875H464.625V303.938H471.375V298.875H477V309ZM471.375 296.063H464.625V291H471.375V296.062V296.063Z" fill="#2E3A59"/>
<path d="M419.995 294.688C420.891 294.152 421.562 293.308 421.882 292.314C421.04 292.814 420.118 293.166 419.157 293.355C417.825 291.946 415.714 291.603 414.003 292.518C412.293 293.433 411.408 295.379 411.841 297.27C408.391 297.097 405.176 295.467 402.997 292.786C401.86 294.747 402.441 297.255 404.325 298.516C403.644 298.494 402.978 298.31 402.382 297.978C402.382 297.996 402.382 298.014 402.382 298.032C402.382 300.075 403.822 301.835 405.825 302.24C405.193 302.412 404.53 302.437 403.887 302.314C404.45 304.061 406.061 305.258 407.896 305.294C406.376 306.487 404.498 307.134 402.566 307.131C402.223 307.131 401.881 307.112 401.541 307.072C403.503 308.333 405.787 309.002 408.12 309C411.365 309.022 414.484 307.743 416.779 305.448C419.073 303.153 420.353 300.034 420.33 296.789C420.33 296.603 420.326 296.418 420.317 296.234C421.157 295.627 421.883 294.874 422.459 294.012C421.676 294.359 420.845 294.587 419.995 294.688Z" fill="#2E3A59"/>
<path d="M362.75 309H349.25C348.008 308.998 347.002 307.992 347 306.75V293.25C347.002 292.008 348.008 291.002 349.25 291H362.75C363.992 291.002 364.998 292.008 365 293.25V306.75C364.998 307.992 363.992 308.998 362.75 309ZM350.42 293.34C349.824 293.341 349.341 293.824 349.34 294.42V304.635C349.341 305.231 349.824 305.714 350.42 305.715H353.75C354.346 305.714 354.829 305.231 354.83 304.635V294.42C354.829 293.824 354.346 293.341 353.75 293.34H350.42ZM358.25 293.34C357.654 293.341 357.171 293.824 357.17 294.42V300.135C357.171 300.731 357.654 301.214 358.25 301.215H361.58C362.176 301.214 362.659 300.731 362.66 300.135V294.42C362.659 293.824 362.176 293.341 361.58 293.34H358.25Z" fill="#2E3A59"/>
<path d="M306.84 308.999H292.381V302.599H293.981V307.399H305.24V302.599H306.84V308.999ZM303.64 305.799H295.581V304.199H303.636V305.799H303.64ZM303.64 303.799L295.781 302.16L296.119 300.608L303.98 302.25L303.637 303.799H303.64ZM304.079 301.762L296.799 298.362V298.356L297.473 296.899L304.754 300.299L304.081 301.763L304.079 301.762ZM305.002 299.917L298.832 294.777H298.841L299.854 293.563L306.016 298.699L304.999 299.918L305.002 299.917ZM306.31 298.417L301.503 291.968L302.813 290.999L307.619 297.45L306.307 298.421L306.31 298.417Z" fill="#2E3A59"/>
<path d="M244.01 310C239.969 310.005 236.323 307.572 234.778 303.838C233.232 300.104 234.091 295.807 236.954 292.954C239.473 290.426 243.151 289.436 246.599 290.357C250.047 291.279 252.74 293.972 253.662 297.42C254.583 300.868 253.593 304.546 251.065 307.065C249.2 308.946 246.659 310.003 244.01 310ZM242.528 303.272C244.366 303.234 246.177 303.713 247.755 304.656C247.852 304.721 247.967 304.756 248.084 304.756C248.298 304.751 248.494 304.638 248.606 304.456C248.693 304.288 248.708 304.091 248.648 303.911C248.597 303.774 248.491 303.665 248.355 303.611C246.578 302.554 244.541 302.018 242.474 302.062C241.192 302.072 239.914 302.222 238.665 302.511C238.337 302.598 238.138 302.93 238.215 303.26C238.292 303.526 238.529 303.716 238.806 303.732C238.859 303.732 238.912 303.724 238.963 303.709C240.131 303.431 241.327 303.284 242.528 303.272ZM242.338 300.296C244.586 300.27 246.801 300.843 248.754 301.957C248.865 302.038 248.999 302.081 249.137 302.081C249.406 302.071 249.655 301.932 249.805 301.708C249.922 301.537 249.959 301.323 249.905 301.122C249.868 300.948 249.759 300.798 249.605 300.71C247.397 299.435 244.887 298.775 242.337 298.799C240.993 298.791 239.655 298.979 238.365 299.359C237.969 299.489 237.747 299.911 237.865 300.311C237.963 300.634 238.268 300.85 238.606 300.834C238.678 300.835 238.749 300.826 238.819 300.809C239.959 300.459 241.146 300.286 242.338 300.296ZM242.527 297.208C245.091 297.134 247.631 297.719 249.904 298.908C250.057 298.992 250.229 299.035 250.404 299.033C250.714 299.039 251.01 298.902 251.204 298.66C251.325 298.439 251.356 298.18 251.292 297.936C251.232 297.693 251.074 297.485 250.856 297.362C248.293 296 245.421 295.323 242.519 295.398C240.912 295.381 239.311 295.588 237.761 296.012C237.326 296.147 237.056 296.581 237.128 297.031C237.2 297.481 237.592 297.809 238.048 297.801C238.137 297.801 238.225 297.788 238.31 297.763C239.681 297.374 241.102 297.187 242.527 297.207V297.208Z" fill="#2E3A59"/>
<path d="M188 310.001L186.8 309.995C183.075 309.955 180.818 309.695 179.562 308.439C178.306 307.183 178.047 304.924 178.006 301.201L178 299.691L178.006 298.801C177.978 297.233 178.095 295.666 178.356 294.12C178.495 293.121 178.951 292.193 179.656 291.472C180.973 290.254 183.293 290.021 187.388 290.001L189.2 290.006C193.161 290.049 195.4 290.331 196.615 291.754C197.793 293.128 198 295.508 198 300.001L197.995 301.201C197.952 305.162 197.67 307.401 196.246 308.616C194.872 309.793 192.492 310.001 188 310.001ZM183.667 295.001C183.336 295.001 183.055 295.243 183.006 295.57L183 295.667V299.333C183.001 299.663 183.242 299.943 183.568 299.993L183.668 300H184.25C186.245 299.998 187.893 301.558 188 303.55V303.75V304.332C188.002 304.662 188.242 304.942 188.568 304.993L188.668 305H192.335C192.665 304.999 192.946 304.758 192.995 304.431L193.002 304.331V303.749C193.003 299.015 189.24 295.139 184.508 295.001H184.25H183.667Z" fill="#2E3A59"/>
<path d="M136.935 294.073C137.28 295.343 137.362 296.67 137.175 297.973V298.02C137.164 298.166 137.157 298.298 137.151 298.43C137.25 298.483 137.361 298.507 137.473 298.502C137.763 298.476 138.045 298.394 138.304 298.261C138.42 298.204 138.548 298.175 138.677 298.177C138.817 298.175 138.955 298.199 139.086 298.249C139.407 298.323 139.645 298.595 139.676 298.923C139.689 299.284 139.364 299.597 138.701 299.862C138.63 299.885 138.532 299.923 138.425 299.962C138.062 300.071 137.508 300.251 137.352 300.613C137.28 300.85 137.317 301.106 137.452 301.313L137.464 301.326C138.176 302.943 139.601 304.137 141.318 304.555C141.517 304.587 141.662 304.762 141.655 304.964C141.654 305.026 141.642 305.087 141.619 305.145C141.426 305.602 140.596 305.945 139.089 306.166C139.029 306.314 138.984 306.468 138.957 306.625C138.932 306.775 138.896 306.924 138.85 307.069C138.803 307.273 138.613 307.412 138.404 307.394H138.38C138.234 307.387 138.089 307.368 137.947 307.335C137.611 307.262 137.267 307.226 136.923 307.227C136.678 307.224 136.433 307.244 136.191 307.287C135.683 307.42 135.21 307.662 134.805 307.997C134.06 308.624 133.127 308.985 132.154 309.024C132.106 309.024 132.054 309.012 132.008 309.012H131.887C130.917 308.975 129.989 308.61 129.254 307.976C128.854 307.641 128.385 307.399 127.881 307.265C127.634 307.228 127.385 307.208 127.136 307.205C126.792 307.21 126.449 307.25 126.113 307.325C125.97 307.359 125.825 307.378 125.678 307.384C125.46 307.4 125.263 307.258 125.208 307.047C125.16 306.893 125.137 306.734 125.101 306.591C125.073 306.434 125.028 306.281 124.968 306.133C123.425 305.954 122.595 305.616 122.403 305.147C122.375 305.091 122.358 305.029 122.354 304.966C122.347 304.764 122.492 304.589 122.691 304.557C124.409 304.139 125.834 302.944 126.545 301.325L126.554 301.3C126.694 301.095 126.731 300.836 126.654 300.6C126.498 300.251 125.943 300.071 125.584 299.95C125.488 299.925 125.395 299.891 125.305 299.85C124.415 299.5 124.294 299.102 124.343 298.826C124.485 298.434 124.866 298.18 125.283 298.2C125.389 298.199 125.493 298.22 125.591 298.26C125.867 298.402 126.169 298.484 126.479 298.501C126.61 298.505 126.739 298.474 126.854 298.412L126.813 297.954C126.627 296.655 126.709 295.331 127.054 294.065C127.866 292.183 129.733 290.977 131.782 291.011L132.117 291H132.166C134.228 290.975 136.105 292.185 136.935 294.073Z" fill="#2E3A59"/>
<path d="M78.641 310.024C77.4805 310.02 76.5415 309.079 76.541 307.918V305.811H78.641C79.8047 305.811 80.748 306.754 80.748 307.918C80.748 309.082 79.8047 310.025 78.641 310.025V310.024ZM73.359 310.024C72.1985 310.02 71.2595 309.079 71.259 307.918V302.644C71.259 301.892 71.6599 301.198 72.3108 300.822C72.9616 300.447 73.7634 300.447 74.4143 300.822C75.0651 301.198 75.466 301.892 75.466 302.644V307.918C75.4655 309.081 74.5223 310.024 73.359 310.024ZM83.909 304.751H78.641C77.4776 304.751 76.5345 303.808 76.5345 302.644C76.5345 301.481 77.4776 300.538 78.641 300.538H83.909C85.0724 300.538 86.0155 301.481 86.0155 302.644C86.0155 303.808 85.0724 304.751 83.909 304.751ZM68.092 304.751C66.9286 304.751 65.9855 303.808 65.9855 302.644C65.9855 301.481 66.9286 300.538 68.092 300.538H70.192V302.644C70.192 303.807 69.2499 304.75 68.087 304.751H68.092ZM83.909 299.462H81.809V297.356C81.8123 296.197 82.754 295.26 83.913 295.262C85.072 295.264 86.0101 296.205 86.009 297.364C86.0079 298.523 85.068 299.462 83.909 299.462ZM78.641 299.462C77.4805 299.458 76.5415 298.517 76.541 297.356V292.082C76.541 291.33 76.9419 290.636 77.5928 290.26C78.2436 289.885 79.0454 289.885 79.6963 290.26C80.3471 290.636 80.748 291.33 80.748 292.082V297.356C80.7475 298.519 79.8043 299.462 78.641 299.462ZM73.359 299.462H68.092C66.9286 299.462 65.9855 298.519 65.9855 297.355C65.9855 296.192 66.9286 295.249 68.092 295.249H73.359C74.5224 295.249 75.4655 296.192 75.4655 297.355C75.4655 298.519 74.5224 299.462 73.359 299.462ZM75.459 294.189H73.359C72.5068 294.191 71.7371 293.68 71.4091 292.893C71.0812 292.107 71.2597 291.2 71.8614 290.596C72.463 289.993 73.3691 289.811 74.1569 290.136C74.9446 290.462 75.4586 291.23 75.459 292.082V294.188V294.189Z" fill="#2E3A59"/>
<path d="M468 253H467.949C467.8 252.989 467.658 252.931 467.544 252.835C467.513 252.808 467.484 252.779 467.458 252.747L458.168 241.673C458.096 241.59 458.044 241.491 458.019 241.384C458.019 241.371 458.013 241.358 458.01 241.345C457.982 241.177 458.017 241.005 458.11 240.863L458.129 240.835L461.759 235.7C461.772 235.68 461.785 235.662 461.8 235.646C461.906 235.52 462.054 235.435 462.216 235.407C462.244 235.403 462.272 235.4 462.3 235.4L467.95 235H468H468.049L473.7 235.4C473.731 235.402 473.762 235.406 473.793 235.412C473.971 235.445 474.13 235.546 474.235 235.694L477.872 240.838C477.88 240.848 477.887 240.858 477.893 240.869C477.976 240.996 478.014 241.148 478 241.3C477.996 241.339 477.988 241.377 477.978 241.415C477.951 241.511 477.902 241.599 477.836 241.674L468.543 252.746C468.528 252.765 468.511 252.784 468.493 252.801C468.435 252.858 468.367 252.904 468.293 252.938C468.232 252.965 468.168 252.984 468.102 252.993C468.068 252.998 468.034 253 468 253ZM463.946 241.911L468 250.663L472.054 241.911H463.946ZM473.586 241.911L470.824 247.874L475.824 241.911H473.586ZM460.173 241.911L465.173 247.874L462.414 241.911H460.173ZM474.168 237.994L473.908 240.545H475.97L474.168 237.994ZM468 236.869L464.872 240.545H471.128L468 236.869ZM461.832 237.994L460.03 240.545H462.092L461.832 237.994ZM469.477 236.471L472.551 240.084L472.9 236.711L469.477 236.471ZM466.521 236.471L463.1 236.711L463.445 240.084L466.521 236.471Z" fill="#2E3A59"/>
<path d="M412 254C406.477 254 402 249.523 402 244C402 238.477 406.477 234 412 234C417.523 234 422 238.477 422 244C421.994 249.52 417.52 253.994 412 254ZM406.807 242.543C406.209 242.543 405.671 242.909 405.451 243.465C405.23 244.021 405.371 244.656 405.807 245.066C405.922 245.175 406.055 245.264 406.199 245.33C406.186 245.476 406.186 245.623 406.199 245.769C406.199 248.009 408.814 249.831 412.028 249.831C415.242 249.831 417.858 248.009 417.858 245.769C417.87 245.623 417.87 245.476 417.858 245.33C418.465 245.035 418.786 244.359 418.631 243.702C418.475 243.045 417.885 242.584 417.21 242.593H417.157C416.799 242.606 416.458 242.751 416.2 243C415.063 242.227 413.725 241.799 412.35 241.77L413 238.65L415.138 239.1C415.193 239.607 415.621 239.991 416.131 239.992C416.167 239.992 416.204 239.99 416.24 239.986C416.77 239.933 417.166 239.473 417.139 238.941C417.112 238.409 416.673 237.991 416.14 237.991C416.102 237.992 416.064 237.995 416.027 238C415.71 238.034 415.428 238.216 415.268 238.492L412.82 238C412.798 237.995 412.776 237.993 412.754 237.993C412.609 237.995 412.485 238.096 412.454 238.237L411.706 241.71C410.314 241.73 408.958 242.157 407.806 242.939C407.536 242.684 407.178 242.542 406.807 242.543ZM412.18 248.524C412.124 248.524 412.067 248.524 412.011 248.524C411.955 248.524 411.898 248.524 411.842 248.524C411.012 248.521 410.205 248.25 409.542 247.751C409.496 247.696 409.474 247.625 409.481 247.553C409.488 247.482 409.523 247.416 409.579 247.371C409.627 247.332 409.688 247.31 409.75 247.31C409.812 247.31 409.873 247.332 409.921 247.371C410.482 247.782 411.159 248.002 411.854 248C411.903 248 411.951 248 412 248C412.059 248 412.119 248 412.178 248C412.864 248.001 413.533 247.786 414.09 247.386C414.143 247.332 414.215 247.302 414.29 247.302C414.365 247.302 414.437 247.332 414.49 247.386C414.598 247.498 414.596 247.677 414.485 247.786V247.746C413.821 248.248 413.012 248.521 412.18 248.523V248.524ZM414.307 246.08H414.291L414.299 246.041C413.859 246.011 413.499 245.679 413.434 245.243C413.369 244.807 413.616 244.384 414.028 244.227C414.44 244.07 414.906 244.22 415.148 244.589C415.39 244.957 415.343 245.444 415.035 245.76C414.856 245.955 414.606 246.071 414.341 246.08H414.306H414.307ZM409.67 246C409.118 246 408.67 245.552 408.67 245C408.67 244.448 409.118 244 409.67 244C410.222 244 410.67 244.448 410.67 245C410.67 245.552 410.222 246 409.67 246Z" fill="#2E3A59"/>
<path d="M349.4 253C349.229 253.003 349.06 252.974 348.9 252.914L356.954 244.857L359.62 247.526L350.365 252.726C350.072 252.898 349.74 252.992 349.4 253ZM348.236 252.335C348.072 252.038 347.991 251.704 348 251.365V236.66C347.999 236.437 348.032 236.215 348.1 236.002L356.333 244.237L348.233 252.337L348.236 252.335ZM360.415 247.077L357.574 244.238L360.707 241.106L363.49 242.669C364.024 242.908 364.382 243.424 364.418 244.008C364.382 244.593 364.024 245.109 363.489 245.348L360.415 247.077ZM356.954 243.614L348.614 235.275C348.843 235.106 349.12 235.014 349.405 235.014C349.741 235.026 350.069 235.121 350.36 235.291L359.911 240.659L356.955 243.614H356.954Z" fill="#2E3A59"/>
<path d="M299.398 253.009H296.874C296.746 253.016 296.622 252.96 296.543 252.859C296.463 252.756 296.43 252.624 296.453 252.496C296.493 252.255 296.543 251.937 296.606 251.533C296.641 251.311 296.679 251.07 296.72 250.806C296.845 250.006 296.93 249.469 296.987 249.118C297.01 248.977 297.037 248.811 297.068 248.618V248.598C297.119 248.279 297.182 247.891 297.256 247.434L297.356 246.815V246.81C297.428 246.365 297.485 246.012 297.526 245.749C297.531 245.641 297.58 245.54 297.662 245.469C297.744 245.399 297.852 245.366 297.959 245.378H299.479C300.208 245.386 300.936 245.315 301.65 245.166C302.725 244.952 303.722 244.451 304.536 243.717C305.249 243.032 305.785 242.183 306.096 241.244C306.248 240.808 306.366 240.36 306.448 239.906C306.455 239.864 306.463 239.84 306.473 239.832C306.479 239.824 306.488 239.82 306.498 239.82H306.508C306.53 239.829 306.551 239.841 306.57 239.855C307.095 240.252 307.446 240.837 307.55 241.487C307.668 242.167 307.655 242.863 307.51 243.538C307.321 244.844 306.66 246.035 305.653 246.888C304.54 247.681 303.192 248.074 301.828 248.004H301.389C301.226 248.003 301.067 248.062 300.945 248.17C300.818 248.28 300.734 248.431 300.706 248.597L300.665 248.791L300.112 252.269L300.091 252.42C300.062 252.588 299.974 252.739 299.843 252.847C299.719 252.953 299.561 253.011 299.398 253.009ZM295.82 251.009H292.855C292.714 251.012 292.578 250.951 292.486 250.844C292.39 250.738 292.348 250.595 292.371 250.454L294.702 235.664C294.731 235.474 294.83 235.302 294.979 235.181C295.123 235.057 295.307 234.989 295.497 234.991H301.511C301.841 235.004 302.168 235.048 302.49 235.122C302.873 235.195 303.249 235.302 303.613 235.442C304.275 235.676 304.85 236.108 305.258 236.68C305.645 237.263 305.844 237.952 305.826 238.652C305.809 239.464 305.653 240.267 305.365 241.026C304.906 242.501 303.779 243.673 302.324 244.191C301.507 244.468 300.651 244.611 299.789 244.616C299.779 244.622 299.349 244.623 298.889 244.623L297.989 244.616C297.395 244.555 296.864 244.987 296.802 245.58C296.789 245.634 296.485 247.527 295.947 250.909C295.947 250.941 295.933 250.971 295.908 250.992C295.883 251.012 295.85 251.02 295.819 251.014L295.82 251.009Z" fill="#2E3A59"/>
<path d="M238.401 253V249.811C236.335 248.296 235.107 245.894 235.09 243.332C235.09 238.738 239.09 235 244 235C248.91 235 252.91 238.738 252.911 243.332C252.912 247.926 248.911 251.662 244.001 251.662C243.136 251.663 242.275 251.546 241.442 251.313L238.403 253H238.401ZM243.06 241.069L238.195 246.232L242.633 243.778L244.933 246.172L249.799 241.01L245.365 243.464L243.06 241.069Z" fill="#2E3A59"/>
<path d="M186.396 254C186.074 254 185.757 253.915 185.478 253.754L180.958 251.144C180.392 250.816 180.042 250.211 180.041 249.556V244.336C180.042 243.681 180.391 243.076 180.958 242.747L182.331 241.954V243.664C182.333 244.647 182.857 245.554 183.707 246.047L188.228 248.657C189.079 249.149 190.129 249.149 190.98 248.657L192.752 247.635V249.556C192.751 250.211 192.402 250.816 191.835 251.145L187.314 253.755C187.035 253.916 186.718 254 186.396 254ZM189.603 248.109C189.281 248.109 188.965 248.024 188.686 247.863L184.165 245.253C183.598 244.925 183.248 244.319 183.247 243.664V238.444C183.248 237.789 183.598 237.183 184.165 236.855L188.686 234.246C189.253 233.918 189.953 233.918 190.52 234.246L195.041 236.856C195.608 237.185 195.957 237.79 195.958 238.445V243.665C195.957 244.32 195.608 244.926 195.041 245.254L190.52 247.864C190.241 248.025 189.925 248.109 189.603 248.109Z" fill="#2E3A59"/>
<path d="M133 253H129V241H133V243C133.853 241.915 135.146 241.269 136.525 241.237C139.006 241.251 141.007 243.269 141 245.75V253H137V246.25C136.84 245.133 135.882 244.304 134.753 244.306C134.259 244.322 133.793 244.538 133.462 244.905C133.132 245.271 132.965 245.757 133 246.25V253ZM127 253H123V241H127V253ZM125 239C123.895 239 123 238.105 123 237C123 235.895 123.895 235 125 235C126.105 235 127 235.895 127 237C127 237.53 126.789 238.039 126.414 238.414C126.039 238.789 125.53 239 125 239Z" fill="#2E3A59"/>
<path d="M85 253H67V235H85V253ZM73.1 249.232L71.732 250.076C71.9452 250.544 72.2907 250.939 72.726 251.213C73.1988 251.484 73.7361 251.622 74.281 251.613C74.5668 251.611 74.8515 251.577 75.13 251.513C75.7126 251.37 76.2065 250.985 76.488 250.455C76.7685 249.795 76.8719 249.073 76.788 248.361C76.788 248.225 76.788 248.086 76.788 247.946C76.793 246.919 76.788 245.874 76.788 244.862C76.788 244.346 76.788 243.829 76.788 243.311V243.269H75.1C75.1 243.995 75.1 244.719 75.1 245.442C75.1 246.169 75.1 246.895 75.1 247.623C75.1 247.809 75.1 247.991 75.1 248.166C75.1502 248.665 75.114 249.169 74.993 249.656C74.8477 249.936 74.5488 250.103 74.234 250.078C74.093 250.078 73.9528 250.056 73.818 250.015C73.5472 249.873 73.3288 249.649 73.195 249.374L73.162 249.318C73.131 249.265 73.11 249.228 73.1 249.228V249.232ZM79.049 249.032L77.676 249.819C77.7884 250.065 77.9435 250.289 78.134 250.481C78.181 250.533 78.234 250.589 78.283 250.651C78.9544 251.251 79.8318 251.569 80.732 251.538C81.8969 251.653 82.9975 250.984 83.432 249.897V249.889C83.5458 249.49 83.564 249.069 83.485 248.661L83.519 248.71C83.371 247.781 82.698 247.136 81.267 246.555C81.156 246.503 81.041 246.455 80.929 246.405C80.484 246.213 80.064 246.033 79.918 245.705C79.8529 245.536 79.8411 245.352 79.884 245.176C79.9875 244.824 80.3271 244.596 80.692 244.633C80.8034 244.633 80.9142 244.649 81.021 244.681C81.3501 244.792 81.6163 245.038 81.753 245.357C82.528 244.85 82.528 244.85 83.069 244.513C82.9452 244.302 82.798 244.105 82.63 243.927C82.1167 243.377 81.3801 243.091 80.63 243.151H80.51L79.982 243.218C79.4861 243.329 79.0375 243.593 78.699 243.972C78.3011 244.47 78.1219 245.107 78.2023 245.739C78.2828 246.371 78.6161 246.944 79.126 247.326C79.564 247.626 80.0364 247.872 80.533 248.059C81.174 248.329 81.727 248.559 81.839 248.98C81.9068 249.224 81.8568 249.485 81.704 249.687C81.4325 249.955 81.057 250.09 80.677 250.057C80.5724 250.057 80.4678 250.05 80.364 250.037C79.7985 249.91 79.317 249.542 79.047 249.029L79.049 249.032Z" fill="#2E3A59"/>
<path d="M475.362 196.993H460.638C459.738 196.992 459.009 196.262 459.008 195.362V180.638C459.009 179.738 459.738 179.009 460.638 179.008H475.361C476.261 179.009 476.991 179.738 476.993 180.638V195.362C476.992 196.262 476.262 196.992 475.362 196.993ZM462.673 185.67L462.285 187.1H463.563L462.737 190.466C462.676 190.732 462.643 191.004 462.637 191.277C462.591 191.716 462.748 192.153 463.064 192.462C463.38 192.77 463.82 192.918 464.258 192.861C465.188 192.821 466.023 192.28 466.441 191.449L466.114 192.749H467.925L468.958 188.608C469.218 187.548 469.73 187.008 470.477 187.008C470.742 186.988 471.003 187.086 471.19 187.275C471.377 187.465 471.471 187.727 471.448 187.992C471.451 188.189 471.422 188.385 471.363 188.573L470.835 190.479C470.759 190.743 470.72 191.016 470.721 191.291C470.692 191.73 470.86 192.158 471.179 192.461C471.498 192.764 471.935 192.909 472.372 192.857C473.402 192.857 474.12 192.157 474.509 190.776L473.802 190.503C473.526 191.292 473.232 191.676 472.902 191.676C472.661 191.676 472.534 191.509 472.534 191.192C472.541 191.026 472.566 190.861 472.609 190.7L473.129 188.842C473.247 188.46 473.308 188.062 473.309 187.662C473.368 187.13 473.201 186.598 472.848 186.197C472.495 185.795 471.989 185.56 471.454 185.551C470.406 185.694 469.501 186.357 469.048 187.313L469.408 185.696H466.62L466.229 187.096H467.523L466.723 190.284C466.444 191.067 465.727 191.61 464.897 191.667C464.866 191.667 464.835 191.665 464.805 191.66C464.562 191.603 464.421 191.51 464.421 191.208C464.427 190.958 464.464 190.71 464.531 190.47L465.747 185.67H462.673ZM465.018 182.508C464.629 182.508 464.269 182.716 464.074 183.053C463.879 183.39 463.879 183.806 464.074 184.143C464.269 184.48 464.629 184.688 465.018 184.688V184.663C465.31 184.665 465.59 184.553 465.799 184.349C466.004 184.147 466.118 183.871 466.116 183.583C466.108 182.984 465.618 182.503 465.018 182.508Z" fill="#2E3A59"/>
<path d="M412.002 197.041C409.542 197.041 409.252 197.028 408.292 196.986C407.543 196.961 406.804 196.809 406.107 196.536C404.9 196.066 403.946 195.112 403.477 193.905C403.214 193.205 403.073 192.465 403.058 191.718C403.002 190.76 403.002 190.446 403.002 188.005C403.002 185.538 403.015 185.25 403.058 184.295C403.073 183.549 403.215 182.81 403.477 182.111C403.946 180.903 404.901 179.947 406.11 179.479C406.809 179.215 407.547 179.073 408.294 179.059C409.249 179.005 409.563 179.005 412.002 179.005C414.482 179.005 414.767 179.018 415.712 179.059C416.461 179.073 417.201 179.215 417.902 179.479C419.11 179.948 420.066 180.903 420.535 182.111C420.802 182.82 420.945 183.57 420.956 184.328C421.012 185.286 421.012 185.599 421.012 188.039C421.012 190.479 420.998 190.799 420.956 191.746C420.941 192.494 420.799 193.234 420.536 193.935C420.066 195.143 419.11 196.098 417.902 196.567C417.202 196.829 416.463 196.971 415.716 196.986C414.761 197.041 414.448 197.041 412.002 197.041ZM411.968 180.588C409.522 180.588 409.268 180.6 408.313 180.643C407.743 180.651 407.178 180.756 406.644 180.954C405.855 181.256 405.23 181.878 404.925 182.666C404.725 183.206 404.62 183.777 404.614 184.353C404.561 185.322 404.561 185.576 404.561 188.005C404.561 190.405 404.57 190.696 404.614 191.659C404.623 192.229 404.728 192.794 404.925 193.329C405.231 194.116 405.855 194.738 406.644 195.04C407.178 195.24 407.743 195.345 408.313 195.351C409.281 195.407 409.536 195.407 411.968 195.407C414.421 195.407 414.675 195.395 415.622 195.351C416.192 195.344 416.757 195.239 417.292 195.04C418.076 194.735 418.697 194.115 419.002 193.331C419.201 192.79 419.307 192.219 419.313 191.643H419.324C419.367 190.687 419.367 190.432 419.367 187.989C419.367 185.546 419.356 185.289 419.313 184.334C419.304 183.764 419.199 183.201 419.002 182.666C418.698 181.881 418.077 181.259 417.292 180.954C416.757 180.755 416.192 180.65 415.622 180.643C414.655 180.588 414.402 180.588 411.968 180.588ZM412.002 192.624C410.132 192.625 408.445 191.5 407.729 189.772C407.012 188.045 407.407 186.056 408.729 184.733C410.05 183.411 412.039 183.014 413.767 183.729C415.495 184.444 416.622 186.13 416.622 188C416.619 190.551 414.553 192.619 412.002 192.624ZM412.002 184.998C410.345 184.998 409.002 186.341 409.002 187.998C409.002 189.655 410.345 190.998 412.002 190.998C413.659 190.998 415.002 189.655 415.002 187.998C414.998 186.343 413.657 185.002 412.002 184.998ZM416.802 184.285C416.207 184.283 415.727 183.8 415.728 183.205C415.729 182.61 416.211 182.129 416.806 182.129C417.401 182.129 417.883 182.61 417.884 183.205C417.884 183.492 417.77 183.767 417.567 183.97C417.364 184.172 417.089 184.286 416.802 184.285Z" fill="#2E3A59"/>
<path d="M355.983 196.988L349.569 195.162L348.136 179.012H363.865L362.436 195.162L355.983 196.988ZM351.691 189.297L351.936 192.42L355.999 193.505L360.027 192.425L360.586 186.312H353.402L353.229 184.279H360.762L360.936 182.318H351.066L351.588 188.318H358.424L358.181 190.884L356.002 191.484L353.786 190.877L353.645 189.297H351.691Z" fill="#2E3A59"/>
<path d="M299.956 186.356V189.807H304.748C304.302 192 302.435 193.26 299.956 193.26C297.069 193.22 294.749 190.868 294.749 187.98C294.749 185.093 297.069 182.741 299.956 182.701C301.156 182.7 302.319 183.116 303.246 183.879L305.846 181.279C302.864 178.657 298.508 178.32 295.158 180.451C291.807 182.583 290.267 186.671 291.378 190.484C292.489 194.296 295.985 196.916 299.956 196.914C304.423 196.914 308.485 193.665 308.485 187.98C308.478 187.433 308.411 186.888 308.285 186.355L299.956 186.356Z" fill="#2E3A59"/>
<path d="M244.026 178C239.133 177.999 234.962 181.548 234.178 186.378C233.395 191.208 236.231 195.893 240.873 197.439C241.373 197.529 241.552 197.222 241.552 196.958C241.552 196.721 241.544 196.093 241.541 195.258C238.766 195.858 238.18 193.92 238.18 193.92C237.997 193.317 237.605 192.799 237.073 192.461C236.173 191.842 237.142 191.856 237.142 191.856C237.783 191.944 238.347 192.323 238.669 192.884C238.942 193.38 239.402 193.747 239.946 193.903C240.491 194.058 241.075 193.99 241.569 193.713C241.615 193.207 241.841 192.734 242.204 192.379C239.99 192.128 237.662 191.272 237.662 187.449C237.65 186.46 238.017 185.504 238.688 184.778C238.384 183.917 238.42 182.973 238.788 182.138C238.788 182.138 239.625 181.869 241.53 183.159C243.164 182.711 244.888 182.711 246.522 183.159C248.428 181.868 249.264 182.138 249.264 182.138C249.634 182.973 249.669 183.918 249.364 184.778C250.038 185.504 250.404 186.463 250.388 187.453C250.388 191.286 248.058 192.128 245.836 192.375C246.315 192.865 246.561 193.537 246.511 194.221C246.511 195.555 246.499 196.631 246.499 196.958C246.499 197.225 246.677 197.535 247.186 197.437C251.826 195.888 254.659 191.203 253.874 186.374C253.089 181.546 248.918 177.999 244.026 178Z" fill="#2E3A59"/>
<path d="M184.945 198C183.28 198.013 181.789 196.973 181.226 195.406C180.663 193.839 181.152 192.087 182.445 191.038C181.528 190.296 180.995 189.179 180.995 188C180.995 186.82 181.528 185.703 182.445 184.961C181.152 183.912 180.663 182.161 181.225 180.594C181.788 179.027 183.28 177.986 184.945 178H191.055C192.72 177.986 194.212 179.027 194.775 180.594C195.337 182.161 194.848 183.912 193.555 184.961C194.848 186.01 195.337 187.762 194.774 189.329C194.211 190.896 192.72 191.936 191.055 191.923C190.286 191.924 189.533 191.7 188.89 191.279V194.079C188.881 196.25 187.116 198.004 184.945 198ZM184.923 191.924C183.739 191.943 182.792 192.915 182.804 194.099C182.817 195.284 183.784 196.236 184.968 196.23C186.153 196.224 187.11 195.262 187.11 194.077V191.924H184.922H184.923ZM191.056 185.847C189.868 185.853 188.91 186.82 188.914 188.007C188.918 189.195 189.883 190.155 191.071 190.153C192.258 190.151 193.22 189.188 193.22 188C193.216 186.808 192.247 185.845 191.055 185.847H191.056ZM184.946 185.847C184.177 185.843 183.464 186.249 183.076 186.914C182.688 187.578 182.683 188.398 183.064 189.067C183.445 189.735 184.154 190.149 184.923 190.153H187.11V185.847H184.946ZM188.89 179.77V184.077H191.054C192.212 184.082 193.167 183.172 193.217 182.016V182.451V181.923C193.212 180.732 192.246 179.77 191.055 179.77H188.89ZM184.944 179.77C184.175 179.77 183.464 180.18 183.079 180.847C182.695 181.513 182.695 182.333 183.079 183C183.464 183.666 184.175 184.076 184.944 184.076H187.11V179.77H184.944Z" fill="#2E3A59"/>
<path d="M122.002 188.002C122.003 192.921 125.58 197.11 130.439 197.881V190.892H127.902V188.002H130.442V185.802C130.328 184.76 130.685 183.721 131.414 182.967C132.143 182.213 133.169 181.823 134.215 181.902C134.966 181.914 135.714 181.981 136.455 182.102V184.561H135.191C134.756 184.504 134.318 184.648 134.002 184.952C133.685 185.256 133.524 185.687 133.563 186.124V188.002H136.334L135.891 190.893H133.563V197.881C138.817 197.051 142.502 192.252 141.948 186.961C141.393 181.67 136.793 177.74 131.481 178.017C126.168 178.294 122.003 182.682 122.002 188.002Z" fill="#2E3A59"/>
<path d="M76.006 196.5L71 193.311L76 190.125L81 193.311L76 196.499L76.006 196.5ZM81.006 192.249L76.006 189.062L81.006 185.875L76.006 182.689L81.006 179.5L86.006 182.689L81.006 185.875L86.006 189.062L81.006 192.249ZM71 192.249L66 189.062L71 185.875L66 182.689L71 179.5L76 182.689L71 185.874L76 189.061L71 192.249Z" fill="#2E3A59"/>
<path d="M468 142C462.477 142 458 137.523 458 132C458 126.477 462.477 122 468 122C473.523 122 478 126.477 478 132C477.994 137.52 473.52 141.994 468 142ZM463.12 138.545L463.115 138.555C465.398 140.265 468.409 140.657 471.054 139.588C470.675 137.549 470.113 135.549 469.375 133.611C467.68 134.202 466.13 135.147 464.829 136.384C464.188 136.991 463.633 137.683 463.179 138.441L463.172 138.452V138.442L463.154 138.477L463.142 138.497L463.135 138.51L463.118 138.546L463.12 138.545ZM472.779 133.045C472.287 133.046 471.795 133.079 471.307 133.145C471.944 134.926 472.446 136.752 472.807 138.608C474.506 137.383 475.661 135.544 476.027 133.481C474.969 133.189 473.876 133.041 472.779 133.042V133.045ZM459.817 131.955V132.011C459.819 133.938 460.501 135.802 461.742 137.275C463.35 134.791 465.729 132.902 468.514 131.9L468.633 131.866C468.456 131.475 468.29 131.126 468.124 130.8C465.456 131.548 462.7 131.937 459.929 131.955H459.817ZM472.466 131.349C473.707 131.354 474.945 131.467 476.166 131.687C476.102 129.995 475.511 128.366 474.474 127.028C473.264 128.381 471.758 129.436 470.074 130.112L470.103 130.1L470.072 130.113C470.251 130.486 470.408 130.835 470.539 131.146C470.57 131.22 470.596 131.284 470.62 131.346L470.661 131.446C471.26 131.379 471.863 131.347 472.466 131.349ZM464.377 124.677C462.202 125.75 460.616 127.734 460.047 130.091C462.377 130.055 464.697 129.761 466.962 129.213H466.975H466.99L467 129.2L467.054 129.187H467.06L467.1 129.179H467.109H467.116L467.137 129.173L467.177 129.163L467.2 129.153L467.222 129.147H467.232H467.242C465.909 126.8 464.529 124.887 464.376 124.677H464.377ZM468 123.839C467.453 123.838 466.906 123.89 466.369 123.994C467.417 125.446 468.378 126.958 469.248 128.522C470.806 127.967 472.196 127.022 473.284 125.776C471.807 124.527 469.935 123.84 468 123.839Z" fill="#2E3A59"/>
<path d="M419.625 142L417.583 140.2L416.432 139.13L415.215 138L415.715 139.759H404.947C403.869 139.755 402.997 138.878 403 137.8V124.957C402.998 123.879 403.869 123.004 404.947 123H417.678C418.756 123.004 419.627 123.879 419.625 124.957V142ZM415.1 133.508C414.678 134.074 414.071 134.473 413.385 134.636C413.667 134.996 414.007 135.403 414.01 135.407C415.157 135.431 416.243 134.892 416.917 133.963C416.882 132.038 416.415 130.145 415.549 128.425C414.787 127.827 413.859 127.478 412.891 127.425H412.88L412.747 127.577C413.611 127.809 414.417 128.22 415.113 128.783C414.228 128.296 413.256 127.987 412.253 127.871C411.615 127.8 410.971 127.807 410.335 127.89C410.29 127.891 410.245 127.896 410.201 127.904H410.173C409.427 127.99 408.7 128.192 408.017 128.504C407.675 128.661 407.465 128.775 407.456 128.779C407.447 128.783 407.456 128.779 407.456 128.772C408.194 128.192 409.045 127.772 409.955 127.541L409.855 127.427H409.849C408.881 127.48 407.953 127.829 407.191 128.427C406.322 130.146 405.854 132.039 405.823 133.965C406.488 134.9 407.576 135.441 408.723 135.409C408.723 135.409 409.081 134.973 409.36 134.62C408.691 134.452 408.102 134.056 407.693 133.5C407.7 133.505 407.799 133.572 407.959 133.66C407.97 133.673 407.983 133.683 407.998 133.69C408.011 133.699 408.024 133.706 408.038 133.713C408.054 133.72 408.069 133.729 408.083 133.739C408.306 133.862 408.538 133.969 408.776 134.059C409.229 134.238 409.698 134.376 410.176 134.469C410.595 134.548 411.02 134.588 411.446 134.589C411.846 134.589 412.244 134.552 412.637 134.479C413.11 134.396 413.572 134.259 414.014 134.071C414.396 133.924 414.76 133.735 415.1 133.508ZM413.062 133.081C412.627 133.119 412.213 132.886 412.02 132.494C411.827 132.102 411.894 131.632 412.189 131.31C412.484 130.989 412.947 130.881 413.354 131.039C413.761 131.197 414.029 131.589 414.029 132.026C414.051 132.584 413.619 133.055 413.061 133.081H413.062ZM409.594 133.081C409.047 133.033 408.627 132.575 408.627 132.026C408.627 131.477 409.047 131.019 409.594 130.971C409.846 130.972 410.087 131.075 410.262 131.256C410.461 131.462 410.569 131.739 410.562 132.025C410.585 132.584 410.152 133.056 409.593 133.081H409.594Z" fill="#2E3A59"/>
<path d="M355.983 140.989L349.614 139.176L348.192 123.143H363.807L362.387 139.177L355.987 140.989H355.983ZM351.722 133.352L351.938 136.219L356.001 137.483L359.992 136.343L360.897 126.42H351.097L351.255 128.369H358.784L358.598 130.393H353.66L353.838 132.305H358.438L358.166 134.925L356.002 135.525L353.802 134.925L353.662 133.355H351.722V133.352Z" fill="#2E3A59"/>
<path d="M304.286 137.714C302.646 137.713 301.085 137.009 300 135.78C298.26 137.753 295.398 138.282 293.067 137.063C290.736 135.844 289.538 133.192 290.166 130.637C290.793 128.083 293.084 126.286 295.714 126.286C296.613 126.284 297.499 126.496 298.3 126.905C297.676 127.637 297.192 128.478 296.873 129.386C295.716 128.874 294.361 129.183 293.541 130.146C292.721 131.109 292.632 132.497 293.321 133.557C294.011 134.617 295.316 135.097 296.529 134.737C297.742 134.377 298.573 133.263 298.573 131.998C298.573 128.842 301.131 126.284 304.287 126.284C307.443 126.284 310.001 128.842 310.001 131.998C310.001 135.154 307.443 137.712 304.287 137.712L304.286 137.714ZM301.43 132.1C301.457 133.668 302.743 134.921 304.312 134.907C305.88 134.893 307.144 133.618 307.144 132.05C307.144 130.482 305.88 129.207 304.312 129.193C302.743 129.179 301.457 130.432 301.43 132V132.1Z" fill="#2E3A59"/>
<path d="M249.669 138.268C249.02 138.276 248.376 138.162 247.769 137.931C247.226 137.72 246.735 137.393 246.33 136.973C245.931 136.544 245.624 136.039 245.425 135.488C245.207 134.879 245.099 134.235 245.106 133.588C245.101 132.952 245.212 132.32 245.434 131.724C245.641 131.168 245.958 130.66 246.368 130.231C246.779 129.807 247.27 129.47 247.812 129.237C248.399 128.988 249.032 128.865 249.67 128.874C250.355 128.859 251.034 129.01 251.649 129.314C252.198 129.595 252.673 130 253.039 130.497C253.408 131.004 253.674 131.579 253.822 132.188C253.984 132.836 254.042 133.505 253.993 134.171H247.562C247.536 134.803 247.753 135.422 248.168 135.9C248.604 136.282 249.174 136.476 249.752 136.438C250.206 136.449 250.653 136.318 251.03 136.065C251.33 135.882 251.559 135.604 251.683 135.276H253.838C253.594 136.205 253.032 137.019 252.25 137.576C251.476 138.055 250.579 138.295 249.669 138.268ZM249.6 130.724C249.264 130.711 248.93 130.78 248.626 130.924C248.388 131.044 248.177 131.211 248.006 131.414C247.855 131.599 247.744 131.813 247.678 132.042C247.62 132.233 247.583 132.43 247.567 132.629H251.549C251.52 132.11 251.323 131.616 250.986 131.22C250.614 130.868 250.111 130.689 249.6 130.724ZM239.97 138.036H234V125.731H239.8C240.337 125.726 240.874 125.778 241.4 125.886C241.846 125.973 242.271 126.146 242.651 126.394C242.994 126.632 243.27 126.956 243.451 127.333C243.651 127.787 243.746 128.28 243.731 128.776C243.753 129.325 243.607 129.867 243.314 130.331C242.993 130.774 242.559 131.123 242.058 131.342C242.739 131.512 243.338 131.919 243.748 132.489C244.129 133.076 244.321 133.765 244.3 134.464C244.314 135.023 244.192 135.577 243.942 136.078C243.712 136.522 243.378 136.904 242.968 137.191C242.543 137.486 242.069 137.703 241.568 137.831C241.045 137.968 240.506 138.038 239.965 138.037L239.97 138.036ZM236.71 132.553V135.943H239.6C239.855 135.946 240.11 135.92 240.36 135.866C240.589 135.822 240.806 135.733 241 135.604C241.187 135.481 241.338 135.312 241.44 135.113C241.558 134.863 241.613 134.589 241.602 134.313C241.65 133.801 241.452 133.297 241.068 132.955C240.654 132.67 240.157 132.529 239.654 132.555L236.71 132.553ZM236.71 127.828V130.703H239.452C239.876 130.72 240.294 130.599 240.644 130.358C240.974 130.084 241.147 129.666 241.108 129.239C241.116 128.994 241.064 128.751 240.956 128.531C240.858 128.353 240.714 128.205 240.539 128.103C240.355 127.994 240.151 127.921 239.939 127.888C239.708 127.845 239.474 127.824 239.239 127.827L236.71 127.828ZM252.051 127.772H247.061V126.557H252.051V127.771V127.772Z" fill="#2E3A59"/>
<path d="M185.094 141.006C184.465 140.972 183.874 140.698 183.441 140.24C182.924 139.742 182.462 139.19 182.064 138.592C181.443 137.702 180.951 136.728 180.605 135.699C180.213 134.592 180.006 133.428 179.994 132.254C179.964 131.102 180.25 129.963 180.82 128.962C181.238 128.24 181.833 127.637 182.55 127.211C183.259 126.787 184.068 126.558 184.894 126.549C185.517 126.586 186.129 126.728 186.704 126.97C187.163 127.172 187.645 127.314 188.14 127.392C188.686 127.278 189.22 127.11 189.733 126.892C190.341 126.655 190.984 126.522 191.636 126.499C191.723 126.499 191.809 126.499 191.892 126.509C193.322 126.55 194.651 127.252 195.492 128.409C194.155 129.124 193.334 130.53 193.369 132.046C193.356 133.196 193.835 134.296 194.686 135.069C195.069 135.434 195.515 135.726 196.002 135.932C195.902 136.232 195.787 136.522 195.665 136.814C195.388 137.459 195.046 138.075 194.644 138.651C194.265 139.228 193.824 139.762 193.328 140.243C192.876 140.692 192.273 140.957 191.636 140.986C191.096 140.962 190.566 140.835 190.074 140.613C189.543 140.382 188.973 140.255 188.394 140.24C187.799 140.252 187.212 140.378 186.664 140.611C186.191 140.824 185.686 140.957 185.169 141.004L185.094 141.006ZM188.244 126.499C188.169 126.499 188.094 126.499 188.019 126.49C188.003 126.371 187.995 126.251 187.994 126.131C188.027 125.132 188.417 124.178 189.094 123.443C189.472 123.021 189.931 122.678 190.443 122.434C190.921 122.188 191.443 122.04 191.979 121.999C191.994 122.13 191.994 122.258 191.994 122.38C191.98 123.363 191.61 124.308 190.954 125.04C190.311 125.903 189.319 126.437 188.244 126.499Z" fill="#2E3A59"/>
<path d="M132 142C126.477 142 122 137.523 122 132C122 126.477 126.477 122 132 122C137.523 122 142 126.477 142 132C141.994 137.52 137.52 141.994 132 142ZM127.727 134.787C127.598 134.788 127.47 134.803 127.344 134.833L127.194 134.874L126.6 135.891C126.375 136.267 126.483 136.753 126.847 136.998C127.211 137.242 127.703 137.158 127.965 136.807L128.027 136.714L128.817 135.343C128.557 134.996 128.15 134.79 127.717 134.787H127.727ZM133.211 128.66C132.9 128.952 132.694 129.339 132.624 129.76C132.513 130.341 132.619 130.942 132.924 131.449L135.964 136.715C136.112 136.966 136.382 137.12 136.674 137.121C136.799 137.121 136.923 137.092 137.035 137.037C137.421 136.847 137.595 136.392 137.435 135.993L137.386 135.893L136.586 134.502H137.776C138.208 134.498 138.564 134.161 138.591 133.729C138.617 133.298 138.305 132.919 137.876 132.863L137.776 132.857H135.636L133.442 129.057L133.213 128.657L133.211 128.66ZM126.26 132.85C126.154 132.85 126.049 132.871 125.951 132.911C125.852 132.952 125.761 133.013 125.685 133.089C125.531 133.243 125.445 133.453 125.445 133.671C125.445 134.085 125.753 134.435 126.164 134.488L126.264 134.493H133.744C133.912 134.156 133.905 133.758 133.727 133.426C133.575 133.115 133.277 132.901 132.934 132.855L132.813 132.849H130.262L133.79 126.74C133.899 126.551 133.928 126.326 133.872 126.115C133.816 125.904 133.678 125.723 133.488 125.615C133.131 125.409 132.677 125.499 132.425 125.825L132.363 125.917L132 126.551L131.641 125.917C131.493 125.666 131.223 125.512 130.931 125.511C130.806 125.511 130.682 125.54 130.569 125.595C130.184 125.786 130.01 126.241 130.169 126.64L130.218 126.74L131.048 128.2L128.363 132.85H126.26Z" fill="#2E3A59"/>
<path d="M82 142H70C67.7909 142 66 140.209 66 138V126C66 123.791 67.7909 122 70 122H82C84.2091 122 86 123.791 86 126V138C86 140.209 84.2091 142 82 142ZM70 124C68.8954 124 68 124.895 68 126V138C68 139.105 68.8954 140 70 140H82C83.1046 140 84 139.105 84 138V126C84 124.895 83.1046 124 82 124H70ZM79.762 136.776C78.8881 136.811 78.038 136.486 77.411 135.876C76.7614 135.135 76.4282 134.17 76.483 133.186C76.4629 132.23 76.8039 131.302 77.438 130.586C78.1085 129.877 79.0497 129.488 80.025 129.517C80.116 129.517 80.187 129.517 80.258 129.517V127.517C80.258 127.361 80.3845 127.234 80.541 127.233H81.858C81.9311 127.23 82.0026 127.255 82.058 127.303C82.1127 127.355 82.1426 127.428 82.14 127.503V135.182C82.1353 135.447 82.1486 135.712 82.18 135.975V135.989V136C82.1815 136.064 82.1618 136.126 82.124 136.177C82.0913 136.217 82.05 136.249 82.003 136.271C81.309 136.602 80.55 136.775 79.781 136.777L79.762 136.776ZM78.846 131.66L78.841 131.666C78.5243 132.083 78.3649 132.598 78.391 133.121C78.3499 133.666 78.5073 134.207 78.834 134.645C79.1012 134.939 79.486 135.098 79.883 135.079C80.009 135.081 80.1348 135.068 80.258 135.041V131.192C80.1647 131.172 80.0694 131.162 79.974 131.163C79.5419 131.151 79.1276 131.335 78.846 131.663V131.66ZM76.225 136.66H74.774C74.6211 136.67 74.4787 136.582 74.42 136.44L74.21 136L74.205 135.989L74 135.58L73.936 135.447C73.617 134.789 73.288 134.111 72.958 133.413C72.499 134.43 72.009 135.478 71.541 136.444V136.454L71.536 136.463C71.5025 136.519 71.4558 136.566 71.4 136.6C71.3432 136.634 71.2781 136.651 71.212 136.65H69.841C69.7232 136.656 69.6158 136.583 69.578 136.471C69.5536 136.387 69.5695 136.297 69.621 136.226L71.85 131.965L69.694 127.651C69.6348 127.565 69.6301 127.453 69.682 127.363C69.7317 127.281 69.8204 127.232 69.916 127.232H71.35C71.4197 127.228 71.489 127.244 71.55 127.278C71.6119 127.316 71.6597 127.373 71.686 127.441C72.222 128.566 72.674 129.541 73.069 130.406C73.56 129.306 74.082 128.188 74.432 127.447L74.437 127.436L74.443 127.426V127.42V127.415C74.4681 127.372 74.4994 127.333 74.536 127.3C74.5979 127.248 74.6764 127.221 74.757 127.223H76.1C76.2049 127.22 76.3017 127.279 76.347 127.374C76.3828 127.46 76.3743 127.558 76.324 127.637L74.167 131.824L76.449 136.224C76.4976 136.301 76.5083 136.397 76.478 136.483C76.4394 136.589 76.3379 136.659 76.225 136.658V136.66Z" fill="#2E3A59"/>
</g>
<defs>
<filter id="filter0_d" x="0" y="0" width="544" height="440" filterUnits="userSpaceOnUse" color-interpolation-filters="sRGB">
<feFlood flood-opacity="0" result="BackgroundImageFix"/>
<feColorMatrix in="SourceAlpha" type="matrix" values="0 0 0 0 0 0 0 0 0 0 0 0 0 0 0 0 0 0 127 0"/>
<feOffset dy="8"/>
<feGaussianBlur stdDeviation="12"/>
<feColorMatrix type="matrix" values="0 0 0 0 0.0988235 0 0 0 0 0.127007 0 0 0 0 0.219608 0 0 0 0.04 0"/>
<feBlend mode="normal" in2="BackgroundImageFix" result="effect1_dropShadow"/>
<feBlend mode="normal" in="SourceGraphic" in2="effect1_dropShadow" result="shape"/>
</filter>
</defs>
</svg>
