<svg width="544" height="272" viewBox="0 0 544 272" fill="none" xmlns="http://www.w3.org/2000/svg">
<g filter="url(#filter0_d)">
<rect x="24" y="16" width="496" height="224" rx="8" fill="white"/>
<path d="M71.7 75.24C70.2867 75.24 69.0733 74.94 68.06 74.34C67.0467 73.7267 66.2667 72.88 65.72 71.8C65.1733 70.7067 64.9 69.4467 64.9 68.02C64.9 66.5933 65.1733 65.3333 65.72 64.24C66.2667 63.1467 67.0467 62.2933 68.06 61.68C69.0733 61.0667 70.2867 60.76 71.7 60.76C73.38 60.76 74.7533 61.18 75.82 62.02C76.9 62.8467 77.5733 64.0133 77.84 65.52H75.02C74.8467 64.76 74.4733 64.1667 73.9 63.74C73.34 63.3 72.5933 63.08 71.66 63.08C70.3667 63.08 69.3533 63.52 68.62 64.4C67.8867 65.28 67.52 66.4867 67.52 68.02C67.52 69.5533 67.8867 70.76 68.62 71.64C69.3533 72.5067 70.3667 72.94 71.66 72.94C72.5933 72.94 73.34 72.74 73.9 72.34C74.4733 71.9267 74.8467 71.36 75.02 70.64H77.84C77.5733 72.08 76.9 73.2067 75.82 74.02C74.7533 74.8333 73.38 75.24 71.7 75.24ZM82.4661 75.24C81.6128 75.24 80.9128 75.1067 80.3661 74.84C79.8194 74.56 79.4128 74.1933 79.1461 73.74C78.8794 73.2867 78.7461 72.7867 78.7461 72.24C78.7461 71.32 79.1061 70.5733 79.8261 70C80.5461 69.4267 81.6261 69.14 83.0661 69.14H85.5861V68.9C85.5861 68.22 85.3928 67.72 85.0061 67.4C84.6194 67.08 84.1394 66.92 83.5661 66.92C83.0461 66.92 82.5928 67.0467 82.2061 67.3C81.8194 67.54 81.5794 67.9 81.4861 68.38H78.9861C79.0528 67.66 79.2928 67.0333 79.7061 66.5C80.1328 65.9667 80.6794 65.56 81.3461 65.28C82.0128 64.9867 82.7594 64.84 83.5861 64.84C84.9994 64.84 86.1128 65.1933 86.9261 65.9C87.7394 66.6067 88.1461 67.6067 88.1461 68.9V75H85.9661L85.7261 73.4C85.4328 73.9333 85.0194 74.3733 84.4861 74.72C83.9661 75.0667 83.2928 75.24 82.4661 75.24ZM83.0461 73.24C83.7794 73.24 84.3461 73 84.7461 72.52C85.1594 72.04 85.4194 71.4467 85.5261 70.74H83.3461C82.6661 70.74 82.1794 70.8667 81.8861 71.12C81.5928 71.36 81.4461 71.66 81.4461 72.02C81.4461 72.4067 81.5928 72.7067 81.8861 72.92C82.1794 73.1333 82.5661 73.24 83.0461 73.24ZM89.5891 75V60.6H92.1491V75H89.5891ZM98.5848 75.24C97.5848 75.24 96.6982 75.0267 95.9248 74.6C95.1515 74.1733 94.5448 73.5733 94.1048 72.8C93.6648 72.0267 93.4448 71.1333 93.4448 70.12C93.4448 69.0933 93.6582 68.18 94.0848 67.38C94.5248 66.58 95.1248 65.96 95.8848 65.52C96.6582 65.0667 97.5648 64.84 98.6048 64.84C99.5782 64.84 100.438 65.0533 101.185 65.48C101.932 65.9067 102.512 66.4933 102.925 67.24C103.352 67.9733 103.565 68.7933 103.565 69.7C103.565 69.8467 103.558 70 103.545 70.16C103.545 70.32 103.538 70.4867 103.525 70.66H95.9848C96.0382 71.4333 96.3048 72.04 96.7848 72.48C97.2782 72.92 97.8715 73.14 98.5648 73.14C99.0848 73.14 99.5182 73.0267 99.8648 72.8C100.225 72.56 100.492 72.2533 100.665 71.88H103.265C103.078 72.5067 102.765 73.08 102.325 73.6C101.898 74.1067 101.365 74.5067 100.725 74.8C100.098 75.0933 99.3848 75.24 98.5848 75.24ZM98.6048 66.92C97.9782 66.92 97.4248 67.1 96.9448 67.46C96.4648 67.8067 96.1582 68.34 96.0248 69.06H100.965C100.925 68.4067 100.685 67.8867 100.245 67.5C99.8048 67.1133 99.2582 66.92 98.6048 66.92ZM104.718 75V65.08H106.978L107.178 66.76C107.485 66.1733 107.925 65.7067 108.498 65.36C109.085 65.0133 109.771 64.84 110.558 64.84C111.785 64.84 112.738 65.2267 113.418 66C114.098 66.7733 114.438 67.9067 114.438 69.4V75H111.878V69.64C111.878 68.7867 111.705 68.1333 111.358 67.68C111.011 67.2267 110.471 67 109.738 67C109.018 67 108.425 67.2533 107.958 67.76C107.505 68.2667 107.278 68.9733 107.278 69.88V75H104.718ZM120.446 75.24C119.513 75.24 118.679 75.0133 117.946 74.56C117.213 74.1067 116.633 73.4867 116.206 72.7C115.779 71.9133 115.566 71.02 115.566 70.02C115.566 69.02 115.779 68.1333 116.206 67.36C116.633 66.5733 117.213 65.96 117.946 65.52C118.679 65.0667 119.513 64.84 120.446 64.84C121.193 64.84 121.846 64.98 122.406 65.26C122.966 65.54 123.419 65.9333 123.766 66.44V60.6H126.326V75H124.046L123.766 73.58C123.446 74.02 123.019 74.4067 122.486 74.74C121.966 75.0733 121.286 75.24 120.446 75.24ZM120.986 73C121.813 73 122.486 72.7267 123.006 72.18C123.539 71.62 123.806 70.9067 123.806 70.04C123.806 69.1733 123.539 68.4667 123.006 67.92C122.486 67.36 121.813 67.08 120.986 67.08C120.173 67.08 119.499 67.3533 118.966 67.9C118.433 68.4467 118.166 69.1533 118.166 70.02C118.166 70.8867 118.433 71.6 118.966 72.16C119.499 72.72 120.173 73 120.986 73ZM131.353 75.24C130.499 75.24 129.799 75.1067 129.253 74.84C128.706 74.56 128.299 74.1933 128.033 73.74C127.766 73.2867 127.633 72.7867 127.633 72.24C127.633 71.32 127.993 70.5733 128.713 70C129.433 69.4267 130.513 69.14 131.953 69.14H134.473V68.9C134.473 68.22 134.279 67.72 133.893 67.4C133.506 67.08 133.026 66.92 132.453 66.92C131.933 66.92 131.479 67.0467 131.093 67.3C130.706 67.54 130.466 67.9 130.373 68.38H127.873C127.939 67.66 128.179 67.0333 128.593 66.5C129.019 65.9667 129.566 65.56 130.233 65.28C130.899 64.9867 131.646 64.84 132.473 64.84C133.886 64.84 134.999 65.1933 135.813 65.9C136.626 66.6067 137.033 67.6067 137.033 68.9V75H134.853L134.613 73.4C134.319 73.9333 133.906 74.3733 133.373 74.72C132.853 75.0667 132.179 75.24 131.353 75.24ZM131.933 73.24C132.666 73.24 133.233 73 133.633 72.52C134.046 72.04 134.306 71.4467 134.413 70.74H132.233C131.553 70.74 131.066 70.8667 130.773 71.12C130.479 71.36 130.333 71.66 130.333 72.02C130.333 72.4067 130.479 72.7067 130.773 72.92C131.066 73.1333 131.453 73.24 131.933 73.24ZM138.476 75V65.08H140.756L140.996 66.94C141.356 66.3 141.842 65.7933 142.456 65.42C143.082 65.0333 143.816 64.84 144.656 64.84V67.54H143.936C143.376 67.54 142.876 67.6267 142.436 67.8C141.996 67.9733 141.649 68.2733 141.396 68.7C141.156 69.1267 141.036 69.72 141.036 70.48V75H138.476Z" fill="#2E3A59"/>
<path d="M83 198H69C67.8954 198 67 197.105 67 196V182C67 180.895 67.8954 180 69 180H71V178H73V180H79V178H81V180H83C84.1046 180 85 180.895 85 182V196C85 197.105 84.1046 198 83 198ZM69 186V196H83V186H69ZM69 182V184H83V182H69ZM73.706 194.707L72.293 193.293L74.586 191L72.293 188.707L73.707 187.293L76 189.586L78.293 187.294L79.707 188.708L77.414 191L79.707 193.293L78.294 194.706L76 192.414L73.707 194.707H73.706Z" fill="#2E3A59"/>
<path d="M475 142H461C459.895 142 459 141.105 459 140V126C459 124.895 459.895 124 461 124H463V122H465V124H471V122H473V124H475C476.105 124 477 124.895 477 126V140C477 141.105 476.105 142 475 142ZM461 130V140H475V130H461ZM461 126V128H475V126H461ZM473 134H463V132H473V134Z" fill="#2E3A59"/>
<path d="M419 142H405C403.895 142 403 141.105 403 140V126C403 124.895 403.895 124 405 124H407V122H409V124H415V122H417V124H419C420.105 124 421 124.895 421 126V140C421 141.105 420.105 142 419 142ZM405 130V140H419V130H405ZM405 126V128H419V126H405ZM413 138H411V136H409V134H411V132H413V134H415V136H413V138Z" fill="#2E3A59"/>
<path d="M363 142H349C347.895 142 347 141.105 347 140V126C347 124.895 347.895 124 349 124H351V122H353V124H359V122H361V124H363C364.105 124 365 124.895 365 126V140C365 141.105 364.105 142 363 142ZM349 130V140H363V130H349ZM349 126V128H363V126H349ZM359 136H353V134H359V136Z" fill="#2E3A59"/>
<path d="M307 142H293C291.895 142 291 141.105 291 140V126C291 124.895 291.895 124 293 124H295V122H297V124H303V122H305V124H307C308.105 124 309 124.895 309 126V140C309 141.105 308.105 142 307 142ZM293 130V140H307V130H293ZM293 126V128H307V126H293ZM301 138H295V132H301V138Z" fill="#2E3A59"/>
<path d="M251 142H237C235.895 142 235 141.105 235 140V126C235 124.895 235.895 124 237 124H239V122H241V124H247V122H249V124H251C252.105 124 253 124.895 253 126V140C253 141.105 252.105 142 251 142ZM237 130V140H251V130H237ZM237 126V128H251V126H237ZM241.8 139H240V137.2L244.2 133.01L246 134.81L241.8 139ZM246.625 134.182L244.825 132.382L246.2 131.013L248 132.813L246.63 134.183L246.625 134.182Z" fill="#2E3A59"/>
<path d="M195 142H181C179.895 142 179 141.105 179 140V126C179 124.895 179.895 124 181 124H183V122H185V124H191V122H193V124H195C196.105 124 197 124.895 197 126V140C197 141.105 196.105 142 195 142ZM181 130V140H195V130H181ZM181 126V128H195V126H181ZM187 138.414L183.293 134.707L184.707 133.293L187 135.586L191.293 131.293L192.707 132.707L187 138.413V138.414Z" fill="#2E3A59"/>
<path d="M138.999 142H124.999C123.894 142 122.999 141.105 122.999 140V126C122.999 124.895 123.894 124 124.999 124H126.999V122H128.999V124H134.999V122H136.999V124H138.999C140.104 124 140.999 124.895 140.999 126V140C140.999 141.105 140.104 142 138.999 142ZM124.999 130V140H138.999V130H124.999ZM124.999 126V128H138.999V126H124.999Z" fill="#2E3A59"/>
<path d="M83 142H69C67.8954 142 67 141.105 67 140V126C67 124.895 67.8954 124 69 124H71V122H73V124H79V122H81V124H83C84.1046 124 85 124.895 85 126V140C85 141.105 84.1046 142 83 142ZM69 130V140H83V130H69ZM69 126V128H83V126H69ZM81 138H79V136H81V138ZM77 138H75V136H77V138ZM73 138H71V136H73V138ZM81 134H79V132H81V134ZM77 134H75V132H77V134ZM73 134H71V132H73V134Z" fill="#2E3A59"/>
</g>
<defs>
<filter id="filter0_d" x="0" y="0" width="544" height="272" filterUnits="userSpaceOnUse" color-interpolation-filters="sRGB">
<feFlood flood-opacity="0" result="BackgroundImageFix"/>
<feColorMatrix in="SourceAlpha" type="matrix" values="0 0 0 0 0 0 0 0 0 0 0 0 0 0 0 0 0 0 127 0"/>
<feOffset dy="8"/>
<feGaussianBlur stdDeviation="12"/>
<feColorMatrix type="matrix" values="0 0 0 0 0.0988235 0 0 0 0 0.127007 0 0 0 0 0.219608 0 0 0 0.04 0"/>
<feBlend mode="normal" in2="BackgroundImageFix" result="effect1_dropShadow"/>
<feBlend mode="normal" in="SourceGraphic" in2="effect1_dropShadow" result="shape"/>
</filter>
</defs>
</svg>
