<svg width="544" height="272" viewBox="0 0 544 272" fill="none" xmlns="http://www.w3.org/2000/svg">
<g filter="url(#filter0_d)">
<rect x="24" y="16" width="496" height="224" rx="8" fill="white"/>
<path d="M71.7 75.24C70.2867 75.24 69.0733 74.94 68.06 74.34C67.0467 73.7267 66.2667 72.88 65.72 71.8C65.1733 70.7067 64.9 69.4467 64.9 68.02C64.9 66.5933 65.1733 65.3333 65.72 64.24C66.2667 63.1467 67.0467 62.2933 68.06 61.68C69.0733 61.0667 70.2867 60.76 71.7 60.76C73.38 60.76 74.7533 61.18 75.82 62.02C76.9 62.8467 77.5733 64.0133 77.84 65.52H75.02C74.8467 64.76 74.4733 64.1667 73.9 63.74C73.34 63.3 72.5933 63.08 71.66 63.08C70.3667 63.08 69.3533 63.52 68.62 64.4C67.8867 65.28 67.52 66.4867 67.52 68.02C67.52 69.5533 67.8867 70.76 68.62 71.64C69.3533 72.5067 70.3667 72.94 71.66 72.94C72.5933 72.94 73.34 72.74 73.9 72.34C74.4733 71.9267 74.8467 71.36 75.02 70.64H77.84C77.5733 72.08 76.9 73.2067 75.82 74.02C74.7533 74.8333 73.38 75.24 71.7 75.24ZM79.0461 75V60.6H81.6061V66.6C81.9394 66.0533 82.3861 65.6267 82.9461 65.32C83.5194 65 84.1728 64.84 84.9061 64.84C86.1328 64.84 87.0794 65.2267 87.7461 66C88.4261 66.7733 88.7661 67.9067 88.7661 69.4V75H86.2261V69.64C86.2261 68.7867 86.0528 68.1333 85.7061 67.68C85.3728 67.2267 84.8394 67 84.1061 67C83.3861 67 82.7861 67.2533 82.3061 67.76C81.8394 68.2667 81.6061 68.9733 81.6061 69.88V75H79.0461ZM93.6341 75.24C92.7807 75.24 92.0807 75.1067 91.5341 74.84C90.9874 74.56 90.5807 74.1933 90.3141 73.74C90.0474 73.2867 89.9141 72.7867 89.9141 72.24C89.9141 71.32 90.2741 70.5733 90.9941 70C91.7141 69.4267 92.7941 69.14 94.2341 69.14H96.7541V68.9C96.7541 68.22 96.5607 67.72 96.1741 67.4C95.7874 67.08 95.3074 66.92 94.7341 66.92C94.2141 66.92 93.7607 67.0467 93.3741 67.3C92.9874 67.54 92.7474 67.9 92.6541 68.38H90.1541C90.2207 67.66 90.4607 67.0333 90.8741 66.5C91.3007 65.9667 91.8474 65.56 92.5141 65.28C93.1807 64.9867 93.9274 64.84 94.7541 64.84C96.1674 64.84 97.2807 65.1933 98.0941 65.9C98.9074 66.6067 99.3141 67.6067 99.3141 68.9V75H97.1341L96.8941 73.4C96.6007 73.9333 96.1874 74.3733 95.6541 74.72C95.1341 75.0667 94.4607 75.24 93.6341 75.24ZM94.2141 73.24C94.9474 73.24 95.5141 73 95.9141 72.52C96.3274 72.04 96.5874 71.4467 96.6941 70.74H94.5141C93.8341 70.74 93.3474 70.8667 93.0541 71.12C92.7607 71.36 92.6141 71.66 92.6141 72.02C92.6141 72.4067 92.7607 72.7067 93.0541 72.92C93.3474 73.1333 93.7341 73.24 94.2141 73.24ZM100.757 75V65.08H103.037L103.277 66.94C103.637 66.3 104.124 65.7933 104.737 65.42C105.364 65.0333 106.097 64.84 106.937 64.84V67.54H106.217C105.657 67.54 105.157 67.6267 104.717 67.8C104.277 67.9733 103.93 68.2733 103.677 68.7C103.437 69.1267 103.317 69.72 103.317 70.48V75H100.757ZM112.107 75C111.067 75 110.233 74.7467 109.607 74.24C108.98 73.7333 108.667 72.8333 108.667 71.54V67.22H106.967V65.08H108.667L108.967 62.42H111.227V65.08H113.907V67.22H111.227V71.56C111.227 72.04 111.327 72.3733 111.527 72.56C111.74 72.7333 112.1 72.82 112.607 72.82H113.847V75H112.107Z" fill="#2E3A59"/>
<path d="M357 189.414C357.187 189.602 357.442 189.707 357.707 189.707H358.293C358.558 189.707 358.813 189.602 359 189.414L363.707 184.707L366 187V181H360L362.293 183.293L358 187.586L355 184.586C354.813 184.398 354.558 184.293 354.293 184.293H353.707C353.442 184.293 353.187 184.398 353 184.586L346.293 191.293L347.707 192.707L354 186.414L357 189.414Z" fill="#2E3A59"/>
<path d="M301.707 186.293C301.442 186.293 301.187 186.398 301 186.586L298 189.586L291.707 183.293L290.293 184.707L297 191.414C297.187 191.602 297.442 191.707 297.707 191.707H298.293C298.558 191.707 298.813 191.602 299 191.414L302 188.414L306.293 192.707L304 195H310V189L307.707 191.293L303 186.586C302.813 186.398 302.558 186.293 302.293 186.293H301.707Z" fill="#2E3A59"/>
<path d="M244 198C238.477 198 234 193.523 234 188C234 182.477 238.477 178 244 178C249.523 178 254 182.477 254 188C253.994 193.52 249.52 197.994 244 198ZM243 180.062C238.894 180.579 235.86 184.143 236.005 188.279C236.149 192.415 239.424 195.758 243.556 195.987C247.689 196.216 251.314 193.256 251.915 189.162V189.146V189.117V189.087V189.058V189.042V189.031V189.017V189H243V180.062ZM245 180.062V187H251.938C251.481 183.374 248.626 180.519 245 180.062Z" fill="#2E3A59"/>
<path d="M188 198C182.477 198 178 193.523 178 188C178 182.477 182.477 178 188 178C193.523 178 198 182.477 198 188C197.994 193.52 193.52 197.994 188 198ZM187 180.062C183.726 180.476 181.042 182.858 180.242 186.059C179.442 189.261 180.69 192.625 183.385 194.531C186.079 196.436 189.667 196.491 192.419 194.67L192.319 194.741L192.413 194.676L192.472 194.635L192.536 194.59L192.552 194.579L192.561 194.572L187.433 189.442C187.154 189.158 186.999 188.777 187 188.379V180.062ZM189.829 189L194.056 193.227L194.063 193.219L194.068 193.213L194.058 193.224C195.09 192.034 195.744 190.563 195.938 189H189.829ZM189 180.062V187H195.938C195.481 183.374 192.626 180.519 189 180.062Z" fill="#2E3A59"/>
<path d="M132 198C126.48 197.994 122.006 193.52 122 188V187.8C122.11 182.305 126.635 177.928 132.131 178.001C137.627 178.074 142.034 182.569 141.998 188.065C141.962 193.562 137.497 197.999 132 198ZM132 180C127.584 180.004 124.004 183.584 124 188H132V180Z" fill="#2E3A59"/>
<path d="M76 198C70.4772 198 66 193.523 66 188C66 182.477 70.4772 178 76 178C81.5228 178 86 182.477 86 188C85.9939 193.52 81.5203 197.994 76 198ZM75.984 196H76V180C71.5817 179.996 67.9964 183.574 67.992 187.992C67.9876 192.41 71.5657 195.996 75.984 196Z" fill="#2E3A59"/>
<path d="M468 142C462.48 141.994 458.006 137.52 458 132V131.8C458.11 126.305 462.635 121.928 468.131 122.001C473.627 122.074 478.034 126.569 477.998 132.065C477.962 137.562 473.497 141.999 468 142ZM460 132.172C460.047 136.59 463.668 140.134 468.086 140.086C472.504 140.039 476.047 136.418 476 132H468V124C463.584 124.006 460.006 127.584 460 132V132.172Z" fill="#2E3A59"/>
<path d="M421 141H404C403.448 141 403 140.552 403 140V123H405V139H421V141ZM408.373 136L407 134.656L411.856 129.9C412.238 129.528 412.847 129.528 413.229 129.9L415.456 132.081L419.627 128L421 129.344L416.144 134.1C415.762 134.472 415.153 134.472 414.771 134.1L412.543 131.918L408.374 136H408.373Z" fill="#2E3A59"/>
<path d="M365 141H348C347.448 141 347 140.552 347 140V123H349V139H365V141ZM363.627 136L359.457 131.918L357.229 134.1C356.847 134.472 356.238 134.472 355.856 134.1L351 129.344L352.373 128L356.543 132.082L358.77 129.9C359.152 129.528 359.761 129.528 360.143 129.9L365 134.656L363.627 136Z" fill="#2E3A59"/>
<path d="M300.051 141.949C294.726 141.944 290.339 137.768 290.072 132.45C289.806 127.131 293.753 122.537 299.051 122V126.04C296.042 126.549 293.895 129.237 294.065 132.285C294.235 135.332 296.668 137.765 299.715 137.935C302.763 138.105 305.451 135.958 305.96 132.949H310C309.48 138.056 305.183 141.942 300.05 141.949H300.051ZM310.001 130.949H305.961C305.535 128.435 303.565 126.465 301.051 126.04V122C305.778 122.484 309.515 126.221 310 130.948L310.001 130.949Z" fill="#2E3A59"/>
<path d="M251 141H237C235.895 141 235 140.105 235 139V125C235 123.895 235.895 123 237 123H251C252.105 123 253 123.895 253 125V139C253 140.105 252.105 141 251 141ZM237 125V139H251V125H237ZM249 137H247V130H249V137ZM245 137H243V127H245V137ZM241 137H239V132H241V137Z" fill="#2E3A59"/>
<path d="M180 142H178V122H180V142ZM191 141H181V138H191V141ZM194 136H181V133H194V136ZM197 131H181V128H197V131ZM189 126H181V123H189V126Z" fill="#2E3A59"/>
<path d="M142 141H122V131C122 129.895 122.895 129 124 129H128V124C128 122.895 128.895 122 130 122H134C135.105 122 136 122.895 136 124V127H140C141.105 127 142 127.895 142 129V141ZM136 129V139H140V129H136ZM130 124V139H134V124H130ZM124 131V139H128V131H124Z" fill="#2E3A59"/>
<path d="M85 141H82V131H85V141ZM80 141H77V128H80V141ZM75 141H72V125H75V141ZM70 141H67V133H70V141Z" fill="#2E3A59"/>
</g>
<defs>
<filter id="filter0_d" x="0" y="0" width="544" height="272" filterUnits="userSpaceOnUse" color-interpolation-filters="sRGB">
<feFlood flood-opacity="0" result="BackgroundImageFix"/>
<feColorMatrix in="SourceAlpha" type="matrix" values="0 0 0 0 0 0 0 0 0 0 0 0 0 0 0 0 0 0 127 0"/>
<feOffset dy="8"/>
<feGaussianBlur stdDeviation="12"/>
<feColorMatrix type="matrix" values="0 0 0 0 0.0988235 0 0 0 0 0.127007 0 0 0 0 0.219608 0 0 0 0.04 0"/>
<feBlend mode="normal" in2="BackgroundImageFix" result="effect1_dropShadow"/>
<feBlend mode="normal" in="SourceGraphic" in2="effect1_dropShadow" result="shape"/>
</filter>
</defs>
</svg>
