<svg width="544" height="216" viewBox="0 0 544 216" fill="none" xmlns="http://www.w3.org/2000/svg">
<g filter="url(#filter0_d)">
<rect x="24" y="16" width="496" height="168" rx="8" fill="white"/>
<path d="M65.36 75V61H70.14C71.78 61 73.1267 61.2933 74.18 61.88C75.2467 62.4533 76.0333 63.2667 76.54 64.32C77.06 65.36 77.32 66.5867 77.32 68C77.32 69.4133 77.06 70.6467 76.54 71.7C76.0333 72.74 75.2467 73.5533 74.18 74.14C73.1267 74.7133 71.78 75 70.14 75H65.36ZM67.92 72.8H70.02C71.1933 72.8 72.12 72.6133 72.8 72.24C73.48 71.8533 73.9667 71.3067 74.26 70.6C74.5533 69.88 74.7 69.0133 74.7 68C74.7 67 74.5533 66.14 74.26 65.42C73.9667 64.7 73.48 64.1467 72.8 63.76C72.12 63.3733 71.1933 63.18 70.02 63.18H67.92V72.8ZM83.3388 75.24C82.3388 75.24 81.4521 75.0267 80.6788 74.6C79.9054 74.1733 79.2988 73.5733 78.8588 72.8C78.4188 72.0267 78.1988 71.1333 78.1988 70.12C78.1988 69.0933 78.4121 68.18 78.8388 67.38C79.2788 66.58 79.8788 65.96 80.6388 65.52C81.4121 65.0667 82.3188 64.84 83.3588 64.84C84.3321 64.84 85.1921 65.0533 85.9388 65.48C86.6854 65.9067 87.2654 66.4933 87.6788 67.24C88.1054 67.9733 88.3188 68.7933 88.3188 69.7C88.3188 69.8467 88.3121 70 88.2988 70.16C88.2988 70.32 88.2921 70.4867 88.2788 70.66H80.7388C80.7921 71.4333 81.0588 72.04 81.5388 72.48C82.0321 72.92 82.6254 73.14 83.3188 73.14C83.8388 73.14 84.2721 73.0267 84.6188 72.8C84.9788 72.56 85.2454 72.2533 85.4188 71.88H88.0188C87.8321 72.5067 87.5188 73.08 87.0788 73.6C86.6521 74.1067 86.1188 74.5067 85.4788 74.8C84.8521 75.0933 84.1388 75.24 83.3388 75.24ZM83.3588 66.92C82.7321 66.92 82.1788 67.1 81.6988 67.46C81.2188 67.8067 80.9121 68.34 80.7788 69.06H85.7188C85.6788 68.4067 85.4388 67.8867 84.9988 67.5C84.5588 67.1133 84.0121 66.92 83.3588 66.92ZM91.7613 75L88.1213 65.08H90.8013L93.3213 72.58L95.8413 65.08H98.5213L94.8613 75H91.7613ZM100.516 63.54C100.049 63.54 99.6626 63.4 99.3559 63.12C99.0626 62.84 98.9159 62.4867 98.9159 62.06C98.9159 61.6333 99.0626 61.2867 99.3559 61.02C99.6626 60.74 100.049 60.6 100.516 60.6C100.983 60.6 101.363 60.74 101.656 61.02C101.963 61.2867 102.116 61.6333 102.116 62.06C102.116 62.4867 101.963 62.84 101.656 63.12C101.363 63.4 100.983 63.54 100.516 63.54ZM99.2359 75V65.08H101.796V75H99.2359ZM108.328 75.24C107.315 75.24 106.421 75.02 105.648 74.58C104.875 74.14 104.261 73.5267 103.808 72.74C103.368 71.9533 103.148 71.0533 103.148 70.04C103.148 69.0267 103.368 68.1267 103.808 67.34C104.261 66.5533 104.875 65.94 105.648 65.5C106.421 65.06 107.315 64.84 108.328 64.84C109.595 64.84 110.661 65.1733 111.528 65.84C112.395 66.4933 112.948 67.4 113.188 68.56H110.488C110.355 68.08 110.088 67.7067 109.688 67.44C109.301 67.16 108.841 67.02 108.308 67.02C107.601 67.02 107.001 67.2867 106.508 67.82C106.015 68.3533 105.768 69.0933 105.768 70.04C105.768 70.9867 106.015 71.7267 106.508 72.26C107.001 72.7933 107.601 73.06 108.308 73.06C108.841 73.06 109.301 72.9267 109.688 72.66C110.088 72.3933 110.355 72.0133 110.488 71.52H113.188C112.948 72.64 112.395 73.54 111.528 74.22C110.661 74.9 109.595 75.24 108.328 75.24ZM119.28 75.24C118.28 75.24 117.393 75.0267 116.62 74.6C115.847 74.1733 115.24 73.5733 114.8 72.8C114.36 72.0267 114.14 71.1333 114.14 70.12C114.14 69.0933 114.353 68.18 114.78 67.38C115.22 66.58 115.82 65.96 116.58 65.52C117.353 65.0667 118.26 64.84 119.3 64.84C120.273 64.84 121.133 65.0533 121.88 65.48C122.627 65.9067 123.207 66.4933 123.62 67.24C124.047 67.9733 124.26 68.7933 124.26 69.7C124.26 69.8467 124.253 70 124.24 70.16C124.24 70.32 124.233 70.4867 124.22 70.66H116.68C116.733 71.4333 117 72.04 117.48 72.48C117.973 72.92 118.567 73.14 119.26 73.14C119.78 73.14 120.213 73.0267 120.56 72.8C120.92 72.56 121.187 72.2533 121.36 71.88H123.96C123.773 72.5067 123.46 73.08 123.02 73.6C122.593 74.1067 122.06 74.5067 121.42 74.8C120.793 75.0933 120.08 75.24 119.28 75.24ZM119.3 66.92C118.673 66.92 118.12 67.1 117.64 67.46C117.16 67.8067 116.853 68.34 116.72 69.06H121.66C121.62 68.4067 121.38 67.8867 120.94 67.5C120.5 67.1133 119.953 66.92 119.3 66.92Z" fill="#2E3A59"/>
<path d="M364 143H348C346.895 143 346 142.105 346 141V123C346 121.895 346.895 121 348 121H364C365.105 121 366 121.895 366 123V141C366 142.105 365.105 143 364 143ZM348 123V141H364V123H348ZM356 140C355.448 140 355 139.552 355 139C355 138.448 355.448 138 356 138C356.552 138 357 138.448 357 139C357 139.552 356.552 140 356 140Z" fill="#2E3A59"/>
<path d="M305 141H295V139H297V138H291C289.895 138 289 137.105 289 136V125C289 123.895 289.895 123 291 123H309C310.105 123 311 123.895 311 125V136C311 137.105 310.105 138 309 138H303V139H305V141ZM291 125V136H309V125H291Z" fill="#2E3A59"/>
<path d="M248.75 143H238.75C237.645 143 236.75 142.105 236.75 141V123C236.75 121.895 237.645 121 238.75 121H248.75C249.855 121 250.75 121.895 250.75 123V141C250.75 142.105 249.855 143 248.75 143ZM238.75 123V141H248.75V123H238.75ZM243.75 140C243.198 140 242.75 139.552 242.75 139C242.75 138.448 243.198 138 243.75 138C244.302 138 244.75 138.448 244.75 139C244.75 139.552 244.302 140 243.75 140Z" fill="#2E3A59"/>
<path d="M193 143H183C181.895 143 181 142.105 181 141V122.913C181.047 121.843 181.929 120.999 183 121H193C194.105 121 195 121.895 195 123V141C195 142.105 194.105 143 193 143ZM183 123V141H193V123H191C191 124.105 190.105 125 189 125H187C185.895 125 185 124.105 185 123H183Z" fill="#2E3A59"/>
<path d="M141 139H123C121.895 139 121 138.105 121 137V136H123V127C123 125.895 123.895 125 125 125H139C140.105 125 141 125.895 141 127V136H143V137C143 138.105 142.105 139 141 139ZM125 127V136H139V127H125Z" fill="#2E3A59"/>
<path d="M74 141H68C66.8954 141 66 140.105 66 139V129C66 127.895 66.8954 127 68 127H69V125C69 123.895 69.8954 123 71 123H84C85.1046 123 86 123.895 86 125V136C86 137.105 85.1046 138 84 138H76V139C76 140.105 75.1046 141 74 141ZM68 129V139H74V129H68ZM71 127H74C75.1046 127 76 127.895 76 129V136H84V125H71V127Z" fill="#2E3A59"/>
</g>
<defs>
<filter id="filter0_d" x="0" y="0" width="544" height="216" filterUnits="userSpaceOnUse" color-interpolation-filters="sRGB">
<feFlood flood-opacity="0" result="BackgroundImageFix"/>
<feColorMatrix in="SourceAlpha" type="matrix" values="0 0 0 0 0 0 0 0 0 0 0 0 0 0 0 0 0 0 127 0"/>
<feOffset dy="8"/>
<feGaussianBlur stdDeviation="12"/>
<feColorMatrix type="matrix" values="0 0 0 0 0.0988235 0 0 0 0 0.127007 0 0 0 0 0.219608 0 0 0 0.04 0"/>
<feBlend mode="normal" in2="BackgroundImageFix" result="effect1_dropShadow"/>
<feBlend mode="normal" in="SourceGraphic" in2="effect1_dropShadow" result="shape"/>
</filter>
</defs>
</svg>
