<svg width="544" height="440" viewBox="0 0 544 440" fill="none" xmlns="http://www.w3.org/2000/svg">
<g filter="url(#filter0_d)">
<rect x="24" y="16" width="496" height="392" rx="8" fill="white"/>
<path d="M65.36 75V61H74.5V63.06H67.92V66.9H73.9V68.9H67.92V72.94H74.5V75H65.36ZM80.4225 75.24C79.4892 75.24 78.6558 75.0133 77.9225 74.56C77.1892 74.1067 76.6092 73.4867 76.1825 72.7C75.7558 71.9133 75.5425 71.02 75.5425 70.02C75.5425 69.02 75.7558 68.1333 76.1825 67.36C76.6092 66.5733 77.1892 65.96 77.9225 65.52C78.6558 65.0667 79.4892 64.84 80.4225 64.84C81.1692 64.84 81.8225 64.98 82.3825 65.26C82.9425 65.54 83.3958 65.9333 83.7425 66.44V60.6H86.3025V75H84.0225L83.7425 73.58C83.4225 74.02 82.9958 74.4067 82.4625 74.74C81.9425 75.0733 81.2625 75.24 80.4225 75.24ZM80.9625 73C81.7892 73 82.4625 72.7267 82.9825 72.18C83.5158 71.62 83.7825 70.9067 83.7825 70.04C83.7825 69.1733 83.5158 68.4667 82.9825 67.92C82.4625 67.36 81.7892 67.08 80.9625 67.08C80.1492 67.08 79.4758 67.3533 78.9425 67.9C78.4092 68.4467 78.1425 69.1533 78.1425 70.02C78.1425 70.8867 78.4092 71.6 78.9425 72.16C79.4758 72.72 80.1492 73 80.9625 73ZM89.2894 63.54C88.8227 63.54 88.436 63.4 88.1294 63.12C87.836 62.84 87.6894 62.4867 87.6894 62.06C87.6894 61.6333 87.836 61.2867 88.1294 61.02C88.436 60.74 88.8227 60.6 89.2894 60.6C89.756 60.6 90.136 60.74 90.4294 61.02C90.736 61.2867 90.8894 61.6333 90.8894 62.06C90.8894 62.4867 90.736 62.84 90.4294 63.12C90.136 63.4 89.756 63.54 89.2894 63.54ZM88.0094 75V65.08H90.5694V75H88.0094ZM96.6614 75C95.6214 75 94.7881 74.7467 94.1614 74.24C93.5347 73.7333 93.2214 72.8333 93.2214 71.54V67.22H91.5214V65.08H93.2214L93.5214 62.42H95.7814V65.08H98.4614V67.22H95.7814V71.56C95.7814 72.04 95.8814 72.3733 96.0814 72.56C96.2947 72.7333 96.6547 72.82 97.1614 72.82H98.4014V75H96.6614Z" fill="#2E3A59"/>
<path d="M141 363H129V361H141V363ZM141 359H123V357H141V359ZM141 355H129V353H141V355ZM141 351H123V349H141V351Z" fill="#2E3A59"/>
<path d="M79 363H67V361H79V363ZM85 359H67V357H85V359ZM79 355H67V353H79V355ZM85 351H67V349H85V351Z" fill="#2E3A59"/>
<path d="M477 307H459V305H477V307ZM477 303H459V301H477V303ZM477 299H459V297H477V299ZM477 295H459V293H477V295Z" fill="#2E3A59"/>
<path d="M418 307H406V305H418V307ZM421 303H403V301H421V303ZM418 299H406V297H418V299ZM421 295H403V293H421V295Z" fill="#2E3A59"/>
<path d="M356 307C354.36 307.02 352.737 306.666 351.254 305.965C350.105 305.404 349.073 304.63 348.213 303.683C347.302 302.704 346.585 301.562 346.1 300.316L346 300L346.105 299.684C346.591 298.439 347.306 297.297 348.214 296.317C349.073 295.37 350.105 294.596 351.254 294.035C352.737 293.334 354.36 292.98 356 293C357.64 292.98 359.263 293.334 360.746 294.035C361.895 294.596 362.927 295.37 363.787 296.317C364.699 297.295 365.416 298.437 365.9 299.684L366 300L365.895 300.316C364.326 304.4 360.374 307.069 356 307ZM356 295C352.596 294.893 349.471 296.875 348.117 300C349.471 303.125 352.596 305.107 356 305C359.404 305.106 362.528 303.125 363.883 300C362.53 296.874 359.405 294.891 356 295ZM356 303C354.557 303.01 353.309 301.997 353.021 300.584C352.733 299.17 353.484 297.75 354.815 297.194C356.146 296.637 357.685 297.1 358.489 298.299C359.292 299.497 359.135 301.096 358.115 302.116C357.556 302.681 356.795 303 356 303Z" fill="#2E3A59"/>
<path d="M304 310H292C290.895 310 290 309.105 290 308V296H292V308H304V310ZM308 306H296C294.895 306 294 305.105 294 304V292C294 290.895 294.895 290 296 290H308C309.105 290 310 290.895 310 292V304C310 305.105 309.105 306 308 306ZM296 292V304H308V292H296ZM301 301.561L297.293 297.853L298.707 296.439L301 298.733L305.293 294.44L306.707 295.854L301 301.56V301.561Z" fill="#2E3A59"/>
<path d="M248.577 308L242.81 302.234C240.654 303.656 237.771 303.216 236.137 301.216C234.504 299.215 234.649 296.302 236.474 294.474C238.302 292.648 241.215 292.502 243.216 294.136C245.217 295.769 245.658 298.653 244.235 300.809L250 306.576L248.577 308ZM240.034 295.014C238.593 295.013 237.352 296.03 237.07 297.443C236.788 298.856 237.544 300.271 238.875 300.823C240.205 301.376 241.741 300.911 242.542 299.714C243.343 298.516 243.187 296.919 242.169 295.9C241.604 295.331 240.835 295.012 240.034 295.014ZM251 299H249V297H247V295H249V293H251V295H253V297H251V299Z" fill="#2E3A59"/>
<path d="M192.577 308L186.81 302.234C184.654 303.656 181.771 303.216 180.137 301.216C178.504 299.215 178.649 296.302 180.474 294.474C182.302 292.648 185.215 292.502 187.216 294.136C189.217 295.769 189.658 298.653 188.235 300.809L194 306.576L192.577 308ZM184.034 295.014C182.593 295.013 181.352 296.03 181.07 297.443C180.788 298.856 181.544 300.271 182.875 300.823C184.205 301.376 185.741 300.911 186.542 299.714C187.343 298.516 187.187 296.919 186.169 295.9C185.604 295.331 184.835 295.012 184.034 295.014ZM197 297H191V295H197V297Z" fill="#2E3A59"/>
<path d="M137.577 307L132.81 302.234C130.654 303.656 127.771 303.216 126.137 301.216C124.504 299.215 124.649 296.302 126.474 294.474C128.302 292.648 131.215 292.502 133.216 294.136C135.217 295.769 135.658 298.653 134.235 300.809L139 305.577L137.577 307ZM130.034 295.014C128.593 295.013 127.352 296.03 127.07 297.443C126.788 298.856 127.544 300.271 128.875 300.823C130.205 301.376 131.741 300.911 132.542 299.714C133.343 298.516 133.187 296.919 132.169 295.9C131.604 295.331 130.835 295.012 130.034 295.014Z" fill="#2E3A59"/>
<path d="M82.677 307.607L76.962 301.891C74.4197 303.698 70.9164 303.256 68.9029 300.874C66.8893 298.491 67.0372 294.964 69.243 292.758C71.4483 290.551 74.9765 290.403 77.3594 292.416C79.7423 294.43 80.1846 297.933 78.377 300.476L84.092 306.192L82.678 307.606L82.677 307.607ZM73.485 293C71.5887 293 69.9527 294.331 69.5675 296.187C69.1823 298.044 70.1537 299.916 71.8937 300.67C73.6336 301.424 75.6639 300.853 76.7552 299.302C77.8466 297.751 77.6991 295.647 76.402 294.264L77.007 294.864L76.325 294.184L76.313 294.172C75.5648 293.419 74.5464 292.997 73.485 293Z" fill="#2E3A59"/>
<path d="M475 253H461C459.895 253 459 252.105 459 251V237C459 235.895 459.895 235 461 235H475C476.105 235 477 235.895 477 237V251C477 252.105 476.105 253 475 253ZM461 237V251H475V237H461ZM469 249H467V245H463V243H467V239H469V243H473V245H469V249Z" fill="#2E3A59"/>
<path d="M412 254C406.477 254 402 249.523 402 244C402 238.477 406.477 234 412 234C417.523 234 422 238.477 422 244C421.994 249.52 417.52 253.994 412 254ZM404 244.172C404.047 248.573 407.641 252.11 412.043 252.086C416.444 252.062 420 248.487 420 244.086C420 239.685 416.444 236.11 412.043 236.086C407.641 236.062 404.047 239.599 404 244V244.172ZM413 249H411V245H407V243H411V239H413V243H417V245H413V249Z" fill="#2E3A59"/>
<path d="M356 254C350.48 253.994 346.006 249.52 346 244V243.8C346.11 238.305 350.635 233.928 356.131 234.001C361.627 234.074 366.034 238.569 365.998 244.065C365.962 249.562 361.497 253.999 356 254ZM351 243V245H355V249H357V245H361V243H357V239H355V243H351Z" fill="#2E3A59"/>
<path d="M301 245V251H299V245H293V243H299V237H301V243H307V245H301Z" fill="#2E3A59"/>
<path d="M244 254L249 249H245V239H249L244 234L239 239H243V249H239L244 254Z" fill="#2E3A59"/>
<path d="M183 243V239L178 244L183 249V245H193V249L198 244L193 239V243H183Z" fill="#2E3A59"/>
<path d="M133 243V238H136L132 234L128 238H131V243H126V240L122 244L126 248V245H131V250H128L132 254L136 250H133V245H138V248L142 244L138 240V243H133Z" fill="#2E3A59"/>
<path d="M83 253H69C67.8954 253 67 252.105 67 251V237C67 235.895 67.8954 235 69 235H83C84.1046 235 85 235.895 85 237V251C85 252.105 84.1046 253 83 253ZM69 237V251H83V237H69ZM81 245H71V243H81V245Z" fill="#2E3A59"/>
<path d="M468 198C462.477 198 458 193.523 458 188C458 182.477 462.477 178 468 178C473.523 178 478 182.477 478 188C477.994 193.52 473.52 197.994 468 198ZM460 188.172C460.047 192.573 463.641 196.11 468.043 196.086C472.444 196.062 476 192.487 476 188.086C476 183.685 472.444 180.11 468.043 180.086C463.641 180.062 460.047 183.599 460 188V188.172ZM473 189H463V187H473V189Z" fill="#2E3A59"/>
<path d="M412 198C406.48 197.994 402.006 193.52 402 188V187.8C402.11 182.305 406.635 177.928 412.131 178.001C417.627 178.074 422.034 182.569 421.998 188.065C421.962 193.562 417.497 197.999 412 198ZM407 187V189H417V187H407Z" fill="#2E3A59"/>
<path d="M349 189V187H363V189H349Z" fill="#2E3A59"/>
<path d="M308 194H296V192H308V194ZM294 194H292V192H294V194ZM308 189H296V187H308V189ZM294 189H292V187H294V189ZM308 184H296.023V182H308V184ZM294 184H292V182H294V184Z" fill="#2E3A59"/>
<path d="M251 196H249V193H246V191H249V188H251V191H254V193H251V196ZM244 193H234V191H244V193ZM247 189H234V187H247V189ZM247 185H234V183H247V185Z" fill="#2E3A59"/>
<path d="M182.983 195H180V194H181.989V193.5H180.995V192.5H181.99V192H180V191H182.983V195ZM197 194H185.069V192H197V194ZM182.983 190H180V189.1L181.79 187H180V186H182.983V186.9L181.193 189H182.983V190ZM197 189H185.069V187H197V189ZM182.486 185H181.491V182H180.5V181H182.486V185ZM197 184H185.069V182H197V184Z" fill="#2E3A59"/>
<path d="M142 193H133V191H142V193ZM131 193H122V191H131V193ZM135 189H122V187H135V189ZM135 185H122V183H135V185Z" fill="#2E3A59"/>
<path d="M79 195.411L76.3 192.711L77.714 191.295L79 192.583L84.008 187.583L85.419 189L79 195.41V195.411ZM75 193H66V191H75V193ZM79 189H66V187H79V189ZM79 185H66V183H79V185Z" fill="#2E3A59"/>
<path d="M475.97 141.385L472.614 138.029C471.166 138.688 469.591 139.02 468 139.002C466.36 139.022 464.737 138.668 463.254 137.967C462.105 137.406 461.073 136.632 460.213 135.685C459.3 134.707 458.583 133.563 458.1 132.316L458 132.002L458.105 131.686C458.828 129.842 460.044 128.233 461.621 127.035L459 124.414L460.413 123.002L477.382 139.971L475.972 141.385H475.97ZM463.036 128.451C461.758 129.347 460.749 130.575 460.117 132.002C461.471 135.127 464.596 137.109 468 137.002C469.05 137.011 470.094 136.842 471.087 136.502L469.287 134.702C468.886 134.898 468.446 135.001 468 135.002C466.347 134.992 465.01 133.655 465 132.002C465 131.555 465.103 131.114 465.3 130.712L463.036 128.451ZM475.852 135.612L474.46 134.221C475.046 133.559 475.526 132.81 475.883 132.002C474.53 128.876 471.405 126.893 468 127.002C467.753 127.002 467.505 127.011 467.265 127.028L465.5 125.261C466.322 125.085 467.16 124.998 468 125.002C469.64 124.982 471.263 125.336 472.746 126.037C473.895 126.598 474.927 127.372 475.787 128.319C476.699 129.296 477.416 130.438 477.9 131.684L478 132.002L477.895 132.318C477.427 133.536 476.734 134.655 475.853 135.618L475.852 135.612Z" fill="#2E3A59"/>
<path d="M404.42 140.579C404.139 140.579 403.872 140.46 403.683 140.253C403.49 140.047 403.395 139.77 403.42 139.489L403.665 136.795L414.983 125.481L418.52 129.017L407.205 140.33L404.511 140.575C404.48 140.578 404.449 140.579 404.42 140.579ZM419.226 128.31L415.69 124.774L417.811 122.653C417.999 122.465 418.253 122.36 418.518 122.36C418.784 122.36 419.038 122.465 419.226 122.653L421.347 124.774C421.535 124.962 421.64 125.216 421.64 125.481C421.64 125.747 421.535 126.001 421.347 126.189L419.227 128.309L419.226 128.31Z" fill="#2E3A59"/>
<path d="M358 142H348C347.464 142.019 346.944 141.814 346.565 141.435C346.186 141.056 345.981 140.536 346 140V130C345.981 129.464 346.186 128.944 346.565 128.565C346.944 128.186 347.464 127.981 348 128H352V124C351.981 123.464 352.186 122.944 352.565 122.565C352.944 122.186 353.464 121.981 354 122H364C364.536 121.981 365.056 122.186 365.435 122.565C365.814 122.944 366.019 123.464 366 124V134C366.018 134.536 365.814 135.055 365.434 135.434C365.055 135.814 364.536 136.018 364 136H360V140C360.018 140.536 359.814 141.055 359.434 141.434C359.055 141.814 358.536 142.018 358 142ZM348 130V140H358V136H354C353.464 136.018 352.945 135.814 352.566 135.434C352.187 135.055 351.982 134.536 352 134V130H348ZM354 124V134H364V124H354Z" fill="#2E3A59"/>
<path d="M291 141V125C291 123.895 291.895 123 293 123H307C308.105 123 309 123.895 309 125V135C309 136.105 308.105 137 307 137H297C296.567 136.999 296.146 137.14 295.8 137.4L291 141ZM293 125V137L295.134 135.4C295.48 135.139 295.901 134.999 296.334 135H307V125H293ZM301 133H299V131H297V129H299V127H301V129H303V131H301V133Z" fill="#2E3A59"/>
<path d="M235 141V125C235 123.895 235.895 123 237 123H251C252.105 123 253 123.895 253 125V135C253 136.105 252.105 137 251 137H241C240.567 136.999 240.146 137.14 239.8 137.4L235 141ZM237 125V137L239.134 135.4C239.48 135.139 239.901 134.999 240.334 135H251V125H237ZM247 131H241V129H247V131Z" fill="#2E3A59"/>
<path d="M179 141V125C179 123.895 179.895 123 181 123H195C196.105 123 197 123.895 197 125V135C197 136.105 196.105 137 195 137H185C184.567 136.999 184.146 137.14 183.8 137.4L179 141ZM181 125V137L183.134 135.4C183.48 135.139 183.901 134.999 184.334 135H195V125H181ZM187 133.561L183.293 129.853L184.707 128.44L187 130.733L191.293 126.44L192.707 127.854L187 133.56V133.561Z" fill="#2E3A59"/>
<path d="M123 141V125C123 123.895 123.895 123 125 123H139C140.105 123 141 123.895 141 125V135C141 136.105 140.105 137 139 137H129C128.567 136.999 128.146 137.14 127.8 137.4L123 141ZM125 125V137L127.134 135.4C127.48 135.139 127.901 134.999 128.334 135H139V125H125Z" fill="#2E3A59"/>
<path d="M80 142H68C66.8954 142 66 141.105 66 140V128H68V140H80V142ZM84 138H72C70.8954 138 70 137.105 70 136V124C70 122.895 70.8954 122 72 122H84C85.1046 122 86 122.895 86 124V136C86 137.105 85.1046 138 84 138ZM72 124V136H84V124H72ZM79 134H77V131H74V129H77V126H79V129H82V131H79V134Z" fill="#2E3A59"/>
</g>
<defs>
<filter id="filter0_d" x="0" y="0" width="544" height="440" filterUnits="userSpaceOnUse" color-interpolation-filters="sRGB">
<feFlood flood-opacity="0" result="BackgroundImageFix"/>
<feColorMatrix in="SourceAlpha" type="matrix" values="0 0 0 0 0 0 0 0 0 0 0 0 0 0 0 0 0 0 127 0"/>
<feOffset dy="8"/>
<feGaussianBlur stdDeviation="12"/>
<feColorMatrix type="matrix" values="0 0 0 0 0.0988235 0 0 0 0 0.127007 0 0 0 0 0.219608 0 0 0 0.04 0"/>
<feBlend mode="normal" in2="BackgroundImageFix" result="effect1_dropShadow"/>
<feBlend mode="normal" in="SourceGraphic" in2="effect1_dropShadow" result="shape"/>
</filter>
</defs>
</svg>
