<svg width="544" height="384" viewBox="0 0 544 384" fill="none" xmlns="http://www.w3.org/2000/svg">
<g filter="url(#filter0_d)">
<rect x="24" y="16" width="496" height="336" rx="8" fill="white"/>
<path d="M374 71C372.343 71 371 69.6569 371 68C371 66.3431 372.343 65 374 65C375.657 65 377 66.3431 377 68C377 68.7956 376.684 69.5587 376.121 70.1213C375.559 70.6839 374.796 71 374 71Z" fill="#FF007F"/>
<path d="M386.816 72V63.6H388.352L392.3 69.516V63.6H393.836V72H392.3L388.352 66.096V72H386.816ZM396.464 72V63.6H401.948V64.836H398V67.14H401.588V68.34H398V70.764H401.948V72H396.464ZM406.106 72L403.886 63.6H405.53L407.042 70.284L408.818 63.6H410.51L412.238 70.284L413.75 63.6H415.406L413.126 72H411.302L409.634 65.772L407.918 72H406.106ZM421.379 72V63.6H422.915V72H421.379ZM429.347 72.144C428.499 72.144 427.771 71.964 427.163 71.604C426.555 71.236 426.087 70.728 425.759 70.08C425.431 69.424 425.267 68.668 425.267 67.812C425.267 66.956 425.431 66.2 425.759 65.544C426.087 64.888 426.555 64.376 427.163 64.008C427.771 63.64 428.499 63.456 429.347 63.456C430.355 63.456 431.179 63.708 431.819 64.212C432.467 64.708 432.871 65.408 433.031 66.312H431.339C431.235 65.856 431.011 65.5 430.667 65.244C430.331 64.98 429.883 64.848 429.323 64.848C428.547 64.848 427.939 65.112 427.499 65.64C427.059 66.168 426.839 66.892 426.839 67.812C426.839 68.732 427.059 69.456 427.499 69.984C427.939 70.504 428.547 70.764 429.323 70.764C429.883 70.764 430.331 70.644 430.667 70.404C431.011 70.156 431.235 69.816 431.339 69.384H433.031C432.871 70.248 432.467 70.924 431.819 71.412C431.179 71.9 430.355 72.144 429.347 72.144ZM439.326 72.144C438.486 72.144 437.75 71.96 437.118 71.592C436.494 71.224 436.002 70.716 435.642 70.068C435.29 69.412 435.114 68.656 435.114 67.8C435.114 66.944 435.29 66.192 435.642 65.544C436.002 64.888 436.494 64.376 437.118 64.008C437.75 63.64 438.486 63.456 439.326 63.456C440.158 63.456 440.89 63.64 441.522 64.008C442.154 64.376 442.646 64.888 442.998 65.544C443.35 66.192 443.526 66.944 443.526 67.8C443.526 68.656 443.35 69.412 442.998 70.068C442.646 70.716 442.154 71.224 441.522 71.592C440.89 71.96 440.158 72.144 439.326 72.144ZM439.326 70.764C440.126 70.764 440.762 70.5 441.234 69.972C441.714 69.444 441.954 68.72 441.954 67.8C441.954 66.88 441.714 66.156 441.234 65.628C440.762 65.1 440.126 64.836 439.326 64.836C438.526 64.836 437.886 65.1 437.406 65.628C436.926 66.156 436.686 66.88 436.686 67.8C436.686 68.72 436.926 69.444 437.406 69.972C437.886 70.5 438.526 70.764 439.326 70.764ZM445.882 72V63.6H447.418L451.366 69.516V63.6H452.902V72H451.366L447.418 66.096V72H445.882ZM458.399 72.144C457.783 72.144 457.239 72.04 456.767 71.832C456.295 71.616 455.923 71.312 455.651 70.92C455.379 70.52 455.239 70.036 455.231 69.468H456.851C456.867 69.86 457.007 70.192 457.271 70.464C457.543 70.728 457.915 70.86 458.387 70.86C458.795 70.86 459.119 70.764 459.359 70.572C459.599 70.372 459.719 70.108 459.719 69.78C459.719 69.436 459.611 69.168 459.395 68.976C459.187 68.784 458.907 68.628 458.555 68.508C458.203 68.388 457.827 68.26 457.427 68.124C456.779 67.9 456.283 67.612 455.939 67.26C455.603 66.908 455.435 66.44 455.435 65.856C455.427 65.36 455.543 64.936 455.783 64.584C456.031 64.224 456.367 63.948 456.791 63.756C457.215 63.556 457.703 63.456 458.255 63.456C458.815 63.456 459.307 63.556 459.731 63.756C460.163 63.956 460.499 64.236 460.739 64.596C460.987 64.956 461.119 65.384 461.135 65.88H459.491C459.483 65.584 459.367 65.324 459.143 65.1C458.927 64.868 458.623 64.752 458.231 64.752C457.895 64.744 457.611 64.828 457.379 65.004C457.155 65.172 457.043 65.42 457.043 65.748C457.043 66.028 457.131 66.252 457.307 66.42C457.483 66.58 457.723 66.716 458.027 66.828C458.331 66.94 458.679 67.06 459.071 67.188C459.487 67.332 459.867 67.5 460.211 67.692C460.555 67.884 460.831 68.14 461.039 68.46C461.247 68.772 461.351 69.176 461.351 69.672C461.351 70.112 461.239 70.52 461.015 70.896C460.791 71.272 460.459 71.576 460.019 71.808C459.579 72.032 459.039 72.144 458.399 72.144Z" fill="#8F9BB3"/>
<path d="M65.36 75V61H74.4V63.06H67.92V66.98H73.16V69H67.92V75H65.36ZM76.6956 63.54C76.229 63.54 75.8423 63.4 75.5356 63.12C75.2423 62.84 75.0956 62.4867 75.0956 62.06C75.0956 61.6333 75.2423 61.2867 75.5356 61.02C75.8423 60.74 76.229 60.6 76.6956 60.6C77.1623 60.6 77.5423 60.74 77.8356 61.02C78.1423 61.2867 78.2956 61.6333 78.2956 62.06C78.2956 62.4867 78.1423 62.84 77.8356 63.12C77.5423 63.4 77.1623 63.54 76.6956 63.54ZM75.4156 75V65.08H77.9756V75H75.4156ZM79.6477 75V60.6H82.2077V75H79.6477ZM88.6434 75.24C87.6434 75.24 86.7568 75.0267 85.9834 74.6C85.2101 74.1733 84.6034 73.5733 84.1634 72.8C83.7234 72.0267 83.5034 71.1333 83.5034 70.12C83.5034 69.0933 83.7168 68.18 84.1434 67.38C84.5834 66.58 85.1834 65.96 85.9434 65.52C86.7168 65.0667 87.6234 64.84 88.6634 64.84C89.6368 64.84 90.4968 65.0533 91.2434 65.48C91.9901 65.9067 92.5701 66.4933 92.9834 67.24C93.4101 67.9733 93.6234 68.7933 93.6234 69.7C93.6234 69.8467 93.6168 70 93.6034 70.16C93.6034 70.32 93.5968 70.4867 93.5834 70.66H86.0434C86.0968 71.4333 86.3634 72.04 86.8434 72.48C87.3368 72.92 87.9301 73.14 88.6234 73.14C89.1434 73.14 89.5768 73.0267 89.9234 72.8C90.2834 72.56 90.5501 72.2533 90.7234 71.88H93.3234C93.1368 72.5067 92.8234 73.08 92.3834 73.6C91.9568 74.1067 91.4234 74.5067 90.7834 74.8C90.1568 75.0933 89.4434 75.24 88.6434 75.24ZM88.6634 66.92C88.0368 66.92 87.4834 67.1 87.0034 67.46C86.5234 67.8067 86.2168 68.34 86.0834 69.06H91.0234C90.9834 68.4067 90.7434 67.8867 90.3034 67.5C89.8634 67.1133 89.3168 66.92 88.6634 66.92Z" fill="#2E3A59"/>
<path d="M133 309H125C123.895 309 123 308.105 123 307V293C123 291.895 123.895 291 125 291H139C140.105 291 141 291.895 141 293V301C141 301.012 140.998 301.023 140.994 301.034C140.991 301.043 140.989 301.053 140.988 301.062C140.982 301.15 140.965 301.237 140.937 301.321L140.928 301.348C140.921 301.371 140.913 301.393 140.903 301.414C140.855 301.523 140.787 301.622 140.703 301.707L133.703 308.707C133.516 308.894 133.264 308.999 133 309ZM125 293V307H132V301C132 300.448 132.448 300 133 300H139V293H125ZM134 302V305.587L137.586 302H134Z" fill="#2E3A59"/>
<path d="M84 309H68C66.8954 309 66 308.105 66 307V293C66 291.895 66.8954 291 68 291H74C74.2652 291 74.5195 291.105 74.707 291.293L76.414 293H84C85.1046 293 86 293.895 86 295V307C86 308.105 85.1046 309 84 309ZM68 295V307H84V295H68ZM77 305H75V302H72V300H75V297H77V300H80V302H77V305Z" fill="#2E3A59"/>
<path d="M474 252H459C458.735 252.003 458.479 251.898 458.292 251.71C458.105 251.521 458.002 251.265 458.007 251H458V237C458 235.895 458.895 235 460 235H466C466.223 235 466.44 235.075 466.616 235.213L468.9 237H474C475.105 237 476 237.895 476 239V243H477C477.336 243 477.65 243.169 477.835 243.45C478.02 243.73 478.051 244.085 477.919 244.394L474.919 251.394C474.761 251.762 474.4 252 474 252ZM462.66 245L460.517 250H473.341L475.484 245H462.66ZM460 239V246.13L461.081 243.606C461.239 243.238 461.6 243 462 243H474V239H460Z" fill="#2E3A59"/>
<path d="M420 253H404C402.895 253 402 252.105 402 251V237C402 235.895 402.895 235 404 235H410C410.265 235 410.52 235.105 410.707 235.293L412.414 237H420C421.105 237 422 237.895 422 239V251C422 252.105 421.105 253 420 253ZM404 239V251H420V239H404ZM416 246H408V244H416V246Z" fill="#2E3A59"/>
<path d="M364 253H348C346.895 253 346 252.105 346 251V237C346 235.895 346.895 235 348 235H354C354.265 235 354.52 235.105 354.707 235.293L356.414 237H364C365.105 237 366 237.895 366 239V251C366 252.105 365.105 253 364 253ZM348 239V251H364V239H348Z" fill="#2E3A59"/>
<path d="M306 254H294C292.895 254 292 253.105 292 252V236C292 234.895 292.895 234 294 234H301C301.009 233.999 301.018 233.999 301.027 234H301.033C301.042 234.003 301.052 234.005 301.062 234.006C301.15 234.012 301.237 234.029 301.321 234.057H301.336H301.351H301.363C301.381 234.07 301.399 234.084 301.415 234.1C301.524 234.148 301.623 234.216 301.708 234.3L307.708 240.3C307.792 240.385 307.86 240.484 307.908 240.593C307.917 240.615 307.924 240.636 307.931 240.659L307.941 240.687C307.969 240.77 307.985 240.857 307.99 240.945C307.991 240.955 307.993 240.965 307.997 240.974V240.98C307.999 240.987 308 240.993 308 241V252C308 252.53 307.789 253.039 307.414 253.414C307.039 253.789 306.53 254 306 254ZM303.5 246C303.046 245.976 302.61 246.18 302.339 246.545C302.047 247.006 301.907 247.547 301.939 248.092V248.968C301.911 249.507 302.063 250.039 302.371 250.482C302.661 250.831 303.099 251.023 303.552 251C303.831 251.003 304.109 250.95 304.368 250.846L304.381 250.841L304.365 250.848C304.61 250.747 304.826 250.587 304.995 250.384V248.373H303.486V249.115H304.109V250.008L304.031 250.068C303.904 250.151 303.755 250.192 303.604 250.185C303.366 250.203 303.138 250.087 303.012 249.885C302.873 249.582 302.812 249.249 302.834 248.916V248.033C302.816 247.716 302.872 247.398 303 247.107C303.103 246.916 303.307 246.802 303.523 246.815C303.687 246.802 303.847 246.865 303.958 246.986C304.074 247.176 304.135 247.395 304.133 247.618H305C305.003 247.173 304.853 246.74 304.577 246.391C304.29 246.113 303.898 245.971 303.5 246ZM295 249.4C294.994 249.696 295.063 249.989 295.2 250.252C295.326 250.486 295.517 250.678 295.75 250.807C295.987 250.936 296.253 251.002 296.523 251C296.889 251.019 297.247 250.89 297.517 250.643C297.771 250.377 297.904 250.017 297.883 249.65C297.896 249.309 297.792 248.974 297.59 248.7C297.339 248.411 297.017 248.193 296.656 248.068C296.466 247.99 296.292 247.876 296.143 247.734C296.05 247.634 295.999 247.503 296 247.367C295.992 247.22 296.039 247.075 296.13 246.959C296.221 246.855 296.355 246.798 296.493 246.805C296.641 246.797 296.783 246.866 296.87 246.986C296.967 247.139 297.012 247.319 297 247.5H297.886C297.89 247.23 297.831 246.962 297.714 246.718C297.608 246.497 297.438 246.312 297.227 246.187C297.008 246.06 296.758 245.995 296.505 246C296.136 245.989 295.776 246.123 295.505 246.374C295.24 246.632 295.097 246.99 295.112 247.36C295.106 247.679 295.208 247.99 295.403 248.242C295.661 248.534 295.988 248.758 296.354 248.891C296.54 248.963 296.71 249.071 296.854 249.208C296.955 249.335 297.005 249.495 296.993 249.656C296.993 250.017 296.836 250.2 296.528 250.2C296.346 250.217 296.166 250.146 296.044 250.01C295.931 249.827 295.879 249.613 295.896 249.398L295 249.4ZM298.182 246.068L299.442 250.934H300.367L301.636 246.068H300.645L299.9 249.6L299.163 246.071L298.182 246.068ZM301 236V241H306L301 236Z" fill="#2E3A59"/>
<path d="M250 254H238C236.895 254 236 253.105 236 252V236C236 234.895 236.895 234 238 234H245C245.009 233.999 245.018 233.999 245.027 234H245.033C245.042 234.003 245.052 234.005 245.062 234.006C245.15 234.012 245.237 234.029 245.321 234.057H245.336H245.351H245.363C245.381 234.07 245.399 234.084 245.415 234.1C245.524 234.148 245.623 234.216 245.708 234.3L251.708 240.3C251.792 240.385 251.86 240.484 251.908 240.593C251.917 240.615 251.924 240.636 251.931 240.659L251.941 240.687C251.969 240.77 251.985 240.857 251.99 240.945C251.991 240.955 251.993 240.965 251.997 240.974V240.98C251.999 240.987 252 240.993 252 241V252C252 252.53 251.789 253.039 251.414 253.414C251.039 253.789 250.53 254 250 254ZM247.542 246C247.098 245.977 246.674 246.183 246.416 246.545C246.133 247.009 245.999 247.549 246.032 248.092V248.968C246.004 249.505 246.151 250.036 246.451 250.482C246.728 250.83 247.156 251.023 247.6 251C247.871 251.003 248.141 250.95 248.391 250.846L248.412 250.837C248.642 250.735 248.844 250.579 249 250.382V248.373H247.531V249.115H248.131V250.008L248.055 250.068C247.933 250.15 247.788 250.191 247.641 250.185C247.408 250.201 247.186 250.085 247.066 249.885C246.931 249.581 246.872 249.248 246.893 248.916V248.033C246.877 247.716 246.933 247.4 247.058 247.108C247.154 246.919 247.353 246.805 247.565 246.816C247.725 246.803 247.882 246.866 247.988 246.987C248.101 247.178 248.159 247.397 248.158 247.619H249C249.003 247.176 248.859 246.744 248.59 246.392C248.315 246.115 247.932 245.972 247.543 246H247.542ZM243.284 247.746L244.543 250.933H245.4V246.067H244.545V249.262L243.282 246.067H242.42V250.933H243.282V247.746H243.284ZM239 246.067V250.933H239.862V249.222H240.437C240.825 249.242 241.203 249.091 241.469 248.808C241.731 248.492 241.864 248.088 241.842 247.678C241.86 247.257 241.726 246.844 241.463 246.514C241.214 246.217 240.841 246.052 240.454 246.067H239ZM245 236V241H250L245 236ZM240.454 248.4H239.862V246.885H240.462C240.616 246.887 240.757 246.972 240.832 247.106C240.932 247.282 240.98 247.482 240.97 247.684C240.982 247.872 240.935 248.059 240.835 248.219C240.746 248.339 240.603 248.407 240.454 248.4Z" fill="#2E3A59"/>
<path d="M194 254H182C180.895 254 180 253.105 180 252V236C180 234.895 180.895 234 182 234H189C189.009 233.999 189.018 233.999 189.027 234H189.033C189.042 234.003 189.052 234.005 189.062 234.006C189.15 234.012 189.237 234.029 189.321 234.057H189.336H189.351H189.363C189.381 234.07 189.399 234.084 189.415 234.1C189.524 234.148 189.623 234.216 189.708 234.3L195.708 240.3C195.792 240.385 195.86 240.484 195.908 240.593C195.917 240.615 195.924 240.636 195.931 240.659L195.941 240.687C195.969 240.77 195.985 240.857 195.99 240.945C195.991 240.955 195.993 240.965 195.997 240.974V240.98C195.999 240.987 196 240.993 196 241V252C196 252.53 195.789 253.039 195.414 253.414C195.039 253.789 194.53 254 194 254ZM190.424 246V251H191.364V248.96H192.824V248.122H191.364V246.841H193V246H190.424ZM186.724 246V251H187.93C188.436 251.025 188.926 250.819 189.262 250.44C189.607 250 189.78 249.449 189.748 248.891V248.081C189.771 247.529 189.594 246.987 189.248 246.555C188.923 246.185 188.448 245.981 187.955 246H186.724ZM183 246V251H183.94V249.241H184.566C184.984 249.264 185.392 249.109 185.69 248.815C185.974 248.497 186.121 248.081 186.1 247.655C186.119 247.219 185.971 246.793 185.688 246.461C185.408 246.15 185.003 245.981 184.585 246H183ZM189 236V241H194L189 236ZM187.946 250.162H187.664V246.841H188.006C188.249 246.827 188.482 246.937 188.626 247.133C188.773 247.436 188.835 247.773 188.808 248.109V248.978C188.83 249.298 188.761 249.617 188.608 249.899C188.444 250.09 188.197 250.189 187.946 250.162ZM184.585 248.4H183.939V246.841H184.594C184.758 246.843 184.909 246.929 184.994 247.068C185.102 247.247 185.154 247.453 185.144 247.662C185.157 247.856 185.105 248.05 184.997 248.212C184.898 248.337 184.744 248.407 184.585 248.4Z" fill="#2E3A59"/>
<path d="M138 254H126C124.895 254 124 253.105 124 252V236C124 234.895 124.895 234 126 234H133C133.009 233.999 133.018 233.999 133.027 234H133.033C133.042 234.003 133.052 234.005 133.062 234.006C133.15 234.012 133.237 234.029 133.321 234.057H133.336H133.351H133.363C133.381 234.07 133.399 234.084 133.415 234.1C133.524 234.148 133.623 234.216 133.708 234.3L139.708 240.3C139.792 240.385 139.86 240.484 139.908 240.593C139.917 240.615 139.924 240.636 139.931 240.659V240.673V240.687C139.959 240.77 139.975 240.857 139.98 240.945C139.981 240.955 139.983 240.965 139.987 240.974V240.98C139.992 240.986 139.996 240.993 140 241V252C140 253.105 139.105 254 138 254ZM126 236V252H138V242H133C132.448 242 132 241.552 132 241V236H126ZM134 237.414V240H136.586L134 237.414ZM133 250H131V248H129V246H131V244H133V246H135V248H133V250Z" fill="#2E3A59"/>
<path d="M82 254H70C68.8954 254 68 253.105 68 252V236C68 234.895 68.8954 234 70 234H77C77.0109 234 77.0217 234.002 77.032 234.006C77.0418 234.009 77.0518 234.011 77.062 234.012C77.1502 234.018 77.2373 234.035 77.321 234.063L77.349 234.072C77.3717 234.08 77.3937 234.089 77.415 234.1C77.5239 234.148 77.6232 234.216 77.708 234.3L83.708 240.3C83.7918 240.385 83.8596 240.484 83.908 240.593C83.918 240.615 83.925 240.638 83.933 240.661L83.942 240.687C83.9699 240.77 83.9864 240.857 83.991 240.945C83.9926 240.954 83.9949 240.963 83.998 240.972C83.9998 240.981 84.0004 240.991 84.0001 241V252C84.0001 253.105 83.1046 254 82 254ZM70 236V252H82V242H77C76.4477 242 76 241.552 76 241V236H70ZM78 237.414V240H80.586L78 237.414ZM79 248H73V246H79V248Z" fill="#2E3A59"/>
<path d="M474 198H462C460.895 198 460 197.105 460 196V180C460 178.895 460.895 178 462 178H469C469.009 177.999 469.018 177.999 469.027 178H469.033C469.042 178.003 469.052 178.005 469.062 178.006C469.15 178.012 469.237 178.029 469.321 178.057H469.336H469.351H469.363C469.381 178.07 469.399 178.084 469.415 178.1C469.524 178.148 469.623 178.216 469.708 178.3L475.708 184.3C475.792 184.385 475.86 184.484 475.908 184.593C475.917 184.615 475.924 184.636 475.931 184.659L475.941 184.687C475.969 184.77 475.985 184.857 475.99 184.945C475.991 184.955 475.993 184.965 475.997 184.974V184.98C475.999 184.987 476 184.993 476 185V196C476 196.53 475.789 197.039 475.414 197.414C475.039 197.789 474.53 198 474 198ZM468.116 193.4C468.11 193.696 468.179 193.989 468.316 194.252C468.443 194.485 468.634 194.678 468.866 194.807C469.103 194.936 469.368 195.002 469.638 195C470.004 195.019 470.362 194.89 470.632 194.643C470.887 194.377 471.02 194.018 471 193.65C471.011 193.308 470.905 192.973 470.7 192.7C470.45 192.411 470.129 192.193 469.768 192.068C469.578 191.989 469.403 191.876 469.254 191.734C469.162 191.635 469.11 191.505 469.109 191.37C469.101 191.223 469.147 191.077 469.239 190.962C469.33 190.858 469.463 190.801 469.601 190.808C469.75 190.799 469.892 190.868 469.979 190.989C470.077 191.143 470.123 191.324 470.111 191.506H471C471.004 191.236 470.945 190.968 470.828 190.724C470.722 190.503 470.553 190.318 470.342 190.193C470.124 190.064 469.874 189.997 469.62 190C469.25 189.988 468.891 190.123 468.62 190.374C468.355 190.632 468.212 190.991 468.228 191.36C468.222 191.678 468.324 191.99 468.518 192.242C468.776 192.534 469.103 192.757 469.469 192.891C469.655 192.963 469.825 193.071 469.969 193.208C470.07 193.335 470.12 193.495 470.108 193.656C470.108 194.017 469.951 194.2 469.643 194.2C469.461 194.217 469.282 194.146 469.16 194.01C469.047 193.827 468.995 193.613 469.012 193.398L468.116 193.4ZM465 193.5C464.978 193.895 465.097 194.284 465.335 194.6C465.57 194.871 465.916 195.018 466.274 195C466.63 195.008 466.969 194.85 467.192 194.573C467.442 194.248 467.568 193.845 467.548 193.436V190.067H466.661V193.389C466.661 193.917 466.531 194.189 466.274 194.189C466.017 194.189 465.891 193.957 465.891 193.5H465ZM469 180V185H474L469 180Z" fill="#2E3A59"/>
<path d="M418 198H406C404.895 198 404 197.105 404 196V180C404 178.895 404.895 178 406 178H413C413.009 177.999 413.018 177.999 413.027 178H413.033C413.042 178.003 413.052 178.005 413.062 178.006C413.15 178.012 413.237 178.029 413.321 178.057H413.363C413.381 178.07 413.399 178.084 413.415 178.1C413.524 178.148 413.623 178.216 413.708 178.3L419.708 184.3C419.792 184.385 419.86 184.484 419.908 184.593C419.917 184.615 419.924 184.636 419.931 184.659L419.941 184.687C419.969 184.77 419.985 184.857 419.99 184.945C419.991 184.955 419.993 184.965 419.997 184.974V184.98C419.999 184.987 420 184.993 420 185V196C420 196.53 419.789 197.039 419.414 197.414C419.039 197.789 418.53 198 418 198ZM415.461 190C414.999 189.974 414.555 190.178 414.273 190.545C413.975 191.004 413.833 191.546 413.867 192.092V192.968C413.838 193.508 413.995 194.042 414.31 194.482C414.61 194.833 415.056 195.024 415.517 195C415.803 195.003 416.087 194.951 416.353 194.846H416.361H416.355C416.364 194.841 416.374 194.836 416.384 194.832H416.389L416.405 194.824L416.426 194.814C416.644 194.714 416.838 194.567 416.994 194.384V192.373H415.45V193.115H416.087V194.008L416.007 194.068C415.877 194.151 415.725 194.192 415.571 194.185C415.329 194.204 415.096 194.089 414.964 193.885C414.821 193.583 414.759 193.249 414.781 192.916V192.033C414.764 191.715 414.823 191.398 414.954 191.108C415.062 190.916 415.269 190.803 415.489 190.816C415.656 190.802 415.82 190.865 415.935 190.987C416.054 191.176 416.117 191.395 416.115 191.619H417C417.002 191.172 416.849 190.739 416.567 190.392C416.27 190.113 415.868 189.971 415.461 190ZM407 193.5C406.979 193.896 407.101 194.287 407.344 194.6C407.588 194.872 407.942 195.019 408.307 195C408.669 195.009 409.016 194.851 409.248 194.573C409.503 194.251 409.633 193.847 409.613 193.436V190.067H408.7V193.389C408.7 193.917 408.567 194.189 408.3 194.189C408.033 194.189 407.907 193.957 407.907 193.5H407ZM410.327 190.071V194.937H411.237V193.222H411.844C412.25 193.244 412.646 193.094 412.934 192.808C413.208 192.497 413.348 192.091 413.326 191.678C413.344 191.254 413.201 190.838 412.926 190.514C412.655 190.214 412.265 190.05 411.861 190.067L410.327 190.071ZM413 180V185H418L413 180ZM411.862 192.4H411.237V190.885H411.872C412.032 190.886 412.179 190.969 412.262 191.106C412.367 191.28 412.418 191.481 412.408 191.684C412.42 191.873 412.371 192.061 412.266 192.219C412.169 192.341 412.018 192.409 411.862 192.4Z" fill="#2E3A59"/>
<path d="M362 198H350C348.895 198 348 197.105 348 196V180C348 178.895 348.895 178 350 178H357C357.009 177.999 357.018 177.999 357.027 178H357.033C357.042 178.003 357.052 178.005 357.062 178.006C357.15 178.012 357.237 178.029 357.321 178.057H357.336H357.351H357.363C357.381 178.07 357.399 178.084 357.415 178.1C357.524 178.148 357.623 178.216 357.708 178.3L363.708 184.3C363.792 184.385 363.86 184.484 363.908 184.593C363.917 184.615 363.924 184.636 363.931 184.659L363.941 184.687C363.969 184.77 363.985 184.857 363.99 184.945C363.991 184.955 363.993 184.965 363.997 184.974V184.98C363.999 184.987 364 184.993 364 185V196C364 196.53 363.789 197.039 363.414 197.414C363.039 197.789 362.53 198 362 198ZM353 192L350 196H362L357 189L354 193L353 192ZM352.5 187C351.682 187.001 351.016 187.657 351.002 188.475C350.989 189.293 351.633 189.971 352.451 189.999C353.268 190.027 353.957 189.395 354 188.578V188.868V188.5C354 187.672 353.328 187 352.5 187ZM357 180V185H362L357 180Z" fill="#2E3A59"/>
<path d="M306 198H294C292.895 198 292 197.105 292 196V180C292 178.895 292.895 178 294 178H301C301.009 177.999 301.018 177.999 301.027 178H301.033C301.042 178.003 301.052 178.005 301.062 178.006C301.15 178.012 301.237 178.029 301.321 178.057H301.336H301.351H301.363C301.381 178.07 301.399 178.084 301.415 178.1C301.524 178.148 301.623 178.216 301.708 178.3L307.708 184.3C307.792 184.385 307.86 184.484 307.908 184.593C307.917 184.615 307.924 184.636 307.931 184.659L307.941 184.687C307.969 184.77 307.985 184.857 307.99 184.945C307.991 184.955 307.993 184.965 307.997 184.974V184.98C307.999 184.987 308 184.993 308 185V196C308 196.53 307.789 197.039 307.414 197.414C307.039 197.789 306.53 198 306 198ZM304.261 191V195H306.5V194.33H305.074V191H304.261ZM302.861 192.258L302.787 193.917V195H303.602V191H302.545L301.788 193.894L301.028 191H299.967V195H300.78V193.917L300.7 192.25L301.5 195H302.054L302.861 192.258ZM296.712 191V191.673H297.69V195H298.505V191.673H299.5V191H296.712ZM294.312 193.289H295.512V195H296.322V191H295.512V192.618H294.312V191H293.5V195H294.312V193.289ZM301 180V185H306L301 180Z" fill="#2E3A59"/>
<path d="M250 198H238C236.895 198 236 197.105 236 196V180C236 178.895 236.895 178 238 178H245C245.265 177.999 245.52 178.105 245.707 178.293L251.707 184.293C251.895 184.48 252.001 184.735 252 185V196C252 197.105 251.105 198 250 198ZM238 180V196H248.586L246.02 193.434C245.41 193.802 244.712 193.997 244 194C242.161 194.02 240.54 192.797 240.055 191.023C239.57 189.249 240.343 187.371 241.936 186.453C243.529 185.534 245.542 185.806 246.834 187.115C248.126 188.423 248.372 190.439 247.434 192.02L250 194.588V185.414L244.586 180H238ZM244 188C242.895 188 242 188.895 242 190C242 191.105 242.895 192 244 192C245.105 192 246 191.105 246 190C246 188.895 245.105 188 244 188Z" fill="#2E3A59"/>
<path d="M194 198H182C180.895 198 180 197.105 180 196V180C180 178.895 180.895 178 182 178H189C189.009 177.999 189.018 177.999 189.027 178H189.033C189.042 178.003 189.052 178.005 189.062 178.006C189.15 178.012 189.237 178.029 189.321 178.057H189.336H189.351H189.363C189.381 178.07 189.399 178.084 189.415 178.1C189.524 178.148 189.623 178.216 189.708 178.3L195.708 184.3C195.792 184.385 195.86 184.484 195.908 184.593C195.917 184.615 195.924 184.636 195.931 184.659L195.941 184.687C195.969 184.77 195.985 184.857 195.99 184.945C195.991 184.955 195.993 184.965 195.997 184.974V184.98C195.999 184.987 196 184.993 196 185V196C196 196.53 195.789 197.039 195.414 197.414C195.039 197.789 194.53 198 194 198ZM190.027 193.4C190.019 193.696 190.088 193.99 190.227 194.252C190.359 194.487 190.555 194.68 190.793 194.807C191.039 194.937 191.314 195.003 191.593 195C191.968 195.019 192.335 194.891 192.617 194.643C192.88 194.381 193.019 194.02 193 193.65C193.014 193.307 192.908 192.97 192.7 192.697C192.439 192.407 192.108 192.189 191.738 192.065C191.543 191.987 191.363 191.874 191.209 191.731C191.114 191.633 191.061 191.503 191.06 191.367C191.053 191.219 191.101 191.074 191.194 190.959C191.289 190.854 191.426 190.798 191.567 190.805C191.719 190.797 191.865 190.864 191.956 190.986C192.057 191.139 192.105 191.32 192.093 191.503H193C193.005 191.232 192.944 190.964 192.823 190.721C192.713 190.498 192.539 190.314 192.323 190.19C191.749 189.88 191.043 189.953 190.545 190.374C190.275 190.629 190.129 190.989 190.145 191.36C190.14 191.68 190.246 191.992 190.445 192.242C190.714 192.536 191.051 192.759 191.426 192.891C191.616 192.963 191.79 193.07 191.939 193.208C192.043 193.333 192.094 193.494 192.082 193.656C192.082 194.017 191.921 194.2 191.603 194.2C191.416 194.219 191.231 194.148 191.103 194.01C190.986 193.828 190.932 193.613 190.95 193.398L190.027 193.4ZM186.584 193.4C186.576 193.696 186.645 193.99 186.784 194.252C186.916 194.487 187.112 194.68 187.35 194.807C187.597 194.937 187.871 195.003 188.15 195C188.525 195.019 188.892 194.891 189.174 194.643C189.434 194.38 189.571 194.019 189.55 193.65C189.564 193.307 189.458 192.97 189.25 192.697C188.989 192.407 188.658 192.189 188.288 192.065C188.093 191.987 187.913 191.874 187.759 191.731C187.665 191.633 187.611 191.503 187.61 191.367C187.603 191.219 187.651 191.074 187.744 190.959C187.839 190.854 187.976 190.797 188.118 190.805C188.27 190.797 188.416 190.864 188.507 190.986C188.608 191.139 188.656 191.32 188.644 191.503H189.557C189.561 191.232 189.501 190.964 189.38 190.721C189.269 190.499 189.095 190.314 188.88 190.19C188.653 190.061 188.396 189.996 188.135 190C187.755 189.987 187.385 190.121 187.102 190.374C186.832 190.629 186.686 190.989 186.702 191.36C186.696 191.68 186.802 191.992 187.002 192.242C187.27 192.536 187.607 192.759 187.982 192.891C188.172 192.963 188.347 193.07 188.496 193.208C188.6 193.333 188.651 193.494 188.639 193.656C188.639 194.017 188.478 194.2 188.159 194.2C187.972 194.219 187.787 194.148 187.659 194.01C187.541 193.83 187.485 193.615 187.5 193.4H186.584ZM184.6 190C184.143 189.98 183.704 190.183 183.424 190.545C183.115 190.998 182.966 191.542 183 192.089V192.908C182.966 193.455 183.109 193.999 183.408 194.459C183.689 194.822 184.129 195.024 184.587 195C185.008 195.025 185.42 194.869 185.72 194.573C185.99 194.252 186.141 193.849 186.149 193.43V193.483V193.41V193.4C186.149 193.385 186.149 193.371 186.149 193.356V193.31H185.241C185.252 193.55 185.198 193.788 185.085 194C184.958 194.14 184.772 194.209 184.585 194.187C184.374 194.205 184.172 194.099 184.065 193.916C183.942 193.598 183.891 193.256 183.916 192.916V192C183.901 191.69 183.956 191.38 184.078 191.095C184.182 190.909 184.385 190.8 184.598 190.817C184.786 190.795 184.973 190.87 185.093 191.017C185.205 191.236 185.256 191.48 185.242 191.725H186.16C186.157 191.263 186.003 190.814 185.721 190.448C185.434 190.138 185.022 189.973 184.6 190ZM189 180V185H194L189 180Z" fill="#2E3A59"/>
<path d="M138 198H126C124.895 198 124 197.105 124 196V180C124 178.895 124.895 178 126 178H133C133.011 178 133.022 178.002 133.032 178.006C133.042 178.009 133.052 178.011 133.062 178.012C133.15 178.018 133.237 178.035 133.321 178.063L133.349 178.072C133.372 178.08 133.394 178.089 133.415 178.1C133.524 178.148 133.623 178.216 133.708 178.3L139.708 184.3C139.792 184.385 139.86 184.484 139.908 184.593C139.918 184.615 139.925 184.638 139.933 184.661L139.942 184.687C139.97 184.77 139.986 184.857 139.991 184.945C139.993 184.954 139.995 184.963 139.998 184.972C140 184.981 140 184.991 140 185V196C140 197.105 139.105 198 138 198ZM126 180V196H138V186H133C132.448 186 132 185.552 132 185V180H126ZM134 181.414V184H136.586L134 181.414Z" fill="#2E3A59"/>
<path d="M82 198H70C68.8954 198 68 197.105 68 196V180C68 178.895 68.8954 178 70 178H77C77.009 177.999 77.018 177.999 77.027 178H77.033C77.0424 178.003 77.0522 178.005 77.062 178.006C77.1502 178.012 77.2373 178.029 77.321 178.057H77.336H77.351H77.363C77.3815 178.07 77.3988 178.084 77.415 178.1C77.5239 178.148 77.6232 178.216 77.708 178.3L83.708 184.3C83.7918 184.385 83.8596 184.484 83.908 184.593C83.917 184.615 83.924 184.636 83.931 184.659L83.941 184.687C83.9689 184.77 83.9854 184.857 83.99 184.945C83.9909 184.955 83.9932 184.965 83.997 184.974V184.98C83.9986 184.987 83.9996 184.993 84 185V196C84 196.53 83.7893 197.039 83.4142 197.414C83.0391 197.789 82.5304 198 82 198ZM77 180V185H82L77 180Z" fill="#2E3A59"/>
<path d="M474 142H462C460.895 142 460 141.105 460 140V124C460 122.895 460.895 122 462 122H463V124H465V126H463V128H465V130H463V137H467V132H465V130H467V128H465V126H467V124H465V122H469C469.009 121.999 469.018 121.999 469.027 122H469.033C469.042 122.003 469.052 122.005 469.062 122.006C469.15 122.012 469.237 122.029 469.321 122.057H469.336H469.351H469.363C469.381 122.07 469.399 122.084 469.415 122.1C469.524 122.148 469.623 122.216 469.708 122.3L475.708 128.3C475.792 128.385 475.86 128.484 475.908 128.593C475.917 128.615 475.924 128.636 475.931 128.659L475.941 128.687C475.969 128.77 475.985 128.857 475.99 128.945C475.991 128.955 475.993 128.965 475.997 128.974V128.98C475.999 128.987 476 128.993 476 129V140C476 140.53 475.789 141.039 475.414 141.414C475.039 141.789 474.53 142 474 142ZM469 124V129H474L469 124ZM466 136H464V134H466V136Z" fill="#2E3A59"/>
<g clip-path="url(#clip0)">
<path d="M419 140H406C402.874 140.002 400.271 137.604 400.016 134.489C399.762 131.373 401.942 128.585 405.026 128.079C406.446 125.562 409.11 124.004 412 124C413.802 123.993 415.552 124.601 416.962 125.724C418.346 126.822 419.33 128.345 419.762 130.058C422.346 130.455 424.188 132.776 423.988 135.382C423.788 137.989 421.614 140.001 419 140ZM412 126C409.832 126.003 407.833 127.172 406.768 129.061L406.3 129.9L405.351 130.055C403.301 130.398 401.856 132.254 402.025 134.326C402.194 136.397 403.922 137.994 406 138H419C420.569 138.002 421.874 136.795 421.994 135.231C422.115 133.667 421.01 132.274 419.46 132.035L418.144 131.835L417.822 130.543C417.157 127.87 414.755 125.995 412 126ZM413.45 136H410.55V133H408L412 129L416 133H413.45V136Z" fill="#2E3A59"/>
</g>
<g clip-path="url(#clip1)">
<path d="M363 140H350C346.874 140.002 344.271 137.604 344.016 134.489C343.762 131.373 345.942 128.585 349.026 128.079C350.446 125.562 353.11 124.004 356 124C357.802 123.993 359.552 124.602 360.961 125.724C362.345 126.822 363.329 128.344 363.761 130.057C366.348 130.451 368.193 132.773 367.994 135.382C367.794 137.991 365.617 140.004 363 140ZM356 126C353.832 126.003 351.833 127.172 350.768 129.061L350.3 129.9L349.351 130.055C347.301 130.398 345.856 132.254 346.025 134.326C346.194 136.397 347.922 137.994 350 138H363C364.569 138.002 365.874 136.795 365.994 135.231C366.115 133.667 365.01 132.274 363.46 132.035L362.144 131.835L361.822 130.543C361.157 127.87 358.755 125.995 356 126Z" fill="#2E3A59"/>
</g>
<g clip-path="url(#clip2)">
<path d="M306.97 141.971L305 140H294C290.874 140.002 288.271 137.604 288.016 134.489C287.762 131.373 289.942 128.585 293.026 128.079L293.045 128.045L290 125L291.415 123.586L308.385 140.556L306.971 141.97L306.97 141.971ZM294.813 129.814L293.348 130.053C291.292 130.391 289.84 132.251 290.01 134.327C290.181 136.404 291.917 138.002 294 138H303L294.813 129.814ZM309.8 139.144L308.341 137.686C309.51 137.103 310.167 135.83 309.966 134.539C309.764 133.249 308.751 132.237 307.46 132.037L306.144 131.837L305.822 130.546C305.38 128.777 304.158 127.304 302.5 126.545C300.842 125.785 298.928 125.821 297.3 126.642L295.829 125.173C298.001 123.845 300.676 123.631 303.032 124.595C305.388 125.56 307.144 127.588 307.762 130.058C309.795 130.371 311.43 131.898 311.88 133.905C312.33 135.913 311.505 137.991 309.8 139.143V139.144Z" fill="#2E3A59"/>
</g>
<g clip-path="url(#clip3)">
<path d="M251 140H238C234.874 140.002 232.271 137.604 232.016 134.489C231.762 131.373 233.942 128.585 237.026 128.079C238.446 125.562 241.11 124.004 244 124C245.802 123.993 247.552 124.601 248.962 125.724C250.346 126.822 251.33 128.345 251.762 130.058C254.346 130.455 256.188 132.776 255.988 135.382C255.788 137.989 253.614 140.001 251 140ZM244 126C241.832 126.003 239.833 127.172 238.768 129.061L238.3 129.9L237.351 130.055C235.301 130.398 233.856 132.254 234.025 134.326C234.194 136.397 235.922 137.994 238 138H251C252.569 138.002 253.874 136.795 253.994 135.231C254.115 133.667 253.01 132.274 251.46 132.035L250.144 131.835L249.822 130.543C249.157 127.87 246.755 125.995 244 126ZM244 136L240 132H242.55V129H245.45V132H248L244 136Z" fill="#2E3A59"/>
</g>
<g clip-path="url(#clip4)">
<path d="M195 140H182C178.874 140.002 176.271 137.604 176.016 134.489C175.762 131.373 177.942 128.585 181.026 128.079C182.446 125.562 185.11 124.004 188 124C189.802 123.993 191.552 124.602 192.961 125.724C194.345 126.822 195.329 128.344 195.761 130.057C198.348 130.451 200.193 132.773 199.994 135.382C199.794 137.991 197.617 140.004 195 140ZM188 126C185.832 126.003 183.833 127.172 182.768 129.061L182.3 129.9L181.351 130.055C179.301 130.398 177.856 132.254 178.025 134.326C178.194 136.397 179.922 137.994 182 138H195C196.569 138.002 197.874 136.795 197.994 135.231C198.115 133.667 197.01 132.274 195.46 132.035L194.144 131.835L193.822 130.543C193.157 127.87 190.755 125.995 188 126ZM185.413 136.414L184 135L186.293 132.707L184 130.414L185.414 129L187.707 131.292L190 129L191.414 130.414L189.121 132.707L191.414 135L190 136.413L187.706 134.121L185.414 136.414H185.413Z" fill="#2E3A59"/>
</g>
<g clip-path="url(#clip5)">
<path d="M139 140H126C122.874 140.002 120.271 137.604 120.016 134.489C119.762 131.373 121.942 128.585 125.026 128.079C126.446 125.562 129.11 124.004 132 124C133.802 123.993 135.552 124.601 136.962 125.724C138.346 126.822 139.33 128.345 139.762 130.058C142.346 130.455 144.188 132.776 143.988 135.382C143.788 137.989 141.614 140.001 139 140ZM132 126C129.832 126.003 127.833 127.172 126.768 129.061L126.3 129.9L125.351 130.055C123.301 130.398 121.856 132.254 122.025 134.326C122.194 136.397 123.922 137.994 126 138H139C140.569 138.002 141.874 136.795 141.994 135.231C142.115 133.667 141.01 132.274 139.46 132.035L138.144 131.835L137.822 130.543C137.157 127.87 134.755 125.995 132 126ZM130.528 136.71L127.028 133.21L128.438 131.8L130.528 133.89L135.128 129.29L136.538 130.7L130.529 136.709L130.528 136.71Z" fill="#2E3A59"/>
</g>
<g clip-path="url(#clip6)">
<path d="M64 134C63.9996 131.062 66.1264 128.556 69.025 128.079C70.6298 125.22 73.8164 123.63 77.0657 124.066C80.315 124.502 82.9692 126.877 83.763 130.058C86.3471 130.455 88.189 132.776 87.989 135.383C87.7889 137.989 85.6144 140.002 83 140H70C66.6863 140 64 137.314 64 134Z" fill="#2E3A59"/>
</g>
</g>
<defs>
<filter id="filter0_d" x="0" y="0" width="544" height="384" filterUnits="userSpaceOnUse" color-interpolation-filters="sRGB">
<feFlood flood-opacity="0" result="BackgroundImageFix"/>
<feColorMatrix in="SourceAlpha" type="matrix" values="0 0 0 0 0 0 0 0 0 0 0 0 0 0 0 0 0 0 127 0"/>
<feOffset dy="8"/>
<feGaussianBlur stdDeviation="12"/>
<feColorMatrix type="matrix" values="0 0 0 0 0.0988235 0 0 0 0 0.127007 0 0 0 0 0.219608 0 0 0 0.04 0"/>
<feBlend mode="normal" in2="BackgroundImageFix" result="effect1_dropShadow"/>
<feBlend mode="normal" in="SourceGraphic" in2="effect1_dropShadow" result="shape"/>
</filter>
<clipPath id="clip0">
<rect width="24" height="24" fill="white" transform="translate(400 120)"/>
</clipPath>
<clipPath id="clip1">
<rect width="24" height="24" fill="white" transform="translate(344 120)"/>
</clipPath>
<clipPath id="clip2">
<rect width="24" height="24" fill="white" transform="translate(288 120)"/>
</clipPath>
<clipPath id="clip3">
<rect width="24" height="24" fill="white" transform="translate(232 120)"/>
</clipPath>
<clipPath id="clip4">
<rect width="24" height="24" fill="white" transform="translate(176 120)"/>
</clipPath>
<clipPath id="clip5">
<rect width="24" height="24" fill="white" transform="translate(120 120)"/>
</clipPath>
<clipPath id="clip6">
<rect width="24" height="24" fill="white" transform="translate(64 120)"/>
</clipPath>
</defs>
</svg>
