<svg width="544" height="272" viewBox="0 0 544 272" fill="none" xmlns="http://www.w3.org/2000/svg">
<g filter="url(#filter0_d)">
<rect x="24" y="16" width="496" height="224" rx="8" fill="white"/>
<path d="M71.48 75.24C70.16 75.24 69.0067 74.94 68.02 74.34C67.0333 73.74 66.2667 72.9067 65.72 71.84C65.1733 70.76 64.9 69.5067 64.9 68.08C64.9 66.64 65.18 65.3733 65.74 64.28C66.3133 63.1733 67.12 62.3133 68.16 61.7C69.2133 61.0733 70.46 60.76 71.9 60.76C73.54 60.76 74.9 61.1533 75.98 61.94C77.06 62.7267 77.76 63.8133 78.08 65.2H75.22C75.0067 64.5467 74.62 64.04 74.06 63.68C73.5 63.3067 72.78 63.12 71.9 63.12C70.5 63.12 69.42 63.5667 68.66 64.46C67.9 65.34 67.52 66.5533 67.52 68.1C67.52 69.6467 67.8933 70.8467 68.64 71.7C69.4 72.54 70.4267 72.96 71.72 72.96C72.9867 72.96 73.94 72.62 74.58 71.94C75.2333 71.2467 75.6267 70.34 75.76 69.22H72.22V67.3H78.34V75H75.98L75.78 73.16C75.3267 73.8267 74.76 74.34 74.08 74.7C73.4 75.06 72.5333 75.24 71.48 75.24ZM79.7688 75V65.08H82.0488L82.2888 66.94C82.6488 66.3 83.1354 65.7933 83.7487 65.42C84.3754 65.0333 85.1088 64.84 85.9488 64.84V67.54H85.2288C84.6688 67.54 84.1688 67.6267 83.7288 67.8C83.2888 67.9733 82.9421 68.2733 82.6888 68.7C82.4488 69.1267 82.3288 69.72 82.3288 70.48V75H79.7688ZM88.0784 63.54C87.6118 63.54 87.2251 63.4 86.9184 63.12C86.6251 62.84 86.4784 62.4867 86.4784 62.06C86.4784 61.6333 86.6251 61.2867 86.9184 61.02C87.2251 60.74 87.6118 60.6 88.0784 60.6C88.5451 60.6 88.9251 60.74 89.2184 61.02C89.5251 61.2867 89.6784 61.6333 89.6784 62.06C89.6784 62.4867 89.5251 62.84 89.2184 63.12C88.9251 63.4 88.5451 63.54 88.0784 63.54ZM86.7984 75V65.08H89.3584V75H86.7984ZM95.5905 75.24C94.6571 75.24 93.8238 75.0133 93.0905 74.56C92.3571 74.1067 91.7771 73.4867 91.3505 72.7C90.9238 71.9133 90.7105 71.02 90.7105 70.02C90.7105 69.02 90.9238 68.1333 91.3505 67.36C91.7771 66.5733 92.3571 65.96 93.0905 65.52C93.8238 65.0667 94.6571 64.84 95.5905 64.84C96.3371 64.84 96.9905 64.98 97.5505 65.26C98.1105 65.54 98.5638 65.9333 98.9105 66.44V60.6H101.47V75H99.1905L98.9105 73.58C98.5905 74.02 98.1638 74.4067 97.6305 74.74C97.1105 75.0733 96.4305 75.24 95.5905 75.24ZM96.1305 73C96.9571 73 97.6305 72.7267 98.1505 72.18C98.6838 71.62 98.9505 70.9067 98.9505 70.04C98.9505 69.1733 98.6838 68.4667 98.1505 67.92C97.6305 67.36 96.9571 67.08 96.1305 67.08C95.3171 67.08 94.6438 67.3533 94.1105 67.9C93.5771 68.4467 93.3105 69.1533 93.3105 70.02C93.3105 70.8867 93.5771 71.6 94.1105 72.16C94.6438 72.72 95.3171 73 96.1305 73Z" fill="#2E3A59"/>
<path d="M249 196H245V192H249V196ZM243 196H239V192H243V196ZM249 190H245V186H249V190ZM241 190C239.895 190 239 189.105 239 188C239 186.895 239.895 186 241 186C242.105 186 243 186.895 243 188C243 188.53 242.789 189.039 242.414 189.414C242.039 189.789 241.53 190 241 190ZM249 184H245V180H249V184ZM243 184H239V180H243V184Z" fill="#2E3A59"/>
<path d="M193 196H189V192H193V196ZM187 196H183V192H187V196ZM193 190H189V186H193V190ZM187 190H183V186H187V190ZM193 184H189V180H193V184ZM187 184H183V180H187V184Z" fill="#2E3A59"/>
<path d="M137 193H133V189H137V193ZM131 193H127V189H131V193ZM137 187H133V183H137V187ZM129 187C127.895 187 127 186.105 127 185C127 183.895 127.895 183 129 183C130.105 183 131 183.895 131 185C131 185.53 130.789 186.039 130.414 186.414C130.039 186.789 129.53 187 129 187Z" fill="#2E3A59"/>
<path d="M81 193H77V189H81V193ZM75 193H71V189H75V193ZM81 187H77V183H81V187ZM75 187H71V183H75V187Z" fill="#2E3A59"/>
<path d="M474 140C472.895 140 472 139.105 472 138C472 136.895 472.895 136 474 136C475.105 136 476 136.895 476 138C476 139.105 475.105 140 474 140ZM468 140C466.895 140 466 139.105 466 138C466 136.895 466.895 136 468 136C469.105 136 470 136.895 470 138C470 139.105 469.105 140 468 140ZM462 140C460.895 140 460 139.105 460 138C460 136.895 460.895 136 462 136C463.105 136 464 136.895 464 138C464 139.105 463.105 140 462 140ZM474 134C472.895 134 472 133.105 472 132C472 130.895 472.895 130 474 130C475.105 130 476 130.895 476 132C476 132.53 475.789 133.039 475.414 133.414C475.039 133.789 474.53 134 474 134ZM468 134C466.895 134 466 133.105 466 132C466 130.895 466.895 130 468 130C469.105 130 470 130.895 470 132C470 132.53 469.789 133.039 469.414 133.414C469.039 133.789 468.53 134 468 134ZM462 134C460.895 134 460 133.105 460 132C460 130.895 460.895 130 462 130C463.105 130 464 130.895 464 132C464 132.53 463.789 133.039 463.414 133.414C463.039 133.789 462.53 134 462 134ZM474 128C472.895 128 472 127.105 472 126C472 124.895 472.895 124 474 124C475.105 124 476 124.895 476 126C476 126.53 475.789 127.039 475.414 127.414C475.039 127.789 474.53 128 474 128ZM468 128C466.895 128 466 127.105 466 126C466 124.895 466.895 124 468 124C469.105 124 470 124.895 470 126C470 126.53 469.789 127.039 469.414 127.414C469.039 127.789 468.53 128 468 128ZM462 128C460.895 128 460 127.105 460 126C460 124.895 460.895 124 462 124C463.105 124 464 124.895 464 126C464 126.53 463.789 127.039 463.414 127.414C463.039 127.789 462.53 128 462 128Z" fill="#2E3A59"/>
<path d="M420 137H416V133H420V137ZM414 137H410V133H414V137ZM408 137H404V133H408V137ZM420 131H416V127H420V131ZM412 131C410.895 131 410 130.105 410 129C410 127.895 410.895 127 412 127C413.105 127 414 127.895 414 129C414 129.53 413.789 130.039 413.414 130.414C413.039 130.789 412.53 131 412 131ZM408 131H404V127H408V131Z" fill="#2E3A59"/>
<path d="M364 137H360V133H364V137ZM358 137H354V133H358V137ZM352 137H348V133H352V137ZM364 131H360V127H364V131ZM358 131H354V127H358V131ZM352 131H348V127H352V131Z" fill="#2E3A59"/>
<path d="M304 139C302.787 139 301.693 138.269 301.228 137.148C300.764 136.027 301.021 134.737 301.879 133.879C302.737 133.021 304.027 132.764 305.148 133.228C306.269 133.693 307 134.787 307 136C307 136.796 306.684 137.559 306.121 138.121C305.559 138.684 304.796 139 304 139ZM296 139C294.343 139 293 137.657 293 136C293 134.343 294.343 133 296 133C297.657 133 299 134.343 299 136C299 136.796 298.684 137.559 298.121 138.121C297.559 138.684 296.796 139 296 139ZM304 131C302.343 131 301 129.657 301 128C301 126.343 302.343 125 304 125C305.657 125 307 126.343 307 128C307 129.657 305.657 131 304 131ZM296 131C294.343 131 293 129.657 293 128C293 126.343 294.343 125 296 125C297.657 125 299 126.343 299 128C299 128.796 298.684 129.559 298.121 130.121C297.559 130.684 296.796 131 296 131Z" fill="#2E3A59"/>
<path d="M251 139H245V133H251V139ZM243 139H237V133H243V139ZM251 131H245V125H251V131ZM243 131H237V125H243V131Z" fill="#2E3A59"/>
<path d="M196 140H192V136H196V140ZM190 140H186V136H190V140ZM184 140H180V136H184V140ZM196 134H192V130H196V134ZM190 134H186V130H190V134ZM184 134H180V130H184V134ZM196 128H192V124H196V128ZM190 128H186V124H190V128ZM184 128H180V124H184V128Z" fill="#2E3A59"/>
<path d="M142 140H131V133H142V140ZM129 140H123V133H129V140ZM142 131H123V124H142V131Z" fill="#2E3A59"/>
<path d="M85 141H77V135H85V141ZM75 141H67V131H75V141ZM85 133H77V123H85V133ZM75 129H67V123H75V129Z" fill="#2E3A59"/>
</g>
<defs>
<filter id="filter0_d" x="0" y="0" width="544" height="272" filterUnits="userSpaceOnUse" color-interpolation-filters="sRGB">
<feFlood flood-opacity="0" result="BackgroundImageFix"/>
<feColorMatrix in="SourceAlpha" type="matrix" values="0 0 0 0 0 0 0 0 0 0 0 0 0 0 0 0 0 0 127 0"/>
<feOffset dy="8"/>
<feGaussianBlur stdDeviation="12"/>
<feColorMatrix type="matrix" values="0 0 0 0 0.0988235 0 0 0 0 0.127007 0 0 0 0 0.219608 0 0 0 0.04 0"/>
<feBlend mode="normal" in2="BackgroundImageFix" result="effect1_dropShadow"/>
<feBlend mode="normal" in="SourceGraphic" in2="effect1_dropShadow" result="shape"/>
</filter>
</defs>
</svg>
