<svg width="544" height="272" viewBox="0 0 544 272" fill="none" xmlns="http://www.w3.org/2000/svg">
<g filter="url(#filter0_d)">
<rect x="24" y="16" width="496" height="224" rx="8" fill="white"/>
<path d="M374 71C372.343 71 371 69.6569 371 68C371 66.3431 372.343 65 374 65C375.657 65 377 66.3431 377 68C377 68.7956 376.684 69.5587 376.121 70.1213C375.559 70.6839 374.796 71 374 71Z" fill="#FF007F"/>
<path d="M386.816 72V63.6H388.352L392.3 69.516V63.6H393.836V72H392.3L388.352 66.096V72H386.816ZM396.464 72V63.6H401.948V64.836H398V67.14H401.588V68.34H398V70.764H401.948V72H396.464ZM406.106 72L403.886 63.6H405.53L407.042 70.284L408.818 63.6H410.51L412.238 70.284L413.75 63.6H415.406L413.126 72H411.302L409.634 65.772L407.918 72H406.106ZM421.379 72V63.6H422.915V72H421.379ZM429.347 72.144C428.499 72.144 427.771 71.964 427.163 71.604C426.555 71.236 426.087 70.728 425.759 70.08C425.431 69.424 425.267 68.668 425.267 67.812C425.267 66.956 425.431 66.2 425.759 65.544C426.087 64.888 426.555 64.376 427.163 64.008C427.771 63.64 428.499 63.456 429.347 63.456C430.355 63.456 431.179 63.708 431.819 64.212C432.467 64.708 432.871 65.408 433.031 66.312H431.339C431.235 65.856 431.011 65.5 430.667 65.244C430.331 64.98 429.883 64.848 429.323 64.848C428.547 64.848 427.939 65.112 427.499 65.64C427.059 66.168 426.839 66.892 426.839 67.812C426.839 68.732 427.059 69.456 427.499 69.984C427.939 70.504 428.547 70.764 429.323 70.764C429.883 70.764 430.331 70.644 430.667 70.404C431.011 70.156 431.235 69.816 431.339 69.384H433.031C432.871 70.248 432.467 70.924 431.819 71.412C431.179 71.9 430.355 72.144 429.347 72.144ZM439.326 72.144C438.486 72.144 437.75 71.96 437.118 71.592C436.494 71.224 436.002 70.716 435.642 70.068C435.29 69.412 435.114 68.656 435.114 67.8C435.114 66.944 435.29 66.192 435.642 65.544C436.002 64.888 436.494 64.376 437.118 64.008C437.75 63.64 438.486 63.456 439.326 63.456C440.158 63.456 440.89 63.64 441.522 64.008C442.154 64.376 442.646 64.888 442.998 65.544C443.35 66.192 443.526 66.944 443.526 67.8C443.526 68.656 443.35 69.412 442.998 70.068C442.646 70.716 442.154 71.224 441.522 71.592C440.89 71.96 440.158 72.144 439.326 72.144ZM439.326 70.764C440.126 70.764 440.762 70.5 441.234 69.972C441.714 69.444 441.954 68.72 441.954 67.8C441.954 66.88 441.714 66.156 441.234 65.628C440.762 65.1 440.126 64.836 439.326 64.836C438.526 64.836 437.886 65.1 437.406 65.628C436.926 66.156 436.686 66.88 436.686 67.8C436.686 68.72 436.926 69.444 437.406 69.972C437.886 70.5 438.526 70.764 439.326 70.764ZM445.882 72V63.6H447.418L451.366 69.516V63.6H452.902V72H451.366L447.418 66.096V72H445.882ZM458.399 72.144C457.783 72.144 457.239 72.04 456.767 71.832C456.295 71.616 455.923 71.312 455.651 70.92C455.379 70.52 455.239 70.036 455.231 69.468H456.851C456.867 69.86 457.007 70.192 457.271 70.464C457.543 70.728 457.915 70.86 458.387 70.86C458.795 70.86 459.119 70.764 459.359 70.572C459.599 70.372 459.719 70.108 459.719 69.78C459.719 69.436 459.611 69.168 459.395 68.976C459.187 68.784 458.907 68.628 458.555 68.508C458.203 68.388 457.827 68.26 457.427 68.124C456.779 67.9 456.283 67.612 455.939 67.26C455.603 66.908 455.435 66.44 455.435 65.856C455.427 65.36 455.543 64.936 455.783 64.584C456.031 64.224 456.367 63.948 456.791 63.756C457.215 63.556 457.703 63.456 458.255 63.456C458.815 63.456 459.307 63.556 459.731 63.756C460.163 63.956 460.499 64.236 460.739 64.596C460.987 64.956 461.119 65.384 461.135 65.88H459.491C459.483 65.584 459.367 65.324 459.143 65.1C458.927 64.868 458.623 64.752 458.231 64.752C457.895 64.744 457.611 64.828 457.379 65.004C457.155 65.172 457.043 65.42 457.043 65.748C457.043 66.028 457.131 66.252 457.307 66.42C457.483 66.58 457.723 66.716 458.027 66.828C458.331 66.94 458.679 67.06 459.071 67.188C459.487 67.332 459.867 67.5 460.211 67.692C460.555 67.884 460.831 68.14 461.039 68.46C461.247 68.772 461.351 69.176 461.351 69.672C461.351 70.112 461.239 70.52 461.015 70.896C460.791 71.272 460.459 71.576 460.019 71.808C459.579 72.032 459.039 72.144 458.399 72.144Z" fill="#8F9BB3"/>
<path d="M65.36 75V61H67.92V66.82H74.2V61H76.76V75H74.2V68.9H67.92V75H65.36ZM83.1811 75.24C82.2211 75.24 81.3544 75.02 80.5811 74.58C79.8211 74.14 79.2144 73.5333 78.7611 72.76C78.3211 71.9733 78.1011 71.0667 78.1011 70.04C78.1011 69.0133 78.3278 68.1133 78.7811 67.34C79.2344 66.5533 79.8411 65.94 80.6011 65.5C81.3744 65.06 82.2411 64.84 83.2011 64.84C84.1478 64.84 85.0011 65.06 85.7611 65.5C86.5344 65.94 87.1411 66.5533 87.5811 67.34C88.0344 68.1133 88.2611 69.0133 88.2611 70.04C88.2611 71.0667 88.0344 71.9733 87.5811 72.76C87.1411 73.5333 86.5344 74.14 85.7611 74.58C84.9878 75.02 84.1278 75.24 83.1811 75.24ZM83.1811 73.02C83.8478 73.02 84.4278 72.7733 84.9211 72.28C85.4144 71.7733 85.6611 71.0267 85.6611 70.04C85.6611 69.0533 85.4144 68.3133 84.9211 67.82C84.4278 67.3133 83.8544 67.06 83.2011 67.06C82.5211 67.06 81.9344 67.3133 81.4411 67.82C80.9611 68.3133 80.7211 69.0533 80.7211 70.04C80.7211 71.0267 80.9611 71.7733 81.4411 72.28C81.9344 72.7733 82.5144 73.02 83.1811 73.02ZM89.55 75V65.08H91.81L92.03 66.42C92.35 65.94 92.77 65.56 93.29 65.28C93.8233 64.9867 94.4367 64.84 95.13 64.84C96.6633 64.84 97.75 65.4333 98.39 66.62C98.75 66.0733 99.23 65.64 99.83 65.32C100.443 65 101.11 64.84 101.83 64.84C103.123 64.84 104.117 65.2267 104.81 66C105.503 66.7733 105.85 67.9067 105.85 69.4V75H103.29V69.64C103.29 68.7867 103.123 68.1333 102.79 67.68C102.47 67.2267 101.97 67 101.29 67C100.597 67 100.037 67.2533 99.61 67.76C99.1967 68.2667 98.99 68.9733 98.99 69.88V75H96.43V69.64C96.43 68.7867 96.2633 68.1333 95.93 67.68C95.5967 67.2267 95.0833 67 94.39 67C93.71 67 93.1567 67.2533 92.73 67.76C92.3167 68.2667 92.11 68.9733 92.11 69.88V75H89.55ZM112.1 75.24C111.1 75.24 110.214 75.0267 109.44 74.6C108.667 74.1733 108.06 73.5733 107.62 72.8C107.18 72.0267 106.96 71.1333 106.96 70.12C106.96 69.0933 107.174 68.18 107.6 67.38C108.04 66.58 108.64 65.96 109.4 65.52C110.174 65.0667 111.08 64.84 112.12 64.84C113.094 64.84 113.954 65.0533 114.7 65.48C115.447 65.9067 116.027 66.4933 116.44 67.24C116.867 67.9733 117.08 68.7933 117.08 69.7C117.08 69.8467 117.074 70 117.06 70.16C117.06 70.32 117.054 70.4867 117.04 70.66H109.5C109.554 71.4333 109.82 72.04 110.3 72.48C110.794 72.92 111.387 73.14 112.08 73.14C112.6 73.14 113.034 73.0267 113.38 72.8C113.74 72.56 114.007 72.2533 114.18 71.88H116.78C116.594 72.5067 116.28 73.08 115.84 73.6C115.414 74.1067 114.88 74.5067 114.24 74.8C113.614 75.0933 112.9 75.24 112.1 75.24ZM112.12 66.92C111.494 66.92 110.94 67.1 110.46 67.46C109.98 67.8067 109.674 68.34 109.54 69.06H114.48C114.44 68.4067 114.2 67.8867 113.76 67.5C113.32 67.1133 112.774 66.92 112.12 66.92Z" fill="#2E3A59"/>
<path d="M416 196H405C404.448 196 404 195.552 404 195V187.14C404 186.881 404.101 186.631 404.281 186.445L409.781 180.745C409.969 180.55 410.229 180.439 410.501 180.439C410.772 180.439 411.032 180.55 411.22 180.745L413.356 182.96L411.922 184.354L410.5 182.88L406 187.54V193.995H417V194.995C417.001 195.261 416.897 195.517 416.709 195.705C416.521 195.894 416.266 196 416 196ZM414.342 192L412.929 190.586L415.05 188.464L412.929 186.34L414.343 184.926L416.464 187.047L418.585 184.926L420 186.34L417.879 188.464L420 190.586L418.586 191.999L416.464 189.878L414.343 192H414.342Z" fill="#2E3A59"/>
<path d="M360 196H349C348.448 196 348 195.552 348 195V187.14C348 186.881 348.101 186.631 348.281 186.445L353.781 180.745C353.969 180.55 354.229 180.439 354.501 180.439C354.772 180.439 355.032 180.55 355.22 180.745L356.871 182.458L355.438 183.852L354.5 182.88L350 187.54V193.995H361V194.995C361.001 195.261 360.897 195.517 360.709 195.705C360.521 195.894 360.266 196 360 196ZM361 192H359V189H356V187H359V184H361V187H364V189H361V192Z" fill="#2E3A59"/>
<path d="M307 198H293C292.448 198 292 197.552 292 197V187.414C292 187.149 292.105 186.894 292.293 186.707L299.293 179.707C299.481 179.519 299.735 179.414 300 179.414C300.266 179.414 300.52 179.519 300.708 179.707L307.708 186.707C307.896 186.894 308.001 187.149 308 187.414V197C308 197.552 307.552 198 307 198ZM298 191H302V196H306V187.828L300 181.828L294 187.828V196H298V191Z" fill="#2E3A59"/>
<path d="M248 196H237C236.448 196 236 195.552 236 195V187.14C236 186.881 236.101 186.631 236.281 186.445L241.781 180.745C241.969 180.55 242.229 180.439 242.501 180.439C242.772 180.439 243.032 180.55 243.22 180.745L246.02 183.645L244.59 185.047L242.5 182.88L238 187.54V193.995H249V194.995C249.001 195.261 248.897 195.517 248.709 195.705C248.521 195.894 248.266 196 248 196ZM252 190H244V188H252V190Z" fill="#2E3A59"/>
<path d="M195 198H181C180.448 198 180 197.552 180 197V187.357C180.015 187.112 180.12 186.881 180.293 186.707L187.293 179.707C187.481 179.519 187.735 179.414 188 179.414C188.266 179.414 188.52 179.519 188.708 179.707L195.708 186.707C195.896 186.894 196.001 187.149 196 187.414V197C196 197.552 195.552 198 195 198ZM187.378 193.475C187.598 193.655 187.811 193.831 188 194C188.2 193.823 188.424 193.64 188.662 193.446L188.719 193.399C189.885 192.448 191.337 191.265 191.337 189.799C191.337 189.315 191.142 188.852 190.796 188.514C190.451 188.175 189.984 187.99 189.5 188C188.928 187.998 188.382 188.241 188 188.667C187.618 188.241 187.072 187.998 186.5 188C186.017 187.991 185.55 188.176 185.205 188.515C184.859 188.853 184.665 189.316 184.665 189.8C184.665 191.261 186.105 192.436 187.265 193.38H187.264H187.269L187.287 193.395H187.292L187.3 193.414L187.352 193.457L187.365 193.467H187.371L187.378 193.475Z" fill="#2E3A59"/>
<path d="M139 198H125C124.448 198 124 197.552 124 197V187.357C124.015 187.112 124.12 186.881 124.293 186.707L131.293 179.707C131.481 179.519 131.735 179.414 132 179.414C132.266 179.414 132.52 179.519 132.708 179.707L139.708 186.707C139.896 186.894 140.001 187.149 140 187.414V197C140 197.552 139.552 198 139 198ZM132 181.828L126 187.828V196H138V187.828L132 181.828ZM132 193.999C131.792 193.814 131.557 193.621 131.308 193.417L131.261 193.379C130.104 192.435 128.661 191.26 128.661 189.799C128.661 189.315 128.856 188.851 129.202 188.513C129.548 188.174 130.016 187.99 130.5 188C131.072 187.998 131.618 188.241 132 188.667C132.382 188.241 132.928 187.999 133.5 188C133.983 187.991 134.45 188.176 134.795 188.515C135.141 188.853 135.335 189.316 135.335 189.8C135.335 191.266 133.883 192.449 132.717 193.4L132.66 193.447C132.423 193.641 132.199 193.824 131.999 194.001L132 193.999Z" fill="#2E3A59"/>
<path d="M68.293 186.707L75.293 179.707C75.6835 179.317 76.3165 179.317 76.707 179.707L83.707 186.707C83.8945 186.894 84 187.149 84 187.414V197C84 197.552 83.5523 198 83 198H78V191H74V198H69C68.4477 198 68 197.552 68 197V187.414C68 187.149 68.1055 186.894 68.293 186.707Z" fill="#2E3A59"/>
<path d="M472 140H461C460.448 140 460 139.552 460 139V131.14C460 130.881 460.101 130.631 460.281 130.445L465.781 124.745C465.969 124.55 466.229 124.439 466.501 124.439C466.772 124.439 467.032 124.55 467.22 124.745L470.02 127.645L468.59 129.047L466.5 126.88L462 131.54V137.995H473V138.995C473.001 139.261 472.897 139.517 472.709 139.705C472.521 139.894 472.266 140 472 140ZM470.288 136L467.582 133.3L469 131.882L470.292 133.173L474.592 128.881L476 130.298L470.288 135.998V136Z" fill="#2E3A59"/>
<path d="M419 142H405C404.448 142 404 141.552 404 141V131.357C404.015 131.112 404.12 130.881 404.293 130.707L411.293 123.707C411.481 123.519 411.735 123.414 412 123.414C412.266 123.414 412.52 123.519 412.708 123.707L419.708 130.707C419.896 130.894 420.001 131.149 420 131.414V141C420 141.552 419.552 142 419 142ZM412 125.828L406 131.828V140H418V131.828L412 125.828ZM409.878 138.071L408.465 136.657L410.586 134.536L408.465 132.414L409.879 131L412 133.121L414.121 131L415.535 132.414L413.414 134.535L415.535 136.656L414.122 138.069L412 135.949L409.879 138.071H409.878Z" fill="#2E3A59"/>
<path d="M363 142H349C348.448 142 348 141.552 348 141V131.357C348.015 131.112 348.12 130.881 348.293 130.707L355.293 123.707C355.481 123.519 355.735 123.414 356 123.414C356.266 123.414 356.52 123.519 356.708 123.707L363.708 130.707C363.896 130.894 364.001 131.149 364 131.414V141C364 141.552 363.552 142 363 142ZM356 125.828L350 131.828V140H362V131.828L356 125.828ZM357 137.999H355V134.999H352V132.999H355V129.999H357V132.999H360V134.999H357V137.999Z" fill="#2E3A59"/>
<path d="M307 142H293C292.448 142 292 141.552 292 141V133H290L299.292 123.707C299.48 123.519 299.734 123.414 300 123.414C300.265 123.414 300.519 123.519 300.707 123.707L310 133H308V141C308 141.552 307.552 142 307 142ZM298 135H302V140H306V131.828L300 125.828L294 131.828V140H298V135Z" fill="#2E3A59"/>
<path d="M251 142H237C236.448 142 236 141.552 236 141V131.357C236.015 131.112 236.12 130.881 236.293 130.707L243.293 123.707C243.481 123.519 243.735 123.414 244 123.414C244.266 123.414 244.52 123.519 244.708 123.707L251.708 130.707C251.896 130.894 252.001 131.149 252 131.414V141C252 141.552 251.552 142 251 142ZM244 125.828L238 131.828V140H250V131.828L244 125.828ZM248 136H240V134H248V136Z" fill="#2E3A59"/>
<path d="M178 133L187.293 123.707C187.684 123.317 188.316 123.317 188.707 123.707L198 133H196V141C196 141.552 195.552 142 195 142H190V135H186V142H181C180.448 142 180 141.552 180 141V133H178Z" fill="#2E3A59"/>
<path d="M139 142H125C124.448 142 124 141.552 124 141V131.357C124.015 131.112 124.12 130.881 124.293 130.707L131.293 123.707C131.481 123.519 131.735 123.414 132 123.414C132.266 123.414 132.52 123.519 132.708 123.707L139.708 130.707C139.896 130.894 140.001 131.149 140 131.414V141C140 141.552 139.552 142 139 142ZM132 125.828L126 131.828V140H138V131.828L132 125.828ZM130.5 138.559L127.794 135.859L129.2 134.441L130.5 135.733L134.8 131.441L136.212 132.857L130.5 138.558V138.559Z" fill="#2E3A59"/>
<path d="M84 141H68C67.4477 141 67 140.552 67 140V132.7C67 132.412 67.1243 132.138 67.341 131.948L69 130.5V124C69 123.448 69.4477 123 70 123H84C84.5523 123 85 123.448 85 124V140C85 140.552 84.5523 141 84 141ZM73 127.329C73.2421 127.329 73.4759 127.417 73.658 127.577L78.658 131.952C78.874 132.141 78.9986 132.413 79 132.7V139H83V125H71V128.75L72.341 127.576C72.5235 127.417 72.7577 127.329 73 127.329ZM72 136H74V139H77V133.157L73 129.657L69 133.157V139H72V136Z" fill="#2E3A59"/>
</g>
<defs>
<filter id="filter0_d" x="0" y="0" width="544" height="272" filterUnits="userSpaceOnUse" color-interpolation-filters="sRGB">
<feFlood flood-opacity="0" result="BackgroundImageFix"/>
<feColorMatrix in="SourceAlpha" type="matrix" values="0 0 0 0 0 0 0 0 0 0 0 0 0 0 0 0 0 0 127 0"/>
<feOffset dy="8"/>
<feGaussianBlur stdDeviation="12"/>
<feColorMatrix type="matrix" values="0 0 0 0 0.0988235 0 0 0 0 0.127007 0 0 0 0 0.219608 0 0 0 0.04 0"/>
<feBlend mode="normal" in2="BackgroundImageFix" result="effect1_dropShadow"/>
<feBlend mode="normal" in="SourceGraphic" in2="effect1_dropShadow" result="shape"/>
</filter>
</defs>
</svg>
