<svg width="544" height="272" viewBox="0 0 544 272" fill="none" xmlns="http://www.w3.org/2000/svg">
<g filter="url(#filter0_d)">
<rect x="24" y="16" width="496" height="224" rx="8" fill="white"/>
<path d="M65.36 75V61H68.4L72.86 69.88L77.26 61H80.3V75H77.74V65.34L73.84 73H71.82L67.92 65.34V75H65.36ZM86.7763 75.24C85.7763 75.24 84.8896 75.0267 84.1163 74.6C83.3429 74.1733 82.7363 73.5733 82.2963 72.8C81.8563 72.0267 81.6363 71.1333 81.6363 70.12C81.6363 69.0933 81.8496 68.18 82.2763 67.38C82.7163 66.58 83.3163 65.96 84.0763 65.52C84.8496 65.0667 85.7563 64.84 86.7963 64.84C87.7696 64.84 88.6296 65.0533 89.3763 65.48C90.1229 65.9067 90.7029 66.4933 91.1163 67.24C91.5429 67.9733 91.7563 68.7933 91.7563 69.7C91.7563 69.8467 91.7496 70 91.7363 70.16C91.7363 70.32 91.7296 70.4867 91.7163 70.66H84.1763C84.2296 71.4333 84.4963 72.04 84.9763 72.48C85.4696 72.92 86.0629 73.14 86.7563 73.14C87.2763 73.14 87.7096 73.0267 88.0563 72.8C88.4163 72.56 88.6829 72.2533 88.8563 71.88H91.4563C91.2696 72.5067 90.9563 73.08 90.5163 73.6C90.0896 74.1067 89.5563 74.5067 88.9163 74.8C88.2896 75.0933 87.5763 75.24 86.7763 75.24ZM86.7963 66.92C86.1696 66.92 85.6163 67.1 85.1363 67.46C84.6563 67.8067 84.3496 68.34 84.2163 69.06H89.1563C89.1163 68.4067 88.8763 67.8867 88.4363 67.5C87.9963 67.1133 87.4496 66.92 86.7963 66.92ZM97.4694 75.24C96.536 75.24 95.7027 75.0133 94.9694 74.56C94.236 74.1067 93.656 73.4867 93.2294 72.7C92.8027 71.9133 92.5894 71.02 92.5894 70.02C92.5894 69.02 92.8027 68.1333 93.2294 67.36C93.656 66.5733 94.236 65.96 94.9694 65.52C95.7027 65.0667 96.536 64.84 97.4694 64.84C98.216 64.84 98.8694 64.98 99.4294 65.26C99.9894 65.54 100.443 65.9333 100.789 66.44V60.6H103.349V75H101.069L100.789 73.58C100.469 74.02 100.043 74.4067 99.5094 74.74C98.9894 75.0733 98.3094 75.24 97.4694 75.24ZM98.0094 73C98.836 73 99.5094 72.7267 100.029 72.18C100.563 71.62 100.829 70.9067 100.829 70.04C100.829 69.1733 100.563 68.4667 100.029 67.92C99.5094 67.36 98.836 67.08 98.0094 67.08C97.196 67.08 96.5227 67.3533 95.9894 67.9C95.456 68.4467 95.1894 69.1533 95.1894 70.02C95.1894 70.8867 95.456 71.6 95.9894 72.16C96.5227 72.72 97.196 73 98.0094 73ZM106.336 63.54C105.87 63.54 105.483 63.4 105.176 63.12C104.883 62.84 104.736 62.4867 104.736 62.06C104.736 61.6333 104.883 61.2867 105.176 61.02C105.483 60.74 105.87 60.6 106.336 60.6C106.803 60.6 107.183 60.74 107.476 61.02C107.783 61.2867 107.936 61.6333 107.936 62.06C107.936 62.4867 107.783 62.84 107.476 63.12C107.183 63.4 106.803 63.54 106.336 63.54ZM105.056 75V65.08H107.616V75H105.056ZM112.708 75.24C111.855 75.24 111.155 75.1067 110.608 74.84C110.062 74.56 109.655 74.1933 109.388 73.74C109.122 73.2867 108.988 72.7867 108.988 72.24C108.988 71.32 109.348 70.5733 110.068 70C110.788 69.4267 111.868 69.14 113.308 69.14H115.828V68.9C115.828 68.22 115.635 67.72 115.248 67.4C114.862 67.08 114.382 66.92 113.808 66.92C113.288 66.92 112.835 67.0467 112.448 67.3C112.062 67.54 111.822 67.9 111.728 68.38H109.228C109.295 67.66 109.535 67.0333 109.948 66.5C110.375 65.9667 110.922 65.56 111.588 65.28C112.255 64.9867 113.002 64.84 113.828 64.84C115.242 64.84 116.355 65.1933 117.168 65.9C117.982 66.6067 118.388 67.6067 118.388 68.9V75H116.208L115.968 73.4C115.675 73.9333 115.262 74.3733 114.728 74.72C114.208 75.0667 113.535 75.24 112.708 75.24ZM113.288 73.24C114.022 73.24 114.588 73 114.988 72.52C115.402 72.04 115.662 71.4467 115.768 70.74H113.588C112.908 70.74 112.422 70.8667 112.128 71.12C111.835 71.36 111.688 71.66 111.688 72.02C111.688 72.4067 111.835 72.7067 112.128 72.92C112.422 73.1333 112.808 73.24 113.288 73.24Z" fill="#2E3A59"/>
<path d="M306 194L297.5 188L306 182V194ZM296 194H294V182H296V194Z" fill="#2E3A59"/>
<path d="M250 194H248V182H250V194ZM238 194V182L246.5 188L238 194Z" fill="#2E3A59"/>
<path d="M196 196H190.5L192.549 193.95L189.42 190.82L190.83 189.41L193.96 192.539L196 190.5V196ZM181.41 196L180 194.59L192.54 182.04L190.5 180H196V185.5L193.96 183.46L181.411 196H181.41ZM185.17 186.58L180 181.41L181.41 180L186.59 185.17L185.17 186.579V186.58Z" fill="#2E3A59"/>
<path d="M127 198L123 194L127 190V193H137V189H139V194C139 194.552 138.552 195 138 195H127V198ZM127 187H125V182C125 181.448 125.448 181 126 181H137V178L141 182L137 186V183H127V187Z" fill="#2E3A59"/>
<path d="M76 198C70.4772 198 66 193.523 66 188C66 182.477 70.4772 178 76 178C81.5228 178 86 182.477 86 188C85.9939 193.52 81.5203 197.994 76 198ZM68 188.172C68.0473 192.573 71.6411 196.11 76.0425 196.086C80.444 196.062 83.9995 192.487 83.9995 188.086C83.9995 183.685 80.444 180.11 76.0425 180.086C71.6411 180.062 68.0473 183.599 68 188V188.172ZM74 192.5V183.5L80 188L74 192.5Z" fill="#2E3A59"/>
<path d="M468 142C462.48 141.994 458.006 137.52 458 132V131.8C458.11 126.305 462.635 121.928 468.131 122.001C473.627 122.074 478.034 126.569 477.998 132.065C477.962 137.562 473.497 141.999 468 142ZM466 127.5V136.5L472 132L466 127.5Z" fill="#2E3A59"/>
<path d="M408 139L419 132L408 125V139Z" fill="#2E3A59"/>
<path d="M356 142C350.48 141.994 346.006 137.52 346 132V131.8C346.11 126.305 350.635 121.928 356.131 122.001C361.627 122.074 366.034 126.569 365.998 132.065C365.962 137.562 361.497 141.999 356 142ZM355.984 140H356C360.417 139.996 363.994 136.413 363.992 131.996C363.99 127.579 360.409 124 355.992 124C351.575 124 347.994 127.579 347.992 131.996C347.99 136.413 351.567 139.996 355.984 140ZM359 136H357V128H359V136ZM355 136H353V128H355V136Z" fill="#2E3A59"/>
<path d="M300 142C294.477 142 290 137.523 290 132C290 126.477 294.477 122 300 122C305.523 122 310 126.477 310 132C309.994 137.52 305.52 141.994 300 142ZM301 128V136H303V128H301ZM297 128V136H299V128H297Z" fill="#2E3A59"/>
<path d="M252 138L243.5 132L252 126V138ZM243 138L234.5 132L243 126V138Z" fill="#2E3A59"/>
<path d="M189 138V126L197.5 132L189 138ZM180 138V126L188.5 132L180 138Z" fill="#2E3A59"/>
<path d="M141 141H134V139H141V125H123V128H121V125C121 123.895 121.895 123 123 123H141C142.105 123 143 123.895 143 125V139C143 140.105 142.105 141 141 141ZM132 141H130C130.005 138.612 129.055 136.322 127.361 134.639C125.678 132.945 123.388 131.995 121 132V130C123.918 129.992 126.718 131.152 128.776 133.22C130.847 135.278 132.008 138.08 132 141ZM128 141H126C126.003 139.674 125.475 138.401 124.534 137.466C123.599 136.525 122.327 135.997 121 136V134C122.858 133.994 124.641 134.732 125.951 136.049C127.268 137.36 128.006 139.142 128 141ZM124 141H121V138C122.657 138 124 139.343 124 141Z" fill="#2E3A59"/>
<path d="M82 142H70L76 136L82 142ZM71 139H67C65.8954 139 65 138.105 65 137V125C65 123.895 65.8954 123 67 123H85C86.1046 123 87 123.895 87 125V137C87 138.105 86.1046 139 85 139H81V137H85V125H67V137H71V139Z" fill="#2E3A59"/>
</g>
<defs>
<filter id="filter0_d" x="0" y="0" width="544" height="272" filterUnits="userSpaceOnUse" color-interpolation-filters="sRGB">
<feFlood flood-opacity="0" result="BackgroundImageFix"/>
<feColorMatrix in="SourceAlpha" type="matrix" values="0 0 0 0 0 0 0 0 0 0 0 0 0 0 0 0 0 0 127 0"/>
<feOffset dy="8"/>
<feGaussianBlur stdDeviation="12"/>
<feColorMatrix type="matrix" values="0 0 0 0 0.0988235 0 0 0 0 0.127007 0 0 0 0 0.219608 0 0 0 0.04 0"/>
<feBlend mode="normal" in2="BackgroundImageFix" result="effect1_dropShadow"/>
<feBlend mode="normal" in="SourceGraphic" in2="effect1_dropShadow" result="shape"/>
</filter>
</defs>
</svg>
