<svg width="544" height="272" viewBox="0 0 544 272" fill="none" xmlns="http://www.w3.org/2000/svg">
<g filter="url(#filter0_d)">
<rect x="24" y="16" width="496" height="224" rx="8" fill="white"/>
<path d="M65.36 75V61H68.4L72.86 69.88L77.26 61H80.3V75H77.74V65.34L73.84 73H71.82L67.92 65.34V75H65.36ZM86.7763 75.24C85.7763 75.24 84.8896 75.0267 84.1163 74.6C83.3429 74.1733 82.7363 73.5733 82.2963 72.8C81.8563 72.0267 81.6363 71.1333 81.6363 70.12C81.6363 69.0933 81.8496 68.18 82.2763 67.38C82.7163 66.58 83.3163 65.96 84.0763 65.52C84.8496 65.0667 85.7563 64.84 86.7963 64.84C87.7696 64.84 88.6296 65.0533 89.3763 65.48C90.1229 65.9067 90.7029 66.4933 91.1163 67.24C91.5429 67.9733 91.7563 68.7933 91.7563 69.7C91.7563 69.8467 91.7496 70 91.7363 70.16C91.7363 70.32 91.7296 70.4867 91.7163 70.66H84.1763C84.2296 71.4333 84.4963 72.04 84.9763 72.48C85.4696 72.92 86.0629 73.14 86.7563 73.14C87.2763 73.14 87.7096 73.0267 88.0563 72.8C88.4163 72.56 88.6829 72.2533 88.8563 71.88H91.4563C91.2696 72.5067 90.9563 73.08 90.5163 73.6C90.0896 74.1067 89.5563 74.5067 88.9163 74.8C88.2896 75.0933 87.5763 75.24 86.7763 75.24ZM86.7963 66.92C86.1696 66.92 85.6163 67.1 85.1363 67.46C84.6563 67.8067 84.3496 68.34 84.2163 69.06H89.1563C89.1163 68.4067 88.8763 67.8867 88.4363 67.5C87.9963 67.1133 87.4496 66.92 86.7963 66.92ZM92.9094 75V65.08H95.1694L95.3694 66.76C95.676 66.1733 96.116 65.7067 96.6894 65.36C97.276 65.0133 97.9627 64.84 98.7494 64.84C99.976 64.84 100.929 65.2267 101.609 66C102.289 66.7733 102.629 67.9067 102.629 69.4V75H100.069V69.64C100.069 68.7867 99.896 68.1333 99.5494 67.68C99.2027 67.2267 98.6627 67 97.9294 67C97.2094 67 96.616 67.2533 96.1494 67.76C95.696 68.2667 95.4694 68.9733 95.4694 69.88V75H92.9094ZM107.797 75.24C106.557 75.24 105.597 74.8533 104.917 74.08C104.251 73.3067 103.917 72.1733 103.917 70.68V65.08H106.457V70.44C106.457 71.2933 106.631 71.9467 106.977 72.4C107.324 72.8533 107.871 73.08 108.617 73.08C109.324 73.08 109.904 72.8267 110.357 72.32C110.824 71.8133 111.057 71.1067 111.057 70.2V65.08H113.617V75H111.357L111.157 73.32C110.851 73.9067 110.404 74.3733 109.817 74.72C109.244 75.0667 108.571 75.24 107.797 75.24Z" fill="#2E3A59"/>
<path d="M188 196C186.895 196 186 195.105 186 194C186 192.895 186.895 192 188 192C189.105 192 190 192.895 190 194C190 195.105 189.105 196 188 196ZM188 190C186.895 190 186 189.105 186 188C186 186.895 186.895 186 188 186C189.105 186 190 186.895 190 188C190 188.53 189.789 189.039 189.414 189.414C189.039 189.789 188.53 190 188 190ZM188 184C186.895 184 186 183.105 186 182C186 180.895 186.895 180 188 180C189.105 180 190 180.895 190 182C190 182.53 189.789 183.039 189.414 183.414C189.039 183.789 188.53 184 188 184Z" fill="#2E3A59"/>
<path d="M138 190C136.895 190 136 189.105 136 188C136 186.895 136.895 186 138 186C139.105 186 140 186.895 140 188C140 188.53 139.789 189.039 139.414 189.414C139.039 189.789 138.53 190 138 190ZM132 190C130.895 190 130 189.105 130 188C130 186.895 130.895 186 132 186C133.105 186 134 186.895 134 188C134 188.53 133.789 189.039 133.414 189.414C133.039 189.789 132.53 190 132 190ZM126 190C124.895 190 124 189.105 124 188C124 186.895 124.895 186 126 186C127.105 186 128 186.895 128 188C128 188.53 127.789 189.039 127.414 189.414C127.039 189.789 126.53 190 126 190Z" fill="#2E3A59"/>
<path d="M85 192H67V190H85V192ZM85 186H67V184H85V186Z" fill="#2E3A59"/>
<path d="M468 138H459V136H468V138ZM477 133H459V131H477V133ZM477 128H468V126H477V128Z" fill="#2E3A59"/>
<path d="M421 138H403V136H421V138ZM421 133H403V131H421V133ZM421 128H412V126H421V128Z" fill="#2E3A59"/>
<path d="M359 138H347V136H359V138ZM365 133H347V131H365V133ZM359 128H347V126H359V128Z" fill="#2E3A59"/>
<path d="M309 138H297V136H309V138ZM309 133H291V131H309V133ZM309 128H297V126H309V128Z" fill="#2E3A59"/>
<path d="M253 138H244V136H253V138ZM253 133H235V131H253V133ZM253 128H235V126H253V128Z" fill="#2E3A59"/>
<path d="M197 138H179V136H197V138ZM197 133H179V131H197V133ZM197 128H179V126H197V128Z" fill="#2E3A59"/>
<path d="M135.59 127L132 130.59L128.41 127L127 128.41L130.59 132L127 135.59L128.41 137L132 133.41L135.59 137L137 135.59L133.41 132L137 128.41L135.59 127Z" fill="#2E3A59"/>
<path d="M81.59 125L76 130.59L70.41 125L69 126.41L74.59 132L69 137.59L70.41 139L76 133.41L81.59 139L83 137.59L77.41 132L83 126.41L81.59 125Z" fill="#2E3A59"/>
</g>
<defs>
<filter id="filter0_d" x="0" y="0" width="544" height="272" filterUnits="userSpaceOnUse" color-interpolation-filters="sRGB">
<feFlood flood-opacity="0" result="BackgroundImageFix"/>
<feColorMatrix in="SourceAlpha" type="matrix" values="0 0 0 0 0 0 0 0 0 0 0 0 0 0 0 0 0 0 127 0"/>
<feOffset dy="8"/>
<feGaussianBlur stdDeviation="12"/>
<feColorMatrix type="matrix" values="0 0 0 0 0.0988235 0 0 0 0 0.127007 0 0 0 0 0.219608 0 0 0 0.04 0"/>
<feBlend mode="normal" in2="BackgroundImageFix" result="effect1_dropShadow"/>
<feBlend mode="normal" in="SourceGraphic" in2="effect1_dropShadow" result="shape"/>
</filter>
</defs>
</svg>
