<svg width="544" height="272" viewBox="0 0 544 272" fill="none" xmlns="http://www.w3.org/2000/svg">
<g filter="url(#filter0_d)">
<rect x="24" y="16" width="496" height="224" rx="8" fill="white"/>
<path d="M374 71C372.343 71 371 69.6569 371 68C371 66.3431 372.343 65 374 65C375.657 65 377 66.3431 377 68C377 68.7956 376.684 69.5587 376.121 70.1213C375.559 70.6839 374.796 71 374 71Z" fill="#FF007F"/>
<path d="M386.816 72V63.6H388.352L392.3 69.516V63.6H393.836V72H392.3L388.352 66.096V72H386.816ZM396.464 72V63.6H401.948V64.836H398V67.14H401.588V68.34H398V70.764H401.948V72H396.464ZM406.106 72L403.886 63.6H405.53L407.042 70.284L408.818 63.6H410.51L412.238 70.284L413.75 63.6H415.406L413.126 72H411.302L409.634 65.772L407.918 72H406.106ZM421.379 72V63.6H422.915V72H421.379ZM429.347 72.144C428.499 72.144 427.771 71.964 427.163 71.604C426.555 71.236 426.087 70.728 425.759 70.08C425.431 69.424 425.267 68.668 425.267 67.812C425.267 66.956 425.431 66.2 425.759 65.544C426.087 64.888 426.555 64.376 427.163 64.008C427.771 63.64 428.499 63.456 429.347 63.456C430.355 63.456 431.179 63.708 431.819 64.212C432.467 64.708 432.871 65.408 433.031 66.312H431.339C431.235 65.856 431.011 65.5 430.667 65.244C430.331 64.98 429.883 64.848 429.323 64.848C428.547 64.848 427.939 65.112 427.499 65.64C427.059 66.168 426.839 66.892 426.839 67.812C426.839 68.732 427.059 69.456 427.499 69.984C427.939 70.504 428.547 70.764 429.323 70.764C429.883 70.764 430.331 70.644 430.667 70.404C431.011 70.156 431.235 69.816 431.339 69.384H433.031C432.871 70.248 432.467 70.924 431.819 71.412C431.179 71.9 430.355 72.144 429.347 72.144ZM439.326 72.144C438.486 72.144 437.75 71.96 437.118 71.592C436.494 71.224 436.002 70.716 435.642 70.068C435.29 69.412 435.114 68.656 435.114 67.8C435.114 66.944 435.29 66.192 435.642 65.544C436.002 64.888 436.494 64.376 437.118 64.008C437.75 63.64 438.486 63.456 439.326 63.456C440.158 63.456 440.89 63.64 441.522 64.008C442.154 64.376 442.646 64.888 442.998 65.544C443.35 66.192 443.526 66.944 443.526 67.8C443.526 68.656 443.35 69.412 442.998 70.068C442.646 70.716 442.154 71.224 441.522 71.592C440.89 71.96 440.158 72.144 439.326 72.144ZM439.326 70.764C440.126 70.764 440.762 70.5 441.234 69.972C441.714 69.444 441.954 68.72 441.954 67.8C441.954 66.88 441.714 66.156 441.234 65.628C440.762 65.1 440.126 64.836 439.326 64.836C438.526 64.836 437.886 65.1 437.406 65.628C436.926 66.156 436.686 66.88 436.686 67.8C436.686 68.72 436.926 69.444 437.406 69.972C437.886 70.5 438.526 70.764 439.326 70.764ZM445.882 72V63.6H447.418L451.366 69.516V63.6H452.902V72H451.366L447.418 66.096V72H445.882ZM458.399 72.144C457.783 72.144 457.239 72.04 456.767 71.832C456.295 71.616 455.923 71.312 455.651 70.92C455.379 70.52 455.239 70.036 455.231 69.468H456.851C456.867 69.86 457.007 70.192 457.271 70.464C457.543 70.728 457.915 70.86 458.387 70.86C458.795 70.86 459.119 70.764 459.359 70.572C459.599 70.372 459.719 70.108 459.719 69.78C459.719 69.436 459.611 69.168 459.395 68.976C459.187 68.784 458.907 68.628 458.555 68.508C458.203 68.388 457.827 68.26 457.427 68.124C456.779 67.9 456.283 67.612 455.939 67.26C455.603 66.908 455.435 66.44 455.435 65.856C455.427 65.36 455.543 64.936 455.783 64.584C456.031 64.224 456.367 63.948 456.791 63.756C457.215 63.556 457.703 63.456 458.255 63.456C458.815 63.456 459.307 63.556 459.731 63.756C460.163 63.956 460.499 64.236 460.739 64.596C460.987 64.956 461.119 65.384 461.135 65.88H459.491C459.483 65.584 459.367 65.324 459.143 65.1C458.927 64.868 458.623 64.752 458.231 64.752C457.895 64.744 457.611 64.828 457.379 65.004C457.155 65.172 457.043 65.42 457.043 65.748C457.043 66.028 457.131 66.252 457.307 66.42C457.483 66.58 457.723 66.716 458.027 66.828C458.331 66.94 458.679 67.06 459.071 67.188C459.487 67.332 459.867 67.5 460.211 67.692C460.555 67.884 460.831 68.14 461.039 68.46C461.247 68.772 461.351 69.176 461.351 69.672C461.351 70.112 461.239 70.52 461.015 70.896C460.791 71.272 460.459 71.576 460.019 71.808C459.579 72.032 459.039 72.144 458.399 72.144Z" fill="#8F9BB3"/>
<path d="M65.36 75V61H68.4L72.86 69.88L77.26 61H80.3V75H77.74V65.34L73.84 73H71.82L67.92 65.34V75H65.36ZM83.3363 63.54C82.8696 63.54 82.4829 63.4 82.1763 63.12C81.8829 62.84 81.7363 62.4867 81.7363 62.06C81.7363 61.6333 81.8829 61.2867 82.1763 61.02C82.4829 60.74 82.8696 60.6 83.3363 60.6C83.8029 60.6 84.1829 60.74 84.4763 61.02C84.7829 61.2867 84.9363 61.6333 84.9363 62.06C84.9363 62.4867 84.7829 62.84 84.4763 63.12C84.1829 63.4 83.8029 63.54 83.3363 63.54ZM82.0563 75V65.08H84.6163V75H82.0563ZM90.3883 75.24C89.5083 75.24 88.7349 75.1 88.0683 74.82C87.4016 74.5267 86.8683 74.1267 86.4683 73.62C86.0683 73.1133 85.8283 72.5267 85.7483 71.86H88.3283C88.4083 72.2467 88.6216 72.58 88.9683 72.86C89.3283 73.1267 89.7883 73.26 90.3483 73.26C90.9083 73.26 91.3149 73.1467 91.5683 72.92C91.8349 72.6933 91.9683 72.4333 91.9683 72.14C91.9683 71.7133 91.7816 71.4267 91.4083 71.28C91.0349 71.12 90.5149 70.9667 89.8483 70.82C89.4216 70.7267 88.9883 70.6133 88.5483 70.48C88.1083 70.3467 87.7016 70.18 87.3283 69.98C86.9683 69.7667 86.6749 69.5 86.4483 69.18C86.2216 68.8467 86.1083 68.44 86.1083 67.96C86.1083 67.08 86.4549 66.34 87.1483 65.74C87.8549 65.14 88.8416 64.84 90.1083 64.84C91.2816 64.84 92.2149 65.1133 92.9083 65.66C93.6149 66.2067 94.0349 66.96 94.1683 67.92H91.7483C91.6016 67.1867 91.0483 66.82 90.0883 66.82C89.6083 66.82 89.2349 66.9133 88.9683 67.1C88.7149 67.2867 88.5883 67.52 88.5883 67.8C88.5883 68.0933 88.7816 68.3267 89.1683 68.5C89.5549 68.6733 90.0683 68.8333 90.7083 68.98C91.4016 69.14 92.0349 69.32 92.6083 69.52C93.1949 69.7067 93.6616 69.9933 94.0083 70.38C94.3549 70.7533 94.5283 71.2933 94.5283 72C94.5416 72.6133 94.3816 73.1667 94.0483 73.66C93.7149 74.1533 93.2349 74.54 92.6083 74.82C91.9816 75.1 91.2416 75.24 90.3883 75.24ZM100.656 75.24C99.6428 75.24 98.7494 75.02 97.9761 74.58C97.2028 74.14 96.5894 73.5267 96.1361 72.74C95.6961 71.9533 95.4761 71.0533 95.4761 70.04C95.4761 69.0267 95.6961 68.1267 96.1361 67.34C96.5894 66.5533 97.2028 65.94 97.9761 65.5C98.7494 65.06 99.6428 64.84 100.656 64.84C101.923 64.84 102.989 65.1733 103.856 65.84C104.723 66.4933 105.276 67.4 105.516 68.56H102.816C102.683 68.08 102.416 67.7067 102.016 67.44C101.629 67.16 101.169 67.02 100.636 67.02C99.9294 67.02 99.3294 67.2867 98.8361 67.82C98.3428 68.3533 98.0961 69.0933 98.0961 70.04C98.0961 70.9867 98.3428 71.7267 98.8361 72.26C99.3294 72.7933 99.9294 73.06 100.636 73.06C101.169 73.06 101.629 72.9267 102.016 72.66C102.416 72.3933 102.683 72.0133 102.816 71.52H105.516C105.276 72.64 104.723 73.54 103.856 74.22C102.989 74.9 101.923 75.24 100.656 75.24Z" fill="#2E3A59"/>
<path d="M133 178H131V198H133V178Z" fill="#2E3A59"/>
<path d="M77 186H75V190H77V186Z" fill="#2E3A59"/>
<path d="M469 128H467V136H469V128Z" fill="#2E3A59"/>
<path d="M413 126H411V138H413V126Z" fill="#2E3A59"/>
<path d="M357 124H355V140H357V124Z" fill="#2E3A59"/>
<path d="M300 138C296.686 138 294 135.314 294 132C294 128.686 296.686 126 300 126C303.314 126 306 128.686 306 132C306 133.591 305.368 135.117 304.243 136.243C303.117 137.368 301.591 138 300 138Z" fill="#2E3A59"/>
<path d="M244 137C241.239 137 239 134.761 239 132C239 129.239 241.239 127 244 127C246.761 127 249 129.239 249 132C249 134.761 246.761 137 244 137Z" fill="#2E3A59"/>
<path d="M188 136C185.791 136 184 134.209 184 132C184 129.791 185.791 128 188 128C190.209 128 192 129.791 192 132C192 133.061 191.579 134.078 190.828 134.828C190.078 135.579 189.061 136 188 136Z" fill="#2E3A59"/>
<path d="M132 135C130.343 135 129 133.657 129 132C129 130.343 130.343 129 132 129C133.657 129 135 130.343 135 132C135 132.796 134.684 133.559 134.121 134.121C133.559 134.684 132.796 135 132 135Z" fill="#2E3A59"/>
<path d="M76 134C74.8954 134 74 133.105 74 132C74 130.895 74.8954 130 76 130C77.1046 130 78 130.895 78 132C78 132.53 77.7893 133.039 77.4142 133.414C77.0391 133.789 76.5304 134 76 134Z" fill="#2E3A59"/>
</g>
<defs>
<filter id="filter0_d" x="0" y="0" width="544" height="272" filterUnits="userSpaceOnUse" color-interpolation-filters="sRGB">
<feFlood flood-opacity="0" result="BackgroundImageFix"/>
<feColorMatrix in="SourceAlpha" type="matrix" values="0 0 0 0 0 0 0 0 0 0 0 0 0 0 0 0 0 0 127 0"/>
<feOffset dy="8"/>
<feGaussianBlur stdDeviation="12"/>
<feColorMatrix type="matrix" values="0 0 0 0 0.0988235 0 0 0 0 0.127007 0 0 0 0 0.219608 0 0 0 0.04 0"/>
<feBlend mode="normal" in2="BackgroundImageFix" result="effect1_dropShadow"/>
<feBlend mode="normal" in="SourceGraphic" in2="effect1_dropShadow" result="shape"/>
</filter>
</defs>
</svg>
