<svg width="544" height="272" viewBox="0 0 544 272" fill="none" xmlns="http://www.w3.org/2000/svg">
<g filter="url(#filter0_d)">
<rect x="24" y="16" width="496" height="224" rx="8" fill="white"/>
<path d="M65.36 75V61H67.92L74.5 70.86V61H77.06V75H74.5L67.92 65.16V75H65.36ZM83.4741 75.24C82.5141 75.24 81.6474 75.02 80.8741 74.58C80.1141 74.14 79.5074 73.5333 79.0541 72.76C78.6141 71.9733 78.3941 71.0667 78.3941 70.04C78.3941 69.0133 78.6207 68.1133 79.0741 67.34C79.5274 66.5533 80.1341 65.94 80.8941 65.5C81.6674 65.06 82.5341 64.84 83.4941 64.84C84.4407 64.84 85.2941 65.06 86.0541 65.5C86.8274 65.94 87.4341 66.5533 87.8741 67.34C88.3274 68.1133 88.5541 69.0133 88.5541 70.04C88.5541 71.0667 88.3274 71.9733 87.8741 72.76C87.4341 73.5333 86.8274 74.14 86.0541 74.58C85.2807 75.02 84.4207 75.24 83.4741 75.24ZM83.4741 73.02C84.1407 73.02 84.7207 72.7733 85.2141 72.28C85.7074 71.7733 85.9541 71.0267 85.9541 70.04C85.9541 69.0533 85.7074 68.3133 85.2141 67.82C84.7207 67.3133 84.1474 67.06 83.4941 67.06C82.8141 67.06 82.2274 67.3133 81.7341 67.82C81.2541 68.3133 81.0141 69.0533 81.0141 70.04C81.0141 71.0267 81.2541 71.7733 81.7341 72.28C82.2274 72.7733 82.8074 73.02 83.4741 73.02ZM93.8723 75C92.8323 75 91.999 74.7467 91.3723 74.24C90.7457 73.7333 90.4323 72.8333 90.4323 71.54V67.22H88.7323V65.08H90.4323L90.7323 62.42H92.9923V65.08H95.6723V67.22H92.9923V71.56C92.9923 72.04 93.0923 72.3733 93.2923 72.56C93.5057 72.7333 93.8657 72.82 94.3723 72.82H95.6123V75H93.8723ZM98.2503 63.54C97.7836 63.54 97.397 63.4 97.0903 63.12C96.797 62.84 96.6503 62.4867 96.6503 62.06C96.6503 61.6333 96.797 61.2867 97.0903 61.02C97.397 60.74 97.7836 60.6 98.2503 60.6C98.717 60.6 99.097 60.74 99.3903 61.02C99.697 61.2867 99.8503 61.6333 99.8503 62.06C99.8503 62.4867 99.697 62.84 99.3903 63.12C99.097 63.4 98.717 63.54 98.2503 63.54ZM96.9703 75V65.08H99.5303V75H96.9703ZM101.662 75V67.22H100.302V65.08H101.662V63.92C101.662 62.72 101.962 61.8667 102.562 61.36C103.176 60.8533 104.002 60.6 105.042 60.6H106.142V62.78H105.442C105.002 62.78 104.689 62.8667 104.502 63.04C104.316 63.2133 104.222 63.5067 104.222 63.92V65.08H110.622V75H108.062V67.22H104.222V75H101.662ZM109.362 63.66C108.896 63.66 108.509 63.52 108.202 63.24C107.909 62.96 107.762 62.6067 107.762 62.18C107.762 61.7533 107.909 61.4067 108.202 61.14C108.509 60.86 108.896 60.72 109.362 60.72C109.829 60.72 110.209 60.86 110.502 61.14C110.809 61.4067 110.962 61.7533 110.962 62.18C110.962 62.6067 110.809 62.96 110.502 63.24C110.209 63.52 109.829 63.66 109.362 63.66ZM117.191 75.24C116.178 75.24 115.285 75.02 114.511 74.58C113.738 74.14 113.125 73.5267 112.671 72.74C112.231 71.9533 112.011 71.0533 112.011 70.04C112.011 69.0267 112.231 68.1267 112.671 67.34C113.125 66.5533 113.738 65.94 114.511 65.5C115.285 65.06 116.178 64.84 117.191 64.84C118.458 64.84 119.525 65.1733 120.391 65.84C121.258 66.4933 121.811 67.4 122.051 68.56H119.351C119.218 68.08 118.951 67.7067 118.551 67.44C118.165 67.16 117.705 67.02 117.171 67.02C116.465 67.02 115.865 67.2867 115.371 67.82C114.878 68.3533 114.631 69.0933 114.631 70.04C114.631 70.9867 114.878 71.7267 115.371 72.26C115.865 72.7933 116.465 73.06 117.171 73.06C117.705 73.06 118.165 72.9267 118.551 72.66C118.951 72.3933 119.218 72.0133 119.351 71.52H122.051C121.811 72.64 121.258 73.54 120.391 74.22C119.525 74.9 118.458 75.24 117.191 75.24ZM126.743 75.24C125.89 75.24 125.19 75.1067 124.643 74.84C124.097 74.56 123.69 74.1933 123.423 73.74C123.157 73.2867 123.023 72.7867 123.023 72.24C123.023 71.32 123.383 70.5733 124.103 70C124.823 69.4267 125.903 69.14 127.343 69.14H129.863V68.9C129.863 68.22 129.67 67.72 129.283 67.4C128.897 67.08 128.417 66.92 127.843 66.92C127.323 66.92 126.87 67.0467 126.483 67.3C126.097 67.54 125.857 67.9 125.763 68.38H123.263C123.33 67.66 123.57 67.0333 123.983 66.5C124.41 65.9667 124.957 65.56 125.623 65.28C126.29 64.9867 127.037 64.84 127.863 64.84C129.277 64.84 130.39 65.1933 131.203 65.9C132.017 66.6067 132.423 67.6067 132.423 68.9V75H130.243L130.003 73.4C129.71 73.9333 129.297 74.3733 128.763 74.72C128.243 75.0667 127.57 75.24 126.743 75.24ZM127.323 73.24C128.057 73.24 128.623 73 129.023 72.52C129.437 72.04 129.697 71.4467 129.803 70.74H127.623C126.943 70.74 126.457 70.8667 126.163 71.12C125.87 71.36 125.723 71.66 125.723 72.02C125.723 72.4067 125.87 72.7067 126.163 72.92C126.457 73.1333 126.843 73.24 127.323 73.24ZM138.15 75C137.11 75 136.276 74.7467 135.65 74.24C135.023 73.7333 134.71 72.8333 134.71 71.54V67.22H133.01V65.08H134.71L135.01 62.42H137.27V65.08H139.95V67.22H137.27V71.56C137.27 72.04 137.37 72.3733 137.57 72.56C137.783 72.7333 138.143 72.82 138.65 72.82H139.89V75H138.15ZM142.528 63.54C142.061 63.54 141.674 63.4 141.368 63.12C141.074 62.84 140.928 62.4867 140.928 62.06C140.928 61.6333 141.074 61.2867 141.368 61.02C141.674 60.74 142.061 60.6 142.528 60.6C142.994 60.6 143.374 60.74 143.668 61.02C143.974 61.2867 144.128 61.6333 144.128 62.06C144.128 62.4867 143.974 62.84 143.668 63.12C143.374 63.4 142.994 63.54 142.528 63.54ZM141.248 75V65.08H143.808V75H141.248ZM150.24 75.24C149.28 75.24 148.413 75.02 147.64 74.58C146.88 74.14 146.273 73.5333 145.82 72.76C145.38 71.9733 145.16 71.0667 145.16 70.04C145.16 69.0133 145.386 68.1133 145.84 67.34C146.293 66.5533 146.9 65.94 147.66 65.5C148.433 65.06 149.3 64.84 150.26 64.84C151.206 64.84 152.06 65.06 152.82 65.5C153.593 65.94 154.2 66.5533 154.64 67.34C155.093 68.1133 155.32 69.0133 155.32 70.04C155.32 71.0667 155.093 71.9733 154.64 72.76C154.2 73.5333 153.593 74.14 152.82 74.58C152.046 75.02 151.186 75.24 150.24 75.24ZM150.24 73.02C150.906 73.02 151.486 72.7733 151.98 72.28C152.473 71.7733 152.72 71.0267 152.72 70.04C152.72 69.0533 152.473 68.3133 151.98 67.82C151.486 67.3133 150.913 67.06 150.26 67.06C149.58 67.06 148.993 67.3133 148.5 67.82C148.02 68.3133 147.78 69.0533 147.78 70.04C147.78 71.0267 148.02 71.7733 148.5 72.28C148.993 72.7733 149.573 73.02 150.24 73.02ZM156.609 75V65.08H158.869L159.069 66.76C159.375 66.1733 159.815 65.7067 160.389 65.36C160.975 65.0133 161.662 64.84 162.449 64.84C163.675 64.84 164.629 65.2267 165.309 66C165.989 66.7733 166.329 67.9067 166.329 69.4V75H163.769V69.64C163.769 68.7867 163.595 68.1333 163.249 67.68C162.902 67.2267 162.362 67 161.629 67C160.909 67 160.315 67.2533 159.849 67.76C159.395 68.2667 159.169 68.9733 159.169 69.88V75H156.609Z" fill="#2E3A59"/>
<path d="M132 198C130.896 197.995 130.001 197.104 129.99 196H133.99C133.992 196.267 133.941 196.532 133.84 196.78C133.578 197.382 133.042 197.821 132.4 197.96C132.269 197.989 132.134 198.002 132 198ZM140 195H124V193L126 192V186.5C125.947 185.089 126.266 183.689 126.924 182.44C127.579 181.282 128.699 180.459 130 180.18V178H134V180.18H134.006H134.011C134.036 180.18 134.06 180.19 134.084 180.196C136.611 180.845 138 183.082 138 186.5V192L140 193V195ZM129 187V189H131V191H133V189H135V187H133V185H131V187H129Z" fill="#2E3A59"/>
<path d="M76 198C74.8954 198 74 197.105 74 196H78C78 197.105 77.1046 198 76 198ZM84 195H68V193L70 192V186.5C70 183.038 71.421 180.793 74 180.18V178H78V180.18C80.579 180.792 82 183.036 82 186.5V192L84 193V195ZM76 181.75C74.7797 181.671 73.6028 182.217 72.875 183.2C72.2525 184.185 71.9471 185.336 72 186.5V193H80V186.5C80.0528 185.336 79.7474 184.185 79.125 183.2C78.3972 182.217 77.2203 181.671 76 181.75ZM77 191H75V189H73V187H75V185H77V187H79V189H77V191Z" fill="#2E3A59"/>
<path d="M468 142C466.895 142 466 141.105 466 140H470C470 141.105 469.105 142 468 142ZM476 139H460V137L462 136V130.5C462 127.038 463.421 124.793 466 124.18V122H470V124.18H470.006H470.011H470.022H470.028H470.041L470.083 124.19C472.611 124.843 474 127.08 474 130.5V136L476 137V139ZM468 125.75C466.78 125.671 465.603 126.217 464.875 127.2C464.253 128.185 463.947 129.336 464 130.5V137H472V130.5C472.053 129.336 471.747 128.185 471.125 127.2C470.397 126.217 469.22 125.671 468 125.75ZM471 133H465V131H471V133Z" fill="#2E3A59"/>
<path d="M412 142C410.895 142 410 141.105 410 140H414C414 141.105 413.105 142 412 142ZM420 139H404V137L406 136V130.5C406 127.038 407.421 124.793 410 124.18V122H413C412.348 122.864 411.997 123.918 412 125C412 125.251 412.019 125.502 412.056 125.751H412C410.78 125.672 409.603 126.218 408.875 127.2C408.253 128.185 407.947 129.336 408 130.5V137H416V130.5C416 130.289 415.993 130.086 415.979 129.9C416.64 130.037 417.323 130.039 417.985 129.907C417.996 130.118 418 130.319 418 130.507V136L420 137V139ZM417 128C416.396 128.001 415.806 127.818 415.307 127.477C414.129 126.672 413.681 125.148 414.236 123.833C414.792 122.518 416.197 121.777 417.595 122.06C418.994 122.343 420 123.573 420 125C420 126.657 418.657 128 417 128Z" fill="#2E3A59"/>
<path d="M356 142C354.895 142 354 141.105 354 140H358C358 141.105 357.105 142 356 142ZM364 139H348V137L350 136V130.5C350 127.038 351.421 124.793 354 124.18V122H358V124.18C360.579 124.792 362 127.036 362 130.5V136L364 137V139ZM356 125.75C354.78 125.671 353.603 126.217 352.875 127.2C352.253 128.185 351.947 129.336 352 130.5V137H360V130.5C360.053 129.336 359.747 128.185 359.125 127.2C358.397 126.217 357.22 125.671 356 125.75Z" fill="#2E3A59"/>
<path d="M300 142C298.896 141.995 298.001 141.104 297.99 140H301.99C301.992 140.267 301.941 140.532 301.84 140.78C301.578 141.382 301.042 141.821 300.4 141.96C300.269 141.989 300.134 142.002 300 142ZM308 139H292V137L294 136V130.5C293.947 129.089 294.266 127.689 294.924 126.44C295.579 125.282 296.699 124.459 298 124.18V122H302V124.18H302.006H302.011C302.036 124.18 302.06 124.19 302.084 124.196C304.611 124.845 306 127.082 306 130.5V136L308 137V139ZM297 131V133H303V131H297Z" fill="#2E3A59"/>
<path d="M244 142C242.895 142 242 141.105 242 140H246C246 141.105 245.105 142 244 142ZM252 139H236V137L238 136V130.5C237.947 129.089 238.266 127.689 238.924 126.44C239.579 125.282 240.699 124.459 242 124.18V122H245.646C244.346 123.452 244.129 125.576 245.109 127.262C246.088 128.947 248.041 129.81 249.946 129.4C249.981 129.757 249.998 130.127 249.998 130.5V136L251.998 137V139H252ZM249 128C247.41 127.998 246.098 126.755 246.009 125.167C245.921 123.579 247.087 122.198 248.667 122.019C250.247 121.84 251.693 122.925 251.961 124.493C252.23 126.06 251.229 127.565 249.68 127.923C249.457 127.974 249.229 128 249 128Z" fill="#2E3A59"/>
<path d="M188 142C186.895 142 186 141.105 186 140H190C190 141.105 189.105 142 188 142ZM195.585 141.9L192.685 139H180V137L182 136V130.5C181.996 129.829 182.057 129.159 182.182 128.5L178.615 124.929L180.029 123.515L196.998 140.487L195.586 141.9H195.585ZM193.999 134.659L184.279 124.938C184.799 124.578 185.383 124.32 186 124.18V122H190V124.18C192.579 124.793 194 127.038 194 130.5V134.66L193.999 134.659Z" fill="#2E3A59"/>
<path d="M132 142C130.896 141.995 130.001 141.104 129.99 140H133.99C133.992 140.267 133.942 140.532 133.841 140.78C133.579 141.382 133.043 141.821 132.401 141.96H132.396H132.383H132.373H132.362H132.355C132.238 141.984 132.119 141.998 132 142ZM140 139H124V137L126 136V130.5C125.947 129.089 126.266 127.689 126.924 126.44C127.579 125.282 128.699 124.459 130 124.18V122H134V124.18C136.579 124.794 138 127.038 138 130.5V136L140 137V139ZM141.97 130H139.97C139.877 127.414 138.634 125.005 136.58 123.43L138 122C139.196 122.93 140.163 124.123 140.825 125.486C141.51 126.897 141.9 128.433 141.97 130ZM124 130H122C122.07 128.433 122.46 126.897 123.145 125.486C123.807 124.123 124.774 122.93 125.97 122L127.39 123.43C125.336 125.004 124.093 127.414 124 130Z" fill="#2E3A59"/>
<path d="M76 142C74.896 141.995 74.0009 141.104 73.99 140H77.99C77.9921 140.267 77.9411 140.532 77.84 140.78C77.5777 141.382 77.0418 141.821 76.4 141.96H76.395H76.38H76.362H76.353C76.2368 141.984 76.1186 141.998 76 142ZM84 139H68V137L70 136V130.5C69.9473 129.089 70.2659 127.689 70.924 126.44C71.579 125.282 72.6987 124.459 74 124.18V122H78V124.18C80.579 124.794 82 127.038 82 130.5V136L84 137V139Z" fill="#2E3A59"/>
</g>
<defs>
<filter id="filter0_d" x="0" y="0" width="544" height="272" filterUnits="userSpaceOnUse" color-interpolation-filters="sRGB">
<feFlood flood-opacity="0" result="BackgroundImageFix"/>
<feColorMatrix in="SourceAlpha" type="matrix" values="0 0 0 0 0 0 0 0 0 0 0 0 0 0 0 0 0 0 127 0"/>
<feOffset dy="8"/>
<feGaussianBlur stdDeviation="12"/>
<feColorMatrix type="matrix" values="0 0 0 0 0.0988235 0 0 0 0 0.127007 0 0 0 0 0.219608 0 0 0 0.04 0"/>
<feBlend mode="normal" in2="BackgroundImageFix" result="effect1_dropShadow"/>
<feBlend mode="normal" in="SourceGraphic" in2="effect1_dropShadow" result="shape"/>
</filter>
</defs>
</svg>
