<svg width="544" height="272" viewBox="0 0 544 272" fill="none" xmlns="http://www.w3.org/2000/svg">
<g filter="url(#filter0_d)">
<rect x="24" y="16" width="496" height="224" rx="8" fill="white"/>
<path d="M70.14 75.24C69.1133 75.24 68.2067 75.0667 67.42 74.72C66.6333 74.36 66.0133 73.8533 65.56 73.2C65.1067 72.5333 64.8733 71.7267 64.86 70.78H67.56C67.5867 71.4333 67.82 71.9867 68.26 72.44C68.7133 72.88 69.3333 73.1 70.12 73.1C70.8 73.1 71.34 72.94 71.74 72.62C72.14 72.2867 72.34 71.8467 72.34 71.3C72.34 70.7267 72.16 70.28 71.8 69.96C71.4533 69.64 70.9867 69.38 70.4 69.18C69.8133 68.98 69.1867 68.7667 68.52 68.54C67.44 68.1667 66.6133 67.6867 66.04 67.1C65.48 66.5133 65.2 65.7333 65.2 64.76C65.1867 63.9333 65.38 63.2267 65.78 62.64C66.1933 62.04 66.7533 61.58 67.46 61.26C68.1667 60.9267 68.98 60.76 69.9 60.76C70.8333 60.76 71.6533 60.9267 72.36 61.26C73.08 61.5933 73.64 62.06 74.04 62.66C74.4533 63.26 74.6733 63.9733 74.7 64.8H71.96C71.9467 64.3067 71.7533 63.8733 71.38 63.5C71.02 63.1133 70.5133 62.92 69.86 62.92C69.3 62.9067 68.8267 63.0467 68.44 63.34C68.0667 63.62 67.88 64.0333 67.88 64.58C67.88 65.0467 68.0267 65.42 68.32 65.7C68.6133 65.9667 69.0133 66.1933 69.52 66.38C70.0267 66.5667 70.6067 66.7667 71.26 66.98C71.9533 67.22 72.5867 67.5 73.16 67.82C73.7333 68.14 74.1933 68.5667 74.54 69.1C74.8867 69.62 75.06 70.2933 75.06 71.12C75.06 71.8533 74.8733 72.5333 74.5 73.16C74.1267 73.7867 73.5733 74.2933 72.84 74.68C72.1067 75.0533 71.2067 75.24 70.14 75.24ZM77.4736 79.4L79.7736 74.34H79.1736L75.3136 65.08H78.0936L80.8736 72.06L83.7736 65.08H86.4936L80.1936 79.4H77.4736ZM90.7789 75.24C89.8989 75.24 89.1256 75.1 88.4589 74.82C87.7922 74.5267 87.2589 74.1267 86.8589 73.62C86.4589 73.1133 86.2189 72.5267 86.1389 71.86H88.7189C88.7989 72.2467 89.0122 72.58 89.3589 72.86C89.7189 73.1267 90.1789 73.26 90.7389 73.26C91.2989 73.26 91.7056 73.1467 91.9589 72.92C92.2256 72.6933 92.3589 72.4333 92.3589 72.14C92.3589 71.7133 92.1722 71.4267 91.7989 71.28C91.4256 71.12 90.9056 70.9667 90.2389 70.82C89.8122 70.7267 89.3789 70.6133 88.9389 70.48C88.4989 70.3467 88.0922 70.18 87.7189 69.98C87.3589 69.7667 87.0656 69.5 86.8389 69.18C86.6122 68.8467 86.4989 68.44 86.4989 67.96C86.4989 67.08 86.8456 66.34 87.5389 65.74C88.2456 65.14 89.2322 64.84 90.4989 64.84C91.6722 64.84 92.6056 65.1133 93.2989 65.66C94.0056 66.2067 94.4256 66.96 94.5589 67.92H92.1389C91.9922 67.1867 91.4389 66.82 90.4789 66.82C89.9989 66.82 89.6256 66.9133 89.3589 67.1C89.1056 67.2867 88.9789 67.52 88.9789 67.8C88.9789 68.0933 89.1722 68.3267 89.5589 68.5C89.9456 68.6733 90.4589 68.8333 91.0989 68.98C91.7922 69.14 92.4256 69.32 92.9989 69.52C93.5856 69.7067 94.0522 69.9933 94.3989 70.38C94.7456 70.7533 94.9189 71.2933 94.9189 72C94.9322 72.6133 94.7722 73.1667 94.4389 73.66C94.1056 74.1533 93.6256 74.54 92.9989 74.82C92.3722 75.1 91.6322 75.24 90.7789 75.24ZM100.294 75C99.2542 75 98.4209 74.7467 97.7942 74.24C97.1676 73.7333 96.8542 72.8333 96.8542 71.54V67.22H95.1542V65.08H96.8542L97.1542 62.42H99.4142V65.08H102.094V67.22H99.4142V71.56C99.4142 72.04 99.5142 72.3733 99.7142 72.56C99.9276 72.7333 100.288 72.82 100.794 72.82H102.034V75H100.294ZM107.858 75.24C106.858 75.24 105.972 75.0267 105.198 74.6C104.425 74.1733 103.818 73.5733 103.378 72.8C102.938 72.0267 102.718 71.1333 102.718 70.12C102.718 69.0933 102.932 68.18 103.358 67.38C103.798 66.58 104.398 65.96 105.158 65.52C105.932 65.0667 106.838 64.84 107.878 64.84C108.852 64.84 109.712 65.0533 110.458 65.48C111.205 65.9067 111.785 66.4933 112.198 67.24C112.625 67.9733 112.838 68.7933 112.838 69.7C112.838 69.8467 112.832 70 112.818 70.16C112.818 70.32 112.812 70.4867 112.798 70.66H105.258C105.312 71.4333 105.578 72.04 106.058 72.48C106.552 72.92 107.145 73.14 107.838 73.14C108.358 73.14 108.792 73.0267 109.138 72.8C109.498 72.56 109.765 72.2533 109.938 71.88H112.538C112.352 72.5067 112.038 73.08 111.598 73.6C111.172 74.1067 110.638 74.5067 109.998 74.8C109.372 75.0933 108.658 75.24 107.858 75.24ZM107.878 66.92C107.252 66.92 106.698 67.1 106.218 67.46C105.738 67.8067 105.432 68.34 105.298 69.06H110.238C110.198 68.4067 109.958 67.8867 109.518 67.5C109.078 67.1133 108.532 66.92 107.878 66.92ZM113.991 75V65.08H116.251L116.471 66.42C116.791 65.94 117.211 65.56 117.731 65.28C118.265 64.9867 118.878 64.84 119.571 64.84C121.105 64.84 122.191 65.4333 122.831 66.62C123.191 66.0733 123.671 65.64 124.271 65.32C124.885 65 125.551 64.84 126.271 64.84C127.565 64.84 128.558 65.2267 129.251 66C129.945 66.7733 130.291 67.9067 130.291 69.4V75H127.731V69.64C127.731 68.7867 127.565 68.1333 127.231 67.68C126.911 67.2267 126.411 67 125.731 67C125.038 67 124.478 67.2533 124.051 67.76C123.638 68.2667 123.431 68.9733 123.431 69.88V75H120.871V69.64C120.871 68.7867 120.705 68.1333 120.371 67.68C120.038 67.2267 119.525 67 118.831 67C118.151 67 117.598 67.2533 117.171 67.76C116.758 68.2667 116.551 68.9733 116.551 69.88V75H113.991Z" fill="#2E3A59"/>
<path d="M420 197H404C402.895 197 402 196.105 402 195V181C402 179.895 402.895 179 404 179H420C421.105 179 422 179.895 422 181V195C422 196.105 421.105 197 420 197ZM404 183V195H420V183H404ZM418 193H412V191H418V193ZM407.414 193L406 191.586L408.293 189.294L406 187L407.414 185.586L411.12 189.293L407.415 193H407.414Z" fill="#2E3A59"/>
<path d="M364 197H348C346.895 197 346 196.105 346 195V181C346 179.895 346.895 179 348 179H364C365.105 179 366 179.895 366 181V195C366 196.105 365.105 197 364 197ZM354 183V195H364V183H354ZM348 183V195H352V183H348Z" fill="#2E3A59"/>
<path d="M308 197H292C290.895 197 290 196.105 290 195V181C290 179.895 290.895 179 292 179H308C309.105 179 310 179.895 310 181V195C310 196.105 309.105 197 308 197ZM292 183V195H308V183H292ZM302.707 192.707L301.294 191.294L303.586 189L301.293 186.707L302.707 185.293L306.414 189L302.708 192.706L302.707 192.707ZM297.293 192.707L293.586 189L297.293 185.293L298.707 186.707L296.414 189L298.706 191.293L297.293 192.706V192.707Z" fill="#2E3A59"/>
<path d="M252 197H236C234.895 197 234 196.105 234 195V181C234 179.895 234.895 179 236 179H252C253.105 179 254 179.895 254 181V195C254 196.105 253.105 197 252 197ZM236 183V195H252V183H236ZM241.706 192.708L240.293 191.293L242.586 189L240.293 186.707L241.707 185.293L244 187.586L246.293 185.293L247.707 186.707L245.414 189L247.707 191.293L246.294 192.706L244 190.414L241.707 192.707L241.706 192.708Z" fill="#2E3A59"/>
<path d="M196 197H180C178.895 197 178 196.105 178 195V181C178 179.895 178.895 179 180 179H196C197.105 179 198 179.895 198 181V195C198 196.105 197.105 197 196 197ZM180 183V195H196V183H180ZM187 192.121L183.293 188.414L184.707 187L187 189.293L191.293 185L192.707 186.414L187 192.12V192.121Z" fill="#2E3A59"/>
<path d="M140 197H124C122.895 197 122 196.105 122 195V181C122 179.895 122.895 179 124 179H140C141.105 179 142 179.895 142 181V195C142 196.105 141.105 197 140 197ZM124 183V195H140V183H124Z" fill="#2E3A59"/>
<path d="M73 196L68 192L73 188V191H86V193H73V196ZM79 188V185H66V183H79V180L84 184L79 188Z" fill="#2E3A59"/>
<path d="M476 140H460C458.895 140 458 139.105 458 138V126C458 124.895 458.895 124 460 124H476C477.105 124 478 124.895 478 126V138C478 139.105 477.105 140 476 140ZM460 126V138H476V126H460ZM474 136H468V134H474V136ZM463.414 136L462 134.586L464.293 132.293L462 130L463.414 128.586L467.121 132.293L463.415 136H463.414Z" fill="#2E3A59"/>
<path d="M412 142C407.664 142 404 139.965 404 137.556V126.444C404 124.035 407.664 122 412 122C416.336 122 420 124.035 420 126.444V137.556C420 139.965 416.337 142 412 142ZM406 134.9V137.559C406.07 138.112 408.309 139.781 412 139.781C415.691 139.781 417.931 138.107 418 137.553V134.9C416.179 135.955 414.104 136.491 412 136.447C409.896 136.491 407.821 135.955 406 134.9ZM406 129.341V132C406.07 132.553 408.309 134.222 412 134.222C415.691 134.222 417.931 132.548 418 131.994V129.341C416.18 130.397 414.104 130.932 412 130.889C409.896 130.932 407.82 130.397 406 129.341ZM412 124.222C408.308 124.222 406.069 125.896 406 126.451C406.07 127 408.311 128.666 412 128.666C415.689 128.666 417.931 126.992 418 126.438C417.93 125.887 415.689 124.222 412 124.222Z" fill="#2E3A59"/>
<path d="M356 142C351.439 142 348 140.065 348 137.5V126H348.047C348.397 124.7 349.335 123.639 350.582 123.133C352.278 122.348 354.131 121.96 356 122C360.561 122 364 123.935 364 126.5C363.999 126.668 363.983 126.835 363.952 127H364V137.5C364 140.065 360.561 142 356 142ZM349.777 129.394V137.5C349.777 138.519 352.2 140 356 140C359.8 140 362.222 138.519 362.222 137.5V129.394C360.347 130.52 358.186 131.078 356 131C353.814 131.078 351.652 130.52 349.777 129.394ZM356 124C352.2 124 349.777 125.481 349.777 126.5C349.777 127.519 352.2 129 356 129C359.8 129 362.222 127.519 362.222 126.5C362.222 125.481 359.8 124 356 124Z" fill="#2E3A59"/>
<path d="M296.01 138.02L290 132.01L296.01 126L297.425 127.414L292.825 132.014L297.425 136.614L296.011 138.02H296.01ZM303.989 138.02L302.576 136.607L307.176 132.007L302.576 127.407L303.99 126L310 132.01L303.99 138.02H303.989Z" fill="#2E3A59"/>
<path d="M251 141H237C235.895 141 235 140.105 235 139V125C235 123.895 235.895 123 237 123H251C252.105 123 253 123.895 253 125V139C253 140.105 252.105 141 251 141ZM237 130V139H251V130H237ZM237 125V128H251V125H237Z" fill="#2E3A59"/>
<path d="M195 141H181C179.895 141 179 140.105 179 139V125C179 123.895 179.895 123 181 123H195C196.105 123 197 123.895 197 125V139C197 140.105 196.105 141 195 141ZM192 125V139H195V125H192ZM181 125V139H190V125H181Z" fill="#2E3A59"/>
<path d="M139 141H125C123.895 141 123 140.105 123 139V125C123 123.895 123.895 123 125 123H139C140.105 123 141 123.895 141 125V139C141 140.105 140.105 141 139 141ZM130 125V139H139V125H130ZM125 125V139H128V125H125Z" fill="#2E3A59"/>
<path d="M83 141H69C67.8954 141 67 140.105 67 139V125C67 123.895 67.8954 123 69 123H83C84.1046 123 85 123.895 85 125V139C85 140.105 84.1046 141 83 141ZM69 136V139H83V136H69ZM69 125V134H83V125H69Z" fill="#2E3A59"/>
</g>
<defs>
<filter id="filter0_d" x="0" y="0" width="544" height="272" filterUnits="userSpaceOnUse" color-interpolation-filters="sRGB">
<feFlood flood-opacity="0" result="BackgroundImageFix"/>
<feColorMatrix in="SourceAlpha" type="matrix" values="0 0 0 0 0 0 0 0 0 0 0 0 0 0 0 0 0 0 127 0"/>
<feOffset dy="8"/>
<feGaussianBlur stdDeviation="12"/>
<feColorMatrix type="matrix" values="0 0 0 0 0.0988235 0 0 0 0 0.127007 0 0 0 0 0.219608 0 0 0 0.04 0"/>
<feBlend mode="normal" in2="BackgroundImageFix" result="effect1_dropShadow"/>
<feBlend mode="normal" in="SourceGraphic" in2="effect1_dropShadow" result="shape"/>
</filter>
</defs>
</svg>
