<svg width="544" height="272" viewBox="0 0 544 272" fill="none" xmlns="http://www.w3.org/2000/svg">
<g filter="url(#filter0_d)">
<rect x="24" y="16" width="496" height="224" rx="8" fill="white"/>
<path d="M70.76 75.24C69.7333 75.24 68.8067 75.04 67.98 74.64C67.1533 74.2267 66.4933 73.6067 66 72.78C65.52 71.9533 65.28 70.9067 65.28 69.64V61H67.84V69.66C67.84 70.7533 68.1 71.5667 68.62 72.1C69.1533 72.6333 69.8867 72.9 70.82 72.9C71.74 72.9 72.4667 72.6333 73 72.1C73.5333 71.5667 73.8 70.7533 73.8 69.66V61H76.36V69.64C76.36 70.9067 76.1067 71.9533 75.6 72.78C75.0933 73.6067 74.4133 74.2267 73.56 74.64C72.72 75.04 71.7867 75.24 70.76 75.24ZM82.0133 75.24C81.1333 75.24 80.3599 75.1 79.6933 74.82C79.0266 74.5267 78.4933 74.1267 78.0933 73.62C77.6933 73.1133 77.4533 72.5267 77.3733 71.86H79.9533C80.0333 72.2467 80.2466 72.58 80.5933 72.86C80.9533 73.1267 81.4133 73.26 81.9733 73.26C82.5333 73.26 82.9399 73.1467 83.1933 72.92C83.4599 72.6933 83.5933 72.4333 83.5933 72.14C83.5933 71.7133 83.4066 71.4267 83.0333 71.28C82.6599 71.12 82.1399 70.9667 81.4733 70.82C81.0466 70.7267 80.6133 70.6133 80.1733 70.48C79.7333 70.3467 79.3266 70.18 78.9533 69.98C78.5933 69.7667 78.2999 69.5 78.0733 69.18C77.8466 68.8467 77.7333 68.44 77.7333 67.96C77.7333 67.08 78.0799 66.34 78.7733 65.74C79.4799 65.14 80.4666 64.84 81.7333 64.84C82.9066 64.84 83.8399 65.1133 84.5333 65.66C85.2399 66.2067 85.6599 66.96 85.7933 67.92H83.3733C83.2266 67.1867 82.6733 66.82 81.7133 66.82C81.2333 66.82 80.8599 66.9133 80.5933 67.1C80.3399 67.2867 80.2133 67.52 80.2133 67.8C80.2133 68.0933 80.4066 68.3267 80.7933 68.5C81.1799 68.6733 81.6933 68.8333 82.3333 68.98C83.0266 69.14 83.6599 69.32 84.2333 69.52C84.8199 69.7067 85.2866 69.9933 85.6333 70.38C85.9799 70.7533 86.1533 71.2933 86.1533 72C86.1666 72.6133 86.0066 73.1667 85.6733 73.66C85.3399 74.1533 84.8599 74.54 84.2333 74.82C83.6066 75.1 82.8666 75.24 82.0133 75.24ZM92.2411 75.24C91.2411 75.24 90.3544 75.0267 89.5811 74.6C88.8078 74.1733 88.2011 73.5733 87.7611 72.8C87.3211 72.0267 87.1011 71.1333 87.1011 70.12C87.1011 69.0933 87.3144 68.18 87.7411 67.38C88.1811 66.58 88.7811 65.96 89.5411 65.52C90.3144 65.0667 91.2211 64.84 92.2611 64.84C93.2344 64.84 94.0944 65.0533 94.8411 65.48C95.5878 65.9067 96.1678 66.4933 96.5811 67.24C97.0078 67.9733 97.2211 68.7933 97.2211 69.7C97.2211 69.8467 97.2144 70 97.2011 70.16C97.2011 70.32 97.1944 70.4867 97.1811 70.66H89.6411C89.6944 71.4333 89.9611 72.04 90.4411 72.48C90.9344 72.92 91.5278 73.14 92.2211 73.14C92.7411 73.14 93.1744 73.0267 93.5211 72.8C93.8811 72.56 94.1478 72.2533 94.3211 71.88H96.9211C96.7344 72.5067 96.4211 73.08 95.9811 73.6C95.5544 74.1067 95.0211 74.5067 94.3811 74.8C93.7544 75.0933 93.0411 75.24 92.2411 75.24ZM92.2611 66.92C91.6344 66.92 91.0811 67.1 90.6011 67.46C90.1211 67.8067 89.8144 68.34 89.6811 69.06H94.6211C94.5811 68.4067 94.3411 67.8867 93.9011 67.5C93.4611 67.1133 92.9144 66.92 92.2611 66.92ZM98.3742 75V65.08H100.654L100.894 66.94C101.254 66.3 101.741 65.7933 102.354 65.42C102.981 65.0333 103.714 64.84 104.554 64.84V67.54H103.834C103.274 67.54 102.774 67.6267 102.334 67.8C101.894 67.9733 101.548 68.2733 101.294 68.7C101.054 69.1267 100.934 69.72 100.934 70.48V75H98.3742Z" fill="#2E3A59"/>
<path d="M68 195H66C66 191.686 68.6863 189 72 189C75.3137 189 78 191.686 78 195H76C76 192.791 74.2091 191 72 191C69.7909 191 68 192.791 68 195ZM84.294 191.706L82 189.413L79.707 191.706L78.293 190.292L80.585 188L78.293 185.707L79.707 184.293L82 186.586L84.293 184.293L85.707 185.707L83.414 188L85.707 190.293L84.294 191.706ZM72 188C69.7909 188 68 186.209 68 184C68 181.791 69.7909 180 72 180C74.2091 180 76 181.791 76 184C75.9972 186.208 74.208 187.997 72 188ZM72 182C70.9074 182.001 70.0179 182.879 70.0022 183.971C69.9866 185.064 70.8506 185.967 71.9427 185.999C73.0348 186.032 73.9508 185.181 74 184.09V184.49V184C74 182.895 73.1046 182 72 182Z" fill="#2E3A59"/>
<path d="M460 139.001H458C458 135.687 460.686 133.001 464 133.001C467.314 133.001 470 135.687 470 139.001H468C468 136.792 466.209 135.001 464 135.001C461.791 135.001 460 136.792 460 139.001ZM474.364 135.364L472.95 133.95C474.263 132.637 475.001 130.857 475.001 129C475.001 127.143 474.263 125.363 472.95 124.05L474.364 122.636C477.878 126.151 477.878 131.848 474.364 135.363V135.364ZM471.535 132.536L470.121 131.12C471.291 129.949 471.291 128.051 470.121 126.88L471.535 125.463C473.488 127.416 473.488 130.581 471.535 132.534V132.536ZM464 132C461.791 132 460 130.209 460 128C460 125.791 461.791 124 464 124C466.209 124 468 125.791 468 128C468 129.061 467.579 130.078 466.828 130.828C466.078 131.579 465.061 132 464 132ZM464 126C462.907 126.001 462.018 126.879 462.002 127.971C461.987 129.064 462.851 129.967 463.943 129.999C465.035 130.032 465.951 129.181 466 128.09V128.49V128C466 126.895 465.105 126 464 126Z" fill="#2E3A59"/>
<path d="M404 139H402C402 135.686 404.686 133 408 133C411.314 133 414 135.686 414 139H412C412 136.791 410.209 135 408 135C405.791 135 404 136.791 404 139ZM419 136H417V133H414V131H417V128H419V131H422V133H419V136ZM408 132C405.791 132 404 130.209 404 128C404 125.791 405.791 124 408 124C410.209 124 412 125.791 412 128C411.997 130.208 410.208 131.997 408 132ZM408 126C406.907 126.001 406.018 126.879 406.002 127.971C405.987 129.064 406.851 129.967 407.943 129.999C409.035 130.032 409.951 129.181 410 128.09V128.49V128C410 126.895 409.105 126 408 126Z" fill="#2E3A59"/>
<path d="M356 142L353 139H349C347.895 139 347 138.105 347 137V124C347 122.895 347.895 122 349 122H363C364.105 122 365 122.895 365 124V137C365 138.105 364.105 139 363 139H359L356 142ZM349 124V137H354L356 139L358 137H363V124H349ZM360 134.986H352V134.6C352.118 132.505 353.904 130.898 356 131C358.096 130.898 359.882 132.505 360 134.6V134.985V134.986ZM356 130C355.464 130.019 354.944 129.814 354.565 129.435C354.186 129.056 353.981 128.536 354 128C353.982 127.464 354.187 126.945 354.566 126.566C354.945 126.187 355.464 125.982 356 126C356.536 125.982 357.055 126.187 357.434 126.566C357.814 126.945 358.018 127.464 358 128C358.019 128.536 357.814 129.056 357.435 129.435C357.056 129.814 356.536 130.019 356 130Z" fill="#2E3A59"/>
<path d="M292 139H290C290 135.686 292.686 133 296 133C299.314 133 302 135.686 302 139H300C300 136.791 298.209 135 296 135C293.791 135 292 136.791 292 139ZM310 133H302V131H310V133ZM296 132C293.791 132 292 130.209 292 128C292 125.791 293.791 124 296 124C298.209 124 300 125.791 300 128C299.997 130.208 298.208 131.997 296 132ZM296 126C294.907 126.001 294.018 126.879 294.002 127.971C293.987 129.064 294.851 129.967 295.943 129.999C297.035 130.032 297.951 129.181 298 128.09V128.49V128C298 126.895 297.105 126 296 126Z" fill="#2E3A59"/>
<path d="M244 142C242.488 142.004 240.995 141.662 239.636 141C239.139 140.758 238.662 140.475 238.211 140.155L238.074 140.055C236.834 139.14 235.82 137.952 235.11 136.584C234.376 135.168 233.995 133.595 234 132C234 126.477 238.477 122 244 122C249.523 122 254 126.477 254 132C254.005 133.594 253.625 135.166 252.891 136.582C252.182 137.949 251.17 139.136 249.931 140.052C249.464 140.394 248.968 140.695 248.449 140.952L248.369 140.992C247.009 141.658 245.514 142.003 244 142ZM244 137C242.501 136.997 241.128 137.834 240.443 139.167C242.684 140.277 245.316 140.277 247.557 139.167V139.162C246.871 137.83 245.498 136.995 244 137ZM244 135C246.166 135.003 248.163 136.17 249.229 138.056L249.244 138.043L249.258 138.031L249.241 138.046L249.231 138.054C251.76 135.869 252.664 132.342 251.499 129.21C250.333 126.078 247.343 124 244.001 124C240.659 124 237.669 126.078 236.503 129.21C235.338 132.342 236.242 135.869 238.771 138.054C239.837 136.169 241.834 135.003 244 135ZM244 134C241.791 134 240 132.209 240 130C240 127.791 241.791 126 244 126C246.209 126 248 127.791 248 130C248 131.061 247.579 132.078 246.828 132.828C246.078 133.579 245.061 134 244 134ZM244 128C242.895 128 242 128.895 242 130C242 131.105 242.895 132 244 132C245.105 132 246 131.105 246 130C246 128.895 245.105 128 244 128Z" fill="#2E3A59"/>
<path d="M180 139H178C178 135.686 180.686 133 184 133C187.314 133 190 135.686 190 139H188C188 136.791 186.209 135 184 135C181.791 135 180 136.791 180 139ZM191.994 135.41L189.288 132.71L190.7 131.292L191.992 132.584L196.292 128.292L197.704 129.708L191.992 135.408L191.994 135.41ZM184 132C181.791 132 180 130.209 180 128C180 125.791 181.791 124 184 124C186.209 124 188 125.791 188 128C187.997 130.208 186.208 131.997 184 132ZM184 126C182.907 126.001 182.018 126.879 182.002 127.971C181.987 129.064 182.851 129.967 183.943 129.999C185.035 130.032 185.951 129.181 186 128.09V128.49V128C186 126.895 185.105 126 184 126Z" fill="#2E3A59"/>
<path d="M125 141H123V140C123.004 136.136 126.136 133.004 130 133H134C137.864 133.004 140.996 136.136 141 140V141H139V140C138.997 137.24 136.76 135.003 134 135H130C127.24 135.003 125.003 137.24 125 140V141ZM132 132C129.239 132 127 129.761 127 127C127 124.239 129.239 122 132 122C134.761 122 137 124.239 137 127C136.997 129.76 134.76 131.997 132 132ZM132 124C130.343 124 129 125.343 129 127C129 128.657 130.343 130 132 130C133.657 130 135 128.657 135 127C135 125.343 133.657 124 132 124Z" fill="#2E3A59"/>
<path d="M84 140H68C66.9305 140.032 66.0364 139.193 66 138.124V125.875C66.0364 124.806 66.9307 123.967 68 124H84C85.0693 123.967 85.9636 124.806 86 125.875V138.125C85.963 139.194 85.0691 140.032 84 140ZM68 126V137.989L84 138V126.011L68 126ZM77.43 136H70C70.0735 135.172 70.4653 134.405 71.093 133.86C71.7918 133.167 72.7308 132.769 73.715 132.75C74.6992 132.769 75.6382 133.167 76.337 133.86C76.9645 134.405 77.3563 135.172 77.43 136ZM82 135H79V133H82V135ZM73.715 132C73.1791 132.019 72.6595 131.814 72.2803 131.435C71.9011 131.056 71.6964 130.536 71.715 130C71.6967 129.464 71.9015 128.945 72.2806 128.566C72.6597 128.187 73.1792 127.982 73.715 128C74.2508 127.982 74.7703 128.187 75.1494 128.566C75.5285 128.945 75.7333 129.464 75.715 130C75.7336 130.536 75.5289 131.056 75.1497 131.435C74.7705 131.814 74.2509 132.019 73.715 132ZM82 131H78V129H82V131Z" fill="#2E3A59"/>
</g>
<defs>
<filter id="filter0_d" x="0" y="0" width="544" height="272" filterUnits="userSpaceOnUse" color-interpolation-filters="sRGB">
<feFlood flood-opacity="0" result="BackgroundImageFix"/>
<feColorMatrix in="SourceAlpha" type="matrix" values="0 0 0 0 0 0 0 0 0 0 0 0 0 0 0 0 0 0 127 0"/>
<feOffset dy="8"/>
<feGaussianBlur stdDeviation="12"/>
<feColorMatrix type="matrix" values="0 0 0 0 0.0988235 0 0 0 0 0.127007 0 0 0 0 0.219608 0 0 0 0.04 0"/>
<feBlend mode="normal" in2="BackgroundImageFix" result="effect1_dropShadow"/>
<feBlend mode="normal" in="SourceGraphic" in2="effect1_dropShadow" result="shape"/>
</filter>
</defs>
</svg>
